<svg width="720" height="540" viewBox="0 0 720 540" fill="none" xmlns="http://www.w3.org/2000/svg">
  <rect width="720" height="540" fill="#050505"/>
  <rect width="720" height="540" fill="url(#bg)"/>
  <circle cx="198" cy="158" r="88" fill="#8A24FF" fill-opacity="0.26"/>
  <circle cx="528" cy="357" r="62" fill="#C487FF" fill-opacity="0.16"/>
  <path d="M138 187H582" stroke="#E5D6FF" stroke-opacity="0.86" stroke-width="3"/>
  <path d="M138 270H582" stroke="#E5D6FF" stroke-opacity="0.7" stroke-width="3"/>
  <path d="M138 353H582" stroke="#E5D6FF" stroke-opacity="0.86" stroke-width="3"/>
  <path d="M177 148V392" stroke="#A100FF" stroke-opacity="0.75" stroke-width="3"/>
  <path d="M282 148V392" stroke="#A100FF" stroke-opacity="0.55" stroke-width="3"/>
  <path d="M387 148V392" stroke="#A100FF" stroke-opacity="0.85" stroke-width="3"/>
  <path d="M492 148V392" stroke="#A100FF" stroke-opacity="0.55" stroke-width="3"/>
  <path d="M177 187L282 270L387 187L492 270L582 208" stroke="#39B6FF" stroke-width="8" stroke-linecap="round" stroke-linejoin="round"/>
  <g fill="#F4EFFF">
    <circle cx="177" cy="187" r="11"/>
    <circle cx="282" cy="270" r="11"/>
    <circle cx="387" cy="187" r="11"/>
    <circle cx="492" cy="270" r="11"/>
    <circle cx="582" cy="208" r="11"/>
  </g>
  <defs>
    <linearGradient id="bg" x1="36" y1="18" x2="676" y2="503" gradientUnits="userSpaceOnUse">
      <stop stop-color="#130022"/>
      <stop offset="1" stop-color="#060B2C"/>
    </linearGradient>
  </defs>
</svg>
