<svg xmlns="http://www.w3.org/2000/svg" viewBox="0 0 1200 900" role="img" aria-label="Gotham inspired digital globe">
  <defs>
    <linearGradient id="heroBg" x1="0" y1="0" x2="1" y2="1">
      <stop offset="0" stop-color="#040404"/>
      <stop offset="0.58" stop-color="#0b0d12"/>
      <stop offset="1" stop-color="#171b24"/>
    </linearGradient>
    <radialGradient id="heroGlow" cx="0.58" cy="0.5" r="0.34">
      <stop offset="0" stop-color="#ffe9a3" stop-opacity="0.95"/>
      <stop offset="0.38" stop-color="#f3c623" stop-opacity="0.52"/>
      <stop offset="1" stop-color="#f3c623" stop-opacity="0"/>
    </radialGradient>
  </defs>
  <rect width="1200" height="900" fill="url(#heroBg)"/>
  <circle cx="694" cy="440" r="314" fill="url(#heroGlow)"/>
  <g fill="none" stroke="#2a303a" stroke-width="2" opacity="0.48">
    <circle cx="694" cy="440" r="286"/>
    <ellipse cx="694" cy="440" rx="286" ry="118"/>
    <ellipse cx="694" cy="440" rx="286" ry="196"/>
    <ellipse cx="694" cy="440" rx="118" ry="286"/>
    <ellipse cx="694" cy="440" rx="196" ry="286"/>
  </g>
  <g fill="#f3c623">
    <rect x="418" y="424" width="14" height="14"/>
    <rect x="450" y="386" width="16" height="16"/>
    <rect x="500" y="330" width="14" height="14"/>
    <rect x="556" y="274" width="18" height="18"/>
    <rect x="632" y="226" width="18" height="18"/>
    <rect x="720" y="208" width="18" height="18"/>
    <rect x="810" y="232" width="18" height="18"/>
    <rect x="888" y="282" width="16" height="16"/>
    <rect x="944" y="346" width="14" height="14"/>
    <rect x="970" y="424" width="14" height="14"/>
    <rect x="960" y="512" width="12" height="12"/>
    <rect x="922" y="586" width="14" height="14"/>
    <rect x="862" y="646" width="16" height="16"/>
    <rect x="778" y="684" width="18" height="18"/>
    <rect x="690" y="700" width="18" height="18"/>
    <rect x="600" y="684" width="18" height="18"/>
    <rect x="522" y="648" width="16" height="16"/>
    <rect x="462" y="594" width="14" height="14"/>
    <rect x="426" y="526" width="12" height="12"/>
  </g>
  <g fill="#11151d">
    <circle cx="694" cy="440" r="226"/>
  </g>
  <g fill="#f3c623" opacity="0.82">
    <rect x="550" y="310" width="26" height="26"/>
    <rect x="592" y="278" width="28" height="28"/>
    <rect x="638" y="254" width="30" height="30"/>
    <rect x="688" y="248" width="30" height="30"/>
    <rect x="736" y="258" width="28" height="28"/>
    <rect x="782" y="286" width="26" height="26"/>
    <rect x="818" y="326" width="24" height="24"/>
    <rect x="842" y="374" width="24" height="24"/>
    <rect x="852" y="426" width="24" height="24"/>
    <rect x="844" y="480" width="24" height="24"/>
    <rect x="820" y="530" width="24" height="24"/>
    <rect x="784" y="570" width="26" height="26"/>
    <rect x="738" y="598" width="28" height="28"/>
    <rect x="688" y="608" width="30" height="30"/>
    <rect x="636" y="602" width="30" height="30"/>
    <rect x="588" y="578" width="28" height="28"/>
    <rect x="546" y="542" width="26" height="26"/>
    <rect x="516" y="494" width="24" height="24"/>
    <rect x="504" y="442" width="24" height="24"/>
    <rect x="512" y="390" width="24" height="24"/>
  </g>
  <g fill="#f3c623" opacity="0.22">
    <rect x="270" y="620" width="18" height="18"/>
    <rect x="220" y="650" width="14" height="14"/>
    <rect x="182" y="696" width="12" height="12"/>
    <rect x="138" y="736" width="10" height="10"/>
    <rect x="930" y="148" width="10" height="10"/>
    <rect x="968" y="116" width="12" height="12"/>
    <rect x="1012" y="174" width="14" height="14"/>
    <rect x="1046" y="224" width="12" height="12"/>
  </g>
</svg>
