<svg xmlns="http://www.w3.org/2000/svg" viewBox="0 0 600 848" role="img" aria-label="Gotham inspired growth strategy artwork">
  <defs>
    <linearGradient id="grBg" x1="0" y1="0" x2="1" y2="1">
      <stop offset="0" stop-color="#050505"/>
      <stop offset="1" stop-color="#171b24"/>
    </linearGradient>
    <linearGradient id="grBeam" x1="0" y1="0" x2="1" y2="0">
      <stop offset="0" stop-color="#7a5a00"/>
      <stop offset="0.5" stop-color="#f3c623"/>
      <stop offset="1" stop-color="#ffe9a3"/>
    </linearGradient>
  </defs>
  <rect width="600" height="848" fill="url(#grBg)"/>
  <g opacity="0.15" fill="#f3c623">
    <circle cx="486" cy="176" r="84"/>
    <circle cx="128" cy="650" r="112"/>
  </g>
  <g fill="#0a0d12">
    <path d="M0 848V574c86-30 170-34 246-12 76 22 138 22 206 0 50-16 100-42 148-52v338Z"/>
    <path d="M0 716c86-26 174-20 250 10 72 26 132 24 196 10 56-12 94-30 154-34v146H0Z" opacity="0.94"/>
  </g>
  <path d="M-16 748C92 612 150 568 220 548c68-20 132-2 194-34 58-30 114-94 218-100v40c-96 6-140 62-194 90-66 34-126 18-196 42-72 24-134 78-234 198Z" fill="url(#grBeam)"/>
  <path d="M0 780C102 656 156 624 222 608c62-16 126 4 190-20 58-22 114-82 212-88" fill="none" stroke="#f3c623" stroke-width="8" opacity="0.8"/>
  <g fill="#11151d">
    <rect x="44" y="480" width="40" height="108"/>
    <rect x="98" y="450" width="24" height="138"/>
    <rect x="420" y="412" width="54" height="176"/>
    <rect x="486" y="380" width="62" height="208"/>
  </g>
</svg>
