<svg xmlns="http://www.w3.org/2000/svg" viewBox="0 0 600 848" role="img" aria-label="Gotham inspired AI and data artwork">
  <defs>
    <linearGradient id="aidBg" x1="0" y1="0" x2="1" y2="1">
      <stop offset="0" stop-color="#050505"/>
      <stop offset="1" stop-color="#171b24"/>
    </linearGradient>
    <radialGradient id="aidGlow" cx="0.7" cy="0.22" r="0.26">
      <stop offset="0" stop-color="#ffe9a3" stop-opacity="0.95"/>
      <stop offset="0.44" stop-color="#f3c623" stop-opacity="0.4"/>
      <stop offset="1" stop-color="#f3c623" stop-opacity="0"/>
    </radialGradient>
  </defs>
  <rect width="600" height="848" fill="url(#aidBg)"/>
  <circle cx="438" cy="188" r="120" fill="url(#aidGlow)"/>
  <g fill="#0a0d12">
    <rect x="78" y="394" width="70" height="228"/>
    <rect x="164" y="350" width="58" height="272"/>
    <rect x="242" y="436" width="76" height="186"/>
    <rect x="338" y="322" width="86" height="300"/>
    <rect x="446" y="402" width="68" height="220"/>
  </g>
  <g fill="#f3c623" opacity="0.82">
    <rect x="94" y="428" width="12" height="18"/>
    <rect x="112" y="428" width="12" height="18"/>
    <rect x="180" y="382" width="11" height="16"/>
    <rect x="197" y="382" width="11" height="16"/>
    <rect x="362" y="360" width="14" height="20"/>
    <rect x="382" y="360" width="14" height="20"/>
    <rect x="466" y="438" width="12" height="18"/>
    <rect x="484" y="438" width="12" height="18"/>
  </g>
  <g fill="none" stroke="#f3c623" stroke-linecap="round">
    <path d="M112 384 194 334 278 458 382 304 478 398" stroke-width="7"/>
    <path d="M112 384l22-18m38-14 22-18m58 56 26 38m72-86 28-16m78 74 22 20" stroke-width="4" opacity="0.72"/>
  </g>
</svg>
