<svg xmlns="http://www.w3.org/2000/svg" viewBox="0 0 600 848" role="img" aria-label="Gotham inspired cloud platforms artwork">
  <defs>
    <linearGradient id="clBg" x1="0" y1="0" x2="1" y2="1">
      <stop offset="0" stop-color="#050505"/>
      <stop offset="1" stop-color="#171b24"/>
    </linearGradient>
    <pattern id="clGrid" width="24" height="24" patternUnits="userSpaceOnUse">
      <path d="M24 0H0V24" fill="none" stroke="#222733" stroke-width="1"/>
    </pattern>
  </defs>
  <rect width="600" height="848" fill="url(#clBg)"/>
  <rect width="600" height="848" fill="url(#clGrid)" opacity="0.7"/>
  <g fill="none" stroke="#f3c623" stroke-linecap="round" stroke-linejoin="round">
    <path d="M126 278c14-62 68-102 134-102 58 0 106 30 130 80 50 2 90 44 90 94 0 52-42 94-94 94H172c-52 0-94-42-94-94s42-94 94-94Z" stroke-width="7"/>
    <path d="M134 520h336" stroke-width="8"/>
    <path d="M170 560h264" stroke-width="4" opacity="0.72"/>
    <path d="M188 280V144m78 76V118m78 96V136m80 120V162" stroke-width="5" opacity="0.8"/>
    <path d="M170 536V708m88-90V772m86-120V742m88-104V758m88-94V736" stroke-width="4" opacity="0.78"/>
  </g>
  <g fill="#f3c623">
    <circle cx="188" cy="144" r="8"/>
    <circle cx="266" cy="118" r="8"/>
    <circle cx="424" cy="162" r="8"/>
    <circle cx="170" cy="708" r="7"/>
    <circle cx="344" cy="742" r="7"/>
    <circle cx="432" cy="758" r="7"/>
  </g>
</svg>
