<svg width="720" height="540" viewBox="0 0 720 540" fill="none" xmlns="http://www.w3.org/2000/svg">
  <rect width="720" height="540" fill="#060606"/>
  <rect width="720" height="540" fill="url(#bg)"/>
  <path d="M140 426H582" stroke="#C487FF" stroke-opacity="0.34" stroke-width="2"/>
  <path d="M173 187H547V331H173V187Z" stroke="#F3EFFF" stroke-opacity="0.46" stroke-width="3"/>
  <path d="M227 187V331" stroke="#F3EFFF" stroke-opacity="0.18" stroke-width="2"/>
  <path d="M282 187V331" stroke="#F3EFFF" stroke-opacity="0.18" stroke-width="2"/>
  <path d="M337 187V331" stroke="#F3EFFF" stroke-opacity="0.18" stroke-width="2"/>
  <path d="M392 187V331" stroke="#F3EFFF" stroke-opacity="0.18" stroke-width="2"/>
  <path d="M447 187V331" stroke="#F3EFFF" stroke-opacity="0.18" stroke-width="2"/>
  <path d="M502 187V331" stroke="#F3EFFF" stroke-opacity="0.18" stroke-width="2"/>
  <path d="M173 235H547" stroke="#F3EFFF" stroke-opacity="0.18" stroke-width="2"/>
  <path d="M173 283H547" stroke="#F3EFFF" stroke-opacity="0.18" stroke-width="2"/>
  <path d="M469 382C469 347.206 440.794 319 406 319H396C384.757 289.166 356.022 268 322.5 268C278.594 268 243 303.594 243 347.5C243 349.022 243.043 350.535 243.128 352.036C215.153 355.654 194 379.538 194 408.5C194 439.152 218.848 464 249.5 464H406C440.794 464 469 435.794 469 401V382Z" fill="#0E143A"/>
  <path d="M469 382C469 347.206 440.794 319 406 319H396C384.757 289.166 356.022 268 322.5 268C278.594 268 243 303.594 243 347.5C243 349.022 243.043 350.535 243.128 352.036C215.153 355.654 194 379.538 194 408.5C194 439.152 218.848 464 249.5 464H406C440.794 464 469 435.794 469 401V382Z" stroke="#E4D7FF" stroke-width="4"/>
  <circle cx="515" cy="132" r="72" fill="#8A24FF" fill-opacity="0.18"/>
  <defs>
    <linearGradient id="bg" x1="85" y1="43" x2="624" y2="486" gradientUnits="userSpaceOnUse">
      <stop stop-color="#0B0712"/>
      <stop offset="1" stop-color="#050714"/>
    </linearGradient>
  </defs>
</svg>
