<svg xmlns="http://www.w3.org/2000/svg" viewBox="0 0 600 848" role="img" aria-label="Futuristic landscape with luminous river">
  <defs>
    <linearGradient id="sky" x1="0" y1="0" x2="0" y2="1">
      <stop offset="0" stop-color="#f3b2a8"/>
      <stop offset="0.45" stop-color="#f7d9ba"/>
      <stop offset="1" stop-color="#766f8f"/>
    </linearGradient>
    <linearGradient id="terrain1" x1="0" y1="0" x2="1" y2="1">
      <stop offset="0" stop-color="#2f3d3d"/>
      <stop offset="1" stop-color="#16252b"/>
    </linearGradient>
    <linearGradient id="terrain2" x1="0" y1="0" x2="1" y2="1">
      <stop offset="0" stop-color="#3e4f42"/>
      <stop offset="1" stop-color="#202f33"/>
    </linearGradient>
    <linearGradient id="river" x1="0" y1="0" x2="1" y2="1">
      <stop offset="0" stop-color="#e9f9ff"/>
      <stop offset="0.35" stop-color="#8be3ff"/>
      <stop offset="1" stop-color="#5ac8ff"/>
    </linearGradient>
  </defs>
  <rect width="600" height="848" fill="url(#sky)"/>
  <circle cx="490" cy="220" r="62" fill="#ffe7bc" opacity="0.35"/>
  <path d="M0 420 C 110 380, 220 460, 340 420 C 430 390, 520 415, 600 380 L 600 848 L 0 848 Z" fill="url(#terrain1)"/>
  <path d="M0 530 C 130 500, 220 560, 310 540 C 430 515, 500 560, 600 520 L 600 848 L 0 848 Z" fill="url(#terrain2)"/>
  <path d="M0 645 C 90 640, 145 690, 235 670 C 340 646, 430 706, 600 685 L 600 848 L 0 848 Z" fill="#1b2a2f"/>
  <g fill="none" stroke-linecap="round">
    <path d="M620 360 C 530 360, 500 410, 430 420 C 350 430, 320 475, 245 485 C 160 496, 145 560, 95 595 C 55 622, 40 680, -10 735" stroke="url(#river)" stroke-width="22"/>
    <path d="M620 360 C 530 360, 500 410, 430 420 C 350 430, 320 475, 245 485 C 160 496, 145 560, 95 595 C 55 622, 40 680, -10 735" stroke="#eefcff" stroke-width="8" opacity="0.9"/>
  </g>
  <g opacity="0.55">
    <ellipse cx="420" cy="510" rx="46" ry="18" fill="#364a46"/>
    <ellipse cx="468" cy="506" rx="24" ry="10" fill="#3f5550"/>
    <ellipse cx="305" cy="565" rx="38" ry="15" fill="#334846"/>
    <ellipse cx="150" cy="650" rx="40" ry="16" fill="#2f4542"/>
  </g>
</svg>
