<svg xmlns="http://www.w3.org/2000/svg" viewBox="0 0 600 848" role="img" aria-label="Abstract governance wave pattern">
  <defs>
    <linearGradient id="bg" x1="0" y1="0" x2="1" y2="1">
      <stop offset="0" stop-color="#1d0d54"/>
      <stop offset="1" stop-color="#32077d"/>
    </linearGradient>
    <linearGradient id="line" x1="0" y1="0" x2="1" y2="1">
      <stop offset="0" stop-color="#f4dbff"/>
      <stop offset="1" stop-color="#9e77ff"/>
    </linearGradient>
  </defs>
  <rect width="600" height="848" fill="url(#bg)"/>
  <g stroke="url(#line)" fill="none" stroke-linecap="round" opacity="0.92">
    <path d="M-60 770 C 60 640, 180 700, 300 610 S 520 610, 660 515" stroke-width="2.4"/>
    <path d="M-60 755 C 60 625, 180 685, 300 595 S 520 595, 660 500" stroke-width="2.3"/>
    <path d="M-60 740 C 60 610, 180 670, 300 580 S 520 580, 660 485" stroke-width="2.2"/>
    <path d="M-60 725 C 60 595, 180 655, 300 565 S 520 565, 660 470" stroke-width="2.1"/>
    <path d="M-60 710 C 60 580, 180 640, 300 550 S 520 550, 660 455" stroke-width="2"/>
    <path d="M-60 695 C 60 565, 180 625, 300 535 S 520 535, 660 440" stroke-width="1.9"/>
    <path d="M-60 680 C 60 550, 180 610, 300 520 S 520 520, 660 425" stroke-width="1.8"/>
    <path d="M-60 665 C 60 535, 180 595, 300 505 S 520 505, 660 410" stroke-width="1.7"/>
    <path d="M-60 650 C 60 520, 180 580, 300 490 S 520 490, 660 395" stroke-width="1.6"/>
    <path d="M-60 635 C 60 505, 180 565, 300 475 S 520 475, 660 380" stroke-width="1.5"/>
    <path d="M-60 620 C 60 490, 180 550, 300 460 S 520 460, 660 365" stroke-width="1.4"/>
    <path d="M-60 605 C 60 475, 180 535, 300 445 S 520 445, 660 350" stroke-width="1.3"/>
  </g>
  <g opacity="0.5">
    <ellipse cx="145" cy="590" rx="120" ry="160" fill="#6d2ad8"/>
    <ellipse cx="392" cy="690" rx="170" ry="140" fill="#4814ad"/>
  </g>
</svg>
