<svg xmlns="http://www.w3.org/2000/svg" viewBox="0 0 600 848" role="img" aria-label="Gotham inspired AI platform engineering artwork">
  <defs>
    <linearGradient id="platBg" x1="0" y1="0" x2="1" y2="1">
      <stop offset="0" stop-color="#050505"/>
      <stop offset="1" stop-color="#151821"/>
    </linearGradient>
    <linearGradient id="cubeTop" x1="0" y1="0" x2="1" y2="1">
      <stop offset="0" stop-color="#ffe072"/>
      <stop offset="1" stop-color="#c79200"/>
    </linearGradient>
    <linearGradient id="cubeLeft" x1="0" y1="0" x2="1" y2="1">
      <stop offset="0" stop-color="#8d6500"/>
      <stop offset="1" stop-color="#5a4300"/>
    </linearGradient>
    <linearGradient id="cubeRight" x1="0" y1="0" x2="1" y2="1">
      <stop offset="0" stop-color="#2d2308"/>
      <stop offset="1" stop-color="#16120a"/>
    </linearGradient>
  </defs>
  <rect width="600" height="848" fill="url(#platBg)"/>
  <g opacity="0.12" fill="#f3c623">
    <circle cx="496" cy="184" r="126"/>
    <circle cx="188" cy="698" r="96"/>
  </g>
  <g transform="translate(0 34)">
    <g transform="translate(120 470)">
      <path d="M0 64 64 28 128 64 64 100Z" fill="url(#cubeTop)"/>
      <path d="M0 64v76l64 36v-76Z" fill="url(#cubeLeft)"/>
      <path d="M128 64v76l-64 36v-76Z" fill="url(#cubeRight)"/>
    </g>
    <g transform="translate(236 388)">
      <path d="M0 64 64 28 128 64 64 100Z" fill="url(#cubeTop)"/>
      <path d="M0 64v76l64 36v-76Z" fill="url(#cubeLeft)"/>
      <path d="M128 64v76l-64 36v-76Z" fill="url(#cubeRight)"/>
    </g>
    <g transform="translate(352 470)">
      <path d="M0 64 64 28 128 64 64 100Z" fill="url(#cubeTop)"/>
      <path d="M0 64v76l64 36v-76Z" fill="url(#cubeLeft)"/>
      <path d="M128 64v76l-64 36v-76Z" fill="url(#cubeRight)"/>
    </g>
    <g transform="translate(178 552)">
      <path d="M0 64 64 28 128 64 64 100Z" fill="url(#cubeTop)"/>
      <path d="M0 64v76l64 36v-76Z" fill="url(#cubeLeft)"/>
      <path d="M128 64v76l-64 36v-76Z" fill="url(#cubeRight)"/>
    </g>
    <g transform="translate(294 634)">
      <path d="M0 64 64 28 128 64 64 100Z" fill="url(#cubeTop)"/>
      <path d="M0 64v76l64 36v-76Z" fill="url(#cubeLeft)"/>
      <path d="M128 64v76l-64 36v-76Z" fill="url(#cubeRight)"/>
    </g>
  </g>
  <g fill="#f3c623" opacity="0.5">
    <rect x="108" y="298" width="10" height="10"/>
    <rect x="470" y="264" width="9" height="9"/>
    <rect x="514" y="428" width="10" height="10"/>
    <rect x="86" y="748" width="12" height="12"/>
    <rect x="508" y="714" width="10" height="10"/>
  </g>
</svg>
