<svg xmlns="http://www.w3.org/2000/svg" viewBox="0 0 600 848" role="img" aria-label="Gotham inspired AI transformation artwork">
  <defs>
    <linearGradient id="transSky" x1="0" y1="0" x2="0" y2="1">
      <stop offset="0" stop-color="#111318"/>
      <stop offset="0.52" stop-color="#1a1d24"/>
      <stop offset="1" stop-color="#070707"/>
    </linearGradient>
    <linearGradient id="beam" x1="0" y1="0" x2="1" y2="0">
      <stop offset="0" stop-color="#7a5a00"/>
      <stop offset="0.5" stop-color="#f3c623"/>
      <stop offset="1" stop-color="#ffe9a3"/>
    </linearGradient>
    <radialGradient id="sun" cx="0.84" cy="0.22" r="0.18">
      <stop offset="0" stop-color="#ffe9a3"/>
      <stop offset="1" stop-color="#f3c623" stop-opacity="0"/>
    </radialGradient>
  </defs>
  <rect width="600" height="848" fill="url(#transSky)"/>
  <circle cx="506" cy="180" r="84" fill="url(#sun)"/>
  <g fill="#0a0d11">
    <path d="M0 848V554c88-30 168-34 242-12 76 22 138 22 206 0 50-16 102-44 152-54v360Z"/>
    <path d="M0 708c82-24 170-20 246 8 68 24 128 24 194 8 64-16 106-38 160-40v164H0Z" opacity="0.92"/>
  </g>
  <g opacity="0.16" fill="#f3c623">
    <ellipse cx="94" cy="610" rx="84" ry="32"/>
    <ellipse cx="472" cy="650" rx="64" ry="22"/>
  </g>
  <path d="M-24 744C84 608 144 564 216 544c70-20 132-2 194-34 56-30 112-96 232-104v42c-104 8-144 64-198 92-64 34-124 18-194 40-74 24-136 80-236 204Z" fill="url(#beam)"/>
  <path d="M-12 770C92 642 150 602 218 584c66-18 128 0 192-28 60-26 118-88 232-96" fill="none" stroke="#9edfff" stroke-width="10" opacity="0.95"/>
  <path d="M0 784C102 660 158 626 224 610c64-16 126 4 190-20 60-24 118-84 224-92" fill="none" stroke="#f3c623" stroke-width="5" opacity="0.72"/>
  <g fill="#11151d">
    <rect x="34" y="452" width="40" height="120"/>
    <rect x="88" y="424" width="26" height="148"/>
    <rect x="128" y="454" width="44" height="118"/>
    <rect x="410" y="388" width="54" height="184"/>
    <rect x="478" y="346" width="68" height="226"/>
  </g>
  <g fill="#f3c623" opacity="0.7">
    <rect x="423" y="410" width="10" height="18"/>
    <rect x="438" y="410" width="10" height="18"/>
    <rect x="494" y="374" width="12" height="20"/>
    <rect x="512" y="374" width="12" height="20"/>
  </g>
</svg>
