<svg xmlns="http://www.w3.org/2000/svg" viewBox="0 0 600 848" role="img" aria-label="Gotham inspired responsible AI governance artwork">
  <defs>
    <linearGradient id="govBg" x1="0" y1="0" x2="1" y2="1">
      <stop offset="0" stop-color="#060606"/>
      <stop offset="1" stop-color="#171b23"/>
    </linearGradient>
    <linearGradient id="govLine" x1="0" y1="0" x2="1" y2="0">
      <stop offset="0" stop-color="#7a5a00"/>
      <stop offset="0.5" stop-color="#f3c623"/>
      <stop offset="1" stop-color="#ffe9a3"/>
    </linearGradient>
  </defs>
  <rect width="600" height="848" fill="url(#govBg)"/>
  <g opacity="0.14" fill="#f3c623">
    <circle cx="130" cy="636" r="110"/>
    <circle cx="428" cy="684" r="148"/>
  </g>
  <g fill="none" stroke="url(#govLine)" stroke-width="3.2">
    <path d="M-10 594C74 560 134 538 210 540c82 2 140 22 220 12 70-8 122-24 180-18"/>
    <path d="M-10 614C74 580 134 558 210 560c82 2 140 22 220 12 70-8 122-24 180-18"/>
    <path d="M-10 634C74 600 134 578 210 580c82 2 140 22 220 12 70-8 122-24 180-18"/>
    <path d="M-10 654C74 620 134 598 210 600c82 2 140 22 220 12 70-8 122-24 180-18"/>
    <path d="M-10 674C74 640 134 618 210 620c82 2 140 22 220 12 70-8 122-24 180-18"/>
    <path d="M-10 694C74 660 134 638 210 640c82 2 140 22 220 12 70-8 122-24 180-18"/>
  </g>
  <g fill="none" stroke="#f3c623" stroke-width="5" opacity="0.88">
    <path d="M248 248c0-64 52-116 116-116s116 52 116 116v72c0 72-58 130-130 130S220 392 220 320v-72c0-64 52-116 116-116"/>
    <path d="M336 172v150"/>
    <path d="M280 246h112"/>
  </g>
  <path d="M336 492 234 446v104c0 88 52 148 102 190 50-42 102-102 102-190V446Z" fill="#0b0d12" stroke="#f3c623" stroke-width="6"/>
  <path d="M336 514 276 486v52c0 56 26 96 60 128 34-32 60-72 60-128v-52Z" fill="#f3c623" opacity="0.9"/>
</svg>
