<svg xmlns="http://www.w3.org/2000/svg" viewBox="0 0 600 848" role="img" aria-label="Gotham inspired applied AI products artwork">
  <defs>
    <linearGradient id="prodBg" x1="0" y1="0" x2="1" y2="1">
      <stop offset="0" stop-color="#060606"/>
      <stop offset="1" stop-color="#151922"/>
    </linearGradient>
    <radialGradient id="prodMoon" cx="0.5" cy="0.18" r="0.3">
      <stop offset="0" stop-color="#ffe9a3" stop-opacity="0.95"/>
      <stop offset="0.45" stop-color="#f3c623" stop-opacity="0.42"/>
      <stop offset="1" stop-color="#f3c623" stop-opacity="0"/>
    </radialGradient>
  </defs>
  <rect width="600" height="848" fill="url(#prodBg)"/>
  <circle cx="300" cy="152" r="122" fill="url(#prodMoon)"/>
  <g opacity="0.18" fill="#f3c623">
    <circle cx="144" cy="104" r="116"/>
    <circle cx="488" cy="214" r="96"/>
  </g>
  <g fill="#090a0f">
    <rect x="52" y="214" width="176" height="468" rx="10"/>
    <rect x="252" y="138" width="104" height="544" rx="10"/>
    <rect x="378" y="214" width="170" height="468" rx="10"/>
  </g>
  <g fill="#f3c623" opacity="0.82">
    <rect x="86" y="258" width="20" height="32"/>
    <rect x="122" y="258" width="20" height="32"/>
    <rect x="158" y="258" width="20" height="32"/>
    <rect x="270" y="184" width="20" height="30"/>
    <rect x="306" y="184" width="20" height="30"/>
    <rect x="412" y="258" width="20" height="32"/>
    <rect x="448" y="258" width="20" height="32"/>
    <rect x="484" y="258" width="20" height="32"/>
    <rect x="86" y="316" width="20" height="32"/>
    <rect x="158" y="316" width="20" height="32"/>
    <rect x="270" y="236" width="20" height="30"/>
    <rect x="306" y="236" width="20" height="30"/>
    <rect x="412" y="316" width="20" height="32"/>
    <rect x="484" y="316" width="20" height="32"/>
  </g>
  <g fill="none" stroke="#1f2430" stroke-width="2">
    <path d="M0 650H600"/>
    <path d="M0 690H600"/>
    <path d="M0 730H600"/>
  </g>
  <path d="M0 848V734c78-40 156-56 234-48 72 8 136 34 222 28 50-3 95-16 144-46v180Z" fill="#0a0d12"/>
</svg>
