<svg width="1600" height="1000" viewBox="0 0 1600 1000" fill="none" xmlns="http://www.w3.org/2000/svg">
  <defs>
    <linearGradient id="bg" x1="174" y1="88" x2="1448" y2="916" gradientUnits="userSpaceOnUse">
      <stop offset="0" stop-color="#1E4DFF"/>
      <stop offset="0.48" stop-color="#4678FF"/>
      <stop offset="1" stop-color="#8AB4FF"/>
    </linearGradient>
    <radialGradient id="bgGlow" cx="0" cy="0" r="1" gradientUnits="userSpaceOnUse" gradientTransform="translate(836 486) rotate(90) scale(456 520)">
      <stop offset="0.55" stop-color="#95C3FF" stop-opacity="0"/>
      <stop offset="0.82" stop-color="#9C95FF" stop-opacity="0.24"/>
      <stop offset="1" stop-color="#BCD8FF" stop-opacity="0"/>
    </radialGradient>
    <radialGradient id="sphereFill" cx="0" cy="0" r="1" gradientUnits="userSpaceOnUse" gradientTransform="translate(810 512) rotate(90) scale(320)">
      <stop offset="0" stop-color="#DCE8FF"/>
      <stop offset="0.26" stop-color="#B7D0FF"/>
      <stop offset="0.58" stop-color="#5C93FF"/>
      <stop offset="0.84" stop-color="#2146CC"/>
      <stop offset="1" stop-color="#11208E"/>
    </radialGradient>
    <radialGradient id="highlight" cx="0" cy="0" r="1" gradientUnits="userSpaceOnUse" gradientTransform="translate(694 358) rotate(48) scale(250 184)">
      <stop stop-color="#F8FBFF" stop-opacity="0.88"/>
      <stop offset="1" stop-color="#F8FBFF" stop-opacity="0"/>
    </radialGradient>
    <linearGradient id="tileBlue" x1="0" y1="0" x2="18" y2="18" gradientUnits="userSpaceOnUse">
      <stop stop-color="#F0F6FF"/>
      <stop offset="0.45" stop-color="#7AB4FF"/>
      <stop offset="1" stop-color="#476DFF"/>
    </linearGradient>
    <linearGradient id="tileViolet" x1="0" y1="0" x2="18" y2="18" gradientUnits="userSpaceOnUse">
      <stop stop-color="#FFDFFF"/>
      <stop offset="0.55" stop-color="#AABEFF"/>
      <stop offset="1" stop-color="#5D5AFF"/>
    </linearGradient>
    <pattern id="gridMain" width="22" height="22" patternUnits="userSpaceOnUse">
      <rect x="2.5" y="2.5" width="16" height="16" rx="2.6" fill="url(#tileBlue)"/>
      <rect x="2.5" y="2.5" width="16" height="16" rx="2.6" stroke="#E5F0FF" stroke-opacity="0.38"/>
    </pattern>
    <pattern id="gridSecondary" width="24" height="24" patternUnits="userSpaceOnUse">
      <rect x="4" y="4" width="14" height="14" rx="2.2" fill="url(#tileViolet)" fill-opacity="0.74"/>
      <rect x="4" y="4" width="14" height="14" rx="2.2" stroke="#E8DCFF" stroke-opacity="0.24"/>
    </pattern>
    <clipPath id="sphereClip">
      <circle cx="810" cy="508" r="286"/>
    </clipPath>
    <filter id="softGlow" x="-20%" y="-20%" width="140%" height="140%">
      <feGaussianBlur stdDeviation="14"/>
    </filter>
  </defs>

  <rect width="1600" height="1000" fill="url(#bg)"/>
  <rect width="1600" height="1000" fill="url(#bgGlow)"/>

  <circle cx="810" cy="508" r="332" fill="#B59CFF" fill-opacity="0.18" filter="url(#softGlow)"/>
  <circle cx="810" cy="508" r="286" fill="url(#sphereFill)"/>

  <g clip-path="url(#sphereClip)">
    <rect x="486" y="192" width="650" height="650" fill="url(#gridMain)" opacity="0.96"/>
    <rect x="510" y="208" width="608" height="608" fill="url(#gridSecondary)" opacity="0.36"/>
    <ellipse cx="776" cy="516" rx="268" ry="286" fill="url(#highlight)"/>
    <ellipse cx="922" cy="410" rx="142" ry="182" fill="#1C2BA8" fill-opacity="0.62"/>
    <ellipse cx="968" cy="612" rx="208" ry="148" fill="#2340B4" fill-opacity="0.28"/>
    <ellipse cx="660" cy="632" rx="148" ry="130" fill="#8FD6FF" fill-opacity="0.18"/>
    <path d="M1000 248C944 258 900 302 884 348C864 408 886 450 946 468C1004 486 1034 516 1038 566C1040 598 1028 632 1004 666L1150 666L1150 248H1000Z" fill="#102089" fill-opacity="0.56"/>
    <path d="M522 646C602 626 648 642 724 698C782 740 858 772 944 782L944 838L522 838V646Z" fill="#2E5FCC" fill-opacity="0.22"/>
  </g>

  <circle cx="810" cy="508" r="286" stroke="#C8D2FF" stroke-opacity="0.2"/>
  <circle cx="810" cy="508" r="278" stroke="#D9E5FF" stroke-opacity="0.14"/>

  <g opacity="0.98">
    <rect x="404" y="246" width="18" height="18" rx="2.5" fill="url(#tileBlue)"/>
    <rect x="442" y="222" width="14" height="14" rx="2.4" fill="url(#tileBlue)"/>
    <rect x="482" y="194" width="18" height="18" rx="2.5" fill="url(#tileViolet)"/>
    <rect x="520" y="172" width="13" height="13" rx="2.2" fill="url(#tileBlue)"/>
    <rect x="558" y="150" width="10" height="10" rx="2" fill="url(#tileViolet)"/>

    <rect x="1124" y="186" width="16" height="16" rx="2.5" fill="url(#tileViolet)"/>
    <rect x="1160" y="208" width="20" height="20" rx="2.5" fill="url(#tileBlue)"/>
    <rect x="1202" y="234" width="16" height="16" rx="2.5" fill="url(#tileBlue)"/>
    <rect x="1248" y="264" width="18" height="18" rx="2.5" fill="url(#tileViolet)"/>
    <rect x="1296" y="304" width="16" height="16" rx="2.5" fill="url(#tileBlue)"/>
    <rect x="1336" y="356" width="20" height="20" rx="2.5" fill="url(#tileBlue)"/>
    <rect x="1360" y="418" width="14" height="14" rx="2.3" fill="url(#tileViolet)"/>
    <rect x="1364" y="478" width="10" height="10" rx="2" fill="url(#tileBlue)"/>

    <rect x="1268" y="642" width="18" height="18" rx="2.5" fill="url(#tileBlue)"/>
    <rect x="1230" y="692" width="20" height="20" rx="2.5" fill="url(#tileViolet)"/>
    <rect x="1186" y="734" width="16" height="16" rx="2.5" fill="url(#tileBlue)"/>
    <rect x="1140" y="770" width="14" height="14" rx="2.3" fill="url(#tileBlue)"/>
    <rect x="1094" y="796" width="10" height="10" rx="2" fill="url(#tileViolet)"/>

    <rect x="366" y="694" width="16" height="16" rx="2.4" fill="url(#tileViolet)"/>
    <rect x="404" y="742" width="18" height="18" rx="2.5" fill="url(#tileBlue)"/>
    <rect x="446" y="786" width="20" height="20" rx="2.5" fill="url(#tileBlue)"/>
    <rect x="492" y="826" width="15" height="15" rx="2.4" fill="url(#tileViolet)"/>
    <rect x="532" y="854" width="10" height="10" rx="2" fill="url(#tileBlue)"/>

    <rect x="324" y="612" width="16" height="16" rx="2.4" fill="url(#tileBlue)"/>
    <rect x="294" y="562" width="18" height="18" rx="2.5" fill="url(#tileViolet)"/>
    <rect x="272" y="514" width="14" height="14" rx="2.3" fill="url(#tileBlue)"/>
    <rect x="258" y="456" width="18" height="18" rx="2.5" fill="url(#tileBlue)"/>
    <rect x="262" y="400" width="14" height="14" rx="2.3" fill="url(#tileViolet)"/>
    <rect x="286" y="348" width="18" height="18" rx="2.5" fill="url(#tileBlue)"/>
  </g>

  <g opacity="0.42">
    <rect x="164" y="160" width="8" height="8" rx="2" fill="#CFE6FF"/>
    <rect x="214" y="236" width="8" height="8" rx="2" fill="#DCD4FF"/>
    <rect x="116" y="488" width="9" height="9" rx="2" fill="#CFE6FF"/>
    <rect x="174" y="780" width="7" height="7" rx="2" fill="#DCD4FF"/>
    <rect x="1460" y="188" width="8" height="8" rx="2" fill="#DCD4FF"/>
    <rect x="1494" y="274" width="9" height="9" rx="2" fill="#CFE6FF"/>
    <rect x="1500" y="548" width="8" height="8" rx="2" fill="#CFE6FF"/>
    <rect x="1430" y="796" width="8" height="8" rx="2" fill="#DCD4FF"/>
  </g>
</svg>
