<svg width="160" height="40" viewBox="0 0 160 40" fill="none" xmlns="http://www.w3.org/2000/svg">
<g clip-path="url(#clip0_23231_96416)">
<path d="M7 0.5H153C156.59 0.5 159.5 3.41015 159.5 7V33C159.5 36.5899 156.59 39.5 153 39.5H7C3.41015 39.5 0.5 36.5899 0.5 33V7C0.5 3.41015 3.41015 0.5 7 0.5Z" fill="black" stroke="#A6A6A6"/>
<path d="M43 14.8958V9.1042H43.9102V14.1317H46.6681V14.8958H43ZM48.0087 9.99855C47.7266 9.99855 47.4808 9.78148 47.4808 9.50362C47.4808 9.22576 47.7266 9 48.0087 9C48.3 9 48.5366 9.22576 48.5366 9.50362C48.5366 9.78148 48.3 9.99855 48.0087 9.99855ZM47.6082 14.8958V10.7019H48.4274V14.8958H47.6082ZM49.3039 14.3488L49.6952 13.7757C49.9956 14.0883 50.5781 14.3748 51.1698 14.3748C51.7887 14.3748 52.1164 14.1317 52.1164 13.7757C52.1164 13.3589 51.6157 13.22 51.0514 13.0984C50.3051 12.9334 49.4313 12.7424 49.4313 11.8394C49.4313 11.1708 50.032 10.5977 51.106 10.5977C51.8615 10.5977 52.4076 10.8582 52.7808 11.1968L52.4167 11.7438C52.1619 11.4486 51.6704 11.2315 51.1151 11.2315C50.5599 11.2315 50.2141 11.4399 50.2141 11.7786C50.2141 12.1433 50.6874 12.2648 51.2335 12.3864C51.998 12.5514 52.9082 12.7511 52.9082 13.7149C52.9082 14.4356 52.2893 15 51.1333 15C50.3961 15 49.7499 14.7829 49.3039 14.3488ZM55.1136 15C54.4218 15 54.0668 14.6266 54.0668 13.9667V11.3878H53.3387V10.7019H54.0668V9.55572H54.886V10.7019H55.778V11.3878H54.886V13.7931C54.886 14.0883 55.0316 14.3054 55.3138 14.3054C55.5049 14.3054 55.6779 14.2272 55.7598 14.1404L55.9691 14.7308C55.7962 14.8871 55.5413 15 55.1136 15ZM56.3723 12.7945C56.3723 11.5789 57.2916 10.5977 58.5749 10.5977C59.8947 10.5977 60.7139 11.5789 60.7139 12.864V13.055H57.237C57.3007 13.767 57.8468 14.3575 58.7297 14.3575C59.1939 14.3575 59.7036 14.1838 60.0313 13.8625L60.4135 14.3748C59.9766 14.7829 59.3577 15 58.6478 15C57.3371 15 56.3723 14.1143 56.3723 12.7945ZM58.5749 11.2402C57.6921 11.2402 57.2734 11.9175 57.2279 12.4906H59.9129C59.8947 11.9349 59.5033 11.2402 58.5749 11.2402ZM64.6668 14.8958V12.2127C64.6668 11.5181 64.2936 11.2923 63.7293 11.2923C63.2196 11.2923 62.7554 11.5876 62.5187 11.9001V14.8958H61.6996V10.7019H62.5187V11.2923C62.81 10.9537 63.3925 10.5977 64.0752 10.5977C65.0036 10.5977 65.486 11.0666 65.486 11.9522V14.8958H64.6668ZM70.998 15C69.6327 15 68.7771 14.0101 68.7771 12.7945C68.7771 11.5876 69.6327 10.5977 70.998 10.5977C72.3723 10.5977 73.2188 11.5876 73.2188 12.7945C73.2188 14.0101 72.3723 15 70.998 15ZM70.998 14.3054C71.8808 14.3054 72.3633 13.5933 72.3633 12.7945C72.3633 12.0043 71.8808 11.2923 70.998 11.2923C70.1242 11.2923 69.6327 12.0043 69.6327 12.7945C69.6327 13.5933 70.1242 14.3054 70.998 14.3054ZM77.1808 14.8958V12.2127C77.1808 11.5181 76.8076 11.2923 76.2433 11.2923C75.7336 11.2923 75.2694 11.5876 75.0328 11.9001V14.8958H74.2136V10.7019H75.0328V11.2923C75.324 10.9537 75.9066 10.5977 76.5892 10.5977C77.5176 10.5977 78 11.0666 78 11.9522V14.8958H77.1808Z" fill="white"/>
<path d="M44.0234 31L45.0547 27.9531H49.3516L50.3828 31H52.2344L48.1641 19.7266H46.2734L42.2031 31H44.0234ZM48.9062 26.5469H45.5L47.1797 21.6016H47.2266L48.9062 26.5469ZM54.9609 31V25.9219C54.9609 24.8672 55.6719 24.0859 56.6719 24.0859C57.625 24.0859 58.2266 24.6875 58.2266 25.6328V31H59.8828V25.8672C59.8828 24.8281 60.5781 24.0859 61.5781 24.0859C62.5781 24.0859 63.1484 24.6953 63.1484 25.7578V31H64.8438V25.3516C64.8438 23.7188 63.7812 22.6406 62.1562 22.6406C60.9844 22.6406 60.0156 23.25 59.5938 24.25H59.5547C59.2266 23.2266 58.3984 22.6406 57.2578 22.6406C56.1484 22.6406 55.2891 23.25 54.9219 24.1641H54.8828V22.7812H53.2734V31H54.9609ZM68.875 31.1406C69.9531 31.1406 70.9922 30.5625 71.4688 29.6484H71.5078V31H73.125V25.3359C73.125 23.6875 71.8516 22.6328 69.8594 22.6328C67.8281 22.6328 66.5625 23.7266 66.4688 25.2109H68.0625C68.2109 24.4766 68.8203 24.0078 69.7969 24.0078C70.8281 24.0078 71.4453 24.5547 71.4453 25.4688V26.1016L69.1953 26.2344C67.2422 26.3438 66.1406 27.2266 66.1406 28.6641C66.1406 30.1406 67.2656 31.1406 68.875 31.1406ZM69.3438 29.8047C68.4375 29.8047 67.8438 29.3359 67.8438 28.6172C67.8438 27.9141 68.4141 27.4688 69.4219 27.3984L71.4453 27.2734V27.9219C71.4453 28.9922 70.5234 29.8047 69.3438 29.8047ZM80.9531 31V29.6562H76.6328V29.625L80.9062 23.9375V22.7812H74.6172V24.125H78.9688V24.1562L74.5859 29.9141V31H80.9531ZM85.9922 31.1562C88.3438 31.1562 89.8906 29.5391 89.8906 26.8906C89.8906 24.25 88.3359 22.6328 85.9922 22.6328C83.6484 22.6328 82.0938 24.25 82.0938 26.8906C82.0938 29.5391 83.6406 31.1562 85.9922 31.1562ZM85.9922 29.7656C84.6719 29.7656 83.8125 28.7188 83.8125 26.8906C83.8125 25.0703 84.6719 24.0234 85.9922 24.0234C87.3125 24.0234 88.1719 25.0703 88.1719 26.8906C88.1719 28.7188 87.3203 29.7656 85.9922 29.7656ZM92.8828 31V26.2109C92.8828 24.9375 93.6484 24.0938 94.8359 24.0938C96.0078 24.0938 96.5859 24.7734 96.5859 26.0078V31H98.2812V25.6797C98.2812 23.7969 97.2422 22.6406 95.4297 22.6406C94.1641 22.6406 93.2891 23.2188 92.8438 24.1562H92.8047V22.7812H91.1953V31H92.8828ZM104.945 31V22.7031H105L108.406 31H109.703L113.102 22.7031H113.156V31H114.758V19.7266H112.727L109.086 28.7109H109.023L105.375 19.7266H103.352V31H104.945ZM119.477 31.1484C120.734 31.1484 121.57 30.5938 122.023 29.6094H122.062V31H123.68V22.7812H121.992V27.5703C121.992 28.8516 121.258 29.6953 120.039 29.6953C118.875 29.6953 118.281 29.0234 118.281 27.7734V22.7812H116.594V28.1016C116.594 29.9844 117.688 31.1484 119.477 31.1484ZM128.43 31.1562C130.367 31.1562 131.766 30.125 131.766 28.625C131.766 27.4375 131.125 26.7812 129.445 26.3906L128.109 26.0859C127.219 25.8828 126.844 25.5312 126.844 25.0156C126.844 24.3594 127.453 23.9141 128.367 23.9141C129.312 23.9141 129.898 24.4141 129.992 25.2109H131.578C131.523 23.6953 130.281 22.6328 128.367 22.6328C126.477 22.6328 125.195 23.6406 125.195 25.1094C125.195 26.3047 125.969 27.0547 127.531 27.4141L128.867 27.7266C129.766 27.9297 130.07 28.2422 130.07 28.7734C130.07 29.4453 129.445 29.8672 128.43 29.8672C127.398 29.8672 126.812 29.4453 126.656 28.5859H124.984C125.141 30.1484 126.375 31.1562 128.43 31.1562ZM133.969 21.4531C134.508 21.4531 134.938 21.0156 134.938 20.4844C134.938 19.9453 134.508 19.5156 133.969 19.5156C133.43 19.5156 132.992 19.9453 132.992 20.4844C132.992 21.0156 133.43 21.4531 133.969 21.4531ZM134.812 31V22.7812H133.125V31H134.812ZM140.055 31.1562C142.031 31.1562 143.43 29.9688 143.609 28.2188H141.984C141.789 29.1719 141.109 29.7422 140.07 29.7422C138.758 29.7422 137.891 28.6953 137.891 26.8906C137.891 25.125 138.75 24.0391 140.055 24.0391C141.156 24.0391 141.812 24.7344 141.984 25.6094H143.594C143.445 23.9922 142.156 22.6328 140.039 22.6328C137.703 22.6328 136.172 24.2812 136.172 26.8906C136.172 29.5469 137.703 31.1562 140.055 31.1562Z" fill="white"/>
<path fill-rule="evenodd" clip-rule="evenodd" d="M25.6161 22.3192C25.4474 22.4315 25.1948 22.5158 24.8858 22.5158C24.4084 22.5158 23.959 22.4597 23.5097 22.3192C23.3973 22.291 23.313 22.263 23.2569 22.263C23.1726 22.263 23.1445 22.3192 23.1445 22.4315V22.7124C23.1445 22.7966 23.1726 22.8528 23.2006 22.909C23.2288 22.937 23.2849 22.9933 23.3693 23.0213C23.8186 23.2178 24.3241 23.3022 24.8858 23.3022C25.4756 23.3022 25.9249 23.1617 26.2901 22.8809C26.6551 22.6001 26.8237 22.2349 26.8237 21.7576C26.8237 21.4205 26.7394 21.1677 26.5709 20.943C26.4024 20.7465 26.1215 20.5498 25.7283 20.4094L24.9419 20.1005C24.633 19.9881 24.4083 19.8758 24.3241 19.7634C24.2118 19.6512 24.1556 19.5388 24.1556 19.3422C24.1556 18.9209 24.4645 18.6962 25.1105 18.6962C25.4756 18.6962 25.8406 18.7524 26.1777 18.8648C26.2901 18.8928 26.3743 18.9209 26.4023 18.9209C26.4866 18.9209 26.5427 18.8648 26.5427 18.7524V18.4716C26.5427 18.3873 26.5147 18.3312 26.4866 18.2749C26.4586 18.2188 26.4023 18.1908 26.3181 18.1626C25.8969 18.0223 25.4756 17.938 25.0543 17.938C24.5206 17.938 24.0713 18.0784 23.7343 18.3312C23.3973 18.5838 23.2287 18.949 23.2287 19.3702C23.2287 20.0162 23.5938 20.4937 24.3241 20.7745L25.1666 21.0834C25.4474 21.1958 25.6159 21.2801 25.7283 21.3924C25.8406 21.5047 25.8687 21.617 25.8687 21.7856C25.8687 22.0102 25.7845 22.2069 25.6161 22.3192Z" fill="white"/>
<path fill-rule="evenodd" clip-rule="evenodd" d="M28.6226 16.1685C28.5103 16.0562 28.3418 16 28.1453 16C27.9486 16 27.8082 16.0562 27.6958 16.1685C27.5835 16.281 27.5273 16.4212 27.5273 16.5899C27.5273 16.7583 27.5835 16.9268 27.6958 17.0111C27.8082 17.1235 27.9486 17.1796 28.1453 17.1796C28.3418 17.1796 28.4822 17.1235 28.5946 17.0111C28.7069 16.8988 28.763 16.7583 28.763 16.5899C28.763 16.4212 28.735 16.2528 28.6226 16.1685Z" fill="white"/>
<path fill-rule="evenodd" clip-rule="evenodd" d="M28.4524 18.0781H27.8625C27.7223 18.0781 27.666 18.1342 27.666 18.2747V22.9367C27.666 23.0772 27.7223 23.1334 27.8625 23.1334H28.4524C28.5928 23.1334 28.6489 23.0772 28.6489 22.9367V18.2747C28.6489 18.1623 28.5928 18.0781 28.4524 18.0781Z" fill="white"/>
<path fill-rule="evenodd" clip-rule="evenodd" d="M31.0938 19.2015C31.3465 18.9207 31.7396 18.7803 32.3014 18.7803C32.5822 18.7803 32.8631 18.8083 33.1158 18.8926C33.2001 18.9207 33.2282 18.9207 33.2843 18.9207C33.3686 18.9207 33.4247 18.8646 33.4247 18.7242V18.4433C33.4247 18.359 33.3967 18.2747 33.3686 18.2467C33.3404 18.2186 33.2843 18.1623 33.2282 18.1343C32.8631 18.0501 32.4979 17.9658 32.161 17.9658C31.3746 17.9658 30.7847 18.1905 30.3354 18.6679C29.9142 19.1173 29.6895 19.7914 29.6895 20.6339C29.6895 21.4764 29.8861 22.1223 30.3074 22.5718C30.7286 23.0211 31.3183 23.2457 32.1047 23.2457C32.526 23.2457 32.9193 23.1896 33.2282 23.0492C33.3125 23.0211 33.3686 22.993 33.3967 22.9368C33.4247 22.9087 33.4247 22.8244 33.4247 22.7403V22.4594C33.4247 22.3189 33.3686 22.2628 33.2843 22.2628C33.2563 22.2628 33.2001 22.2628 33.1439 22.2908C32.835 22.3751 32.5261 22.4312 32.2451 22.4312C31.7117 22.4312 31.3185 22.2908 31.0657 22.01C30.8129 21.7292 30.7006 21.2798 30.7006 20.69V20.5496C30.7286 19.9318 30.841 19.4823 31.0938 19.2015Z" fill="white"/>
<path fill-rule="evenodd" clip-rule="evenodd" d="M15.8708 23.1337H16.4607C16.6011 23.1337 16.6572 23.0774 16.6572 22.937V19.4265C16.6572 18.949 16.5448 18.5838 16.2922 18.3312C16.0394 18.0784 15.7023 17.938 15.2248 17.938C14.579 17.938 13.905 18.1626 13.259 18.6401C13.0343 18.1626 12.613 17.938 11.9951 17.938C11.3773 17.938 10.7594 18.1626 10.1415 18.5838L10.0854 18.2749C10.0854 18.1908 10.0573 18.1626 10.0011 18.1345C9.97304 18.1065 9.91693 18.1065 9.86068 18.1065H9.41137C9.27095 18.1065 9.21484 18.1626 9.21484 18.3031V22.9652C9.21484 23.1056 9.27095 23.1617 9.41137 23.1617H10.0011C10.1415 23.1617 10.1978 23.1056 10.1978 22.9652V19.1737C10.6751 18.8928 11.1526 18.7244 11.6582 18.7244C11.939 18.7244 12.1357 18.8085 12.2479 18.9772C12.3603 19.1456 12.4446 19.3702 12.4446 19.7073V22.937C12.4446 23.0774 12.5007 23.1337 12.6411 23.1337H13.231C13.3714 23.1337 13.4275 23.0774 13.4275 22.937V19.3141C13.4275 19.258 13.4275 19.2017 13.4275 19.1737C13.933 18.8648 14.4104 18.7244 14.8879 18.7244C15.1687 18.7244 15.3654 18.8085 15.4778 18.9772C15.5901 19.1456 15.6743 19.3703 15.6743 19.7073V22.937C15.6743 23.0774 15.7304 23.1337 15.8708 23.1337Z" fill="white"/>
<path fill-rule="evenodd" clip-rule="evenodd" d="M21.2077 18.2747V22.0099C20.7303 22.319 20.2528 22.4874 19.7755 22.4874C19.4665 22.4874 19.2419 22.4031 19.1015 22.2347C18.961 22.0662 18.9048 21.8134 18.9048 21.4483V18.2747C18.9048 18.1342 18.8487 18.0781 18.7083 18.0781H18.1184C17.978 18.0781 17.9219 18.1342 17.9219 18.2747V21.7573C17.9219 22.2347 18.0342 22.6278 18.2869 22.8806C18.5398 23.1334 18.9048 23.2738 19.3823 23.2738C20.0283 23.2738 20.6742 23.0491 21.292 22.5998L21.3483 22.9367C21.3483 23.021 21.3763 23.0491 21.4324 23.0772C21.4606 23.1053 21.5167 23.1053 21.6009 23.1053H22.0223C22.1627 23.1053 22.2188 23.0491 22.2188 22.9087V18.2747C22.2188 18.1342 22.1627 18.0781 22.0223 18.0781H21.4324C21.264 18.0781 21.2077 18.1623 21.2077 18.2747Z" fill="white"/>
<path fill-rule="evenodd" clip-rule="evenodd" d="M32.3573 29.509C33.8177 28.2731 34.2109 25.7174 33.902 25.3242C33.7616 25.1558 33.0875 24.9873 32.2449 24.9873C31.3463 24.9873 30.2791 25.1838 29.4646 25.7455C29.2118 25.9141 29.268 26.1387 29.5207 26.1106C30.3914 25.9983 32.3573 25.7737 32.7224 26.223C33.0593 26.6723 32.3292 28.5261 31.9923 29.3405C31.908 29.5931 32.1045 29.6774 32.3573 29.509Z" fill="white"/>
<path fill-rule="evenodd" clip-rule="evenodd" d="M31.1774 26.8687C28.1161 28.1606 24.774 28.8064 21.741 28.8064C17.2474 28.8064 12.8942 27.5707 9.3836 25.5206C9.32735 25.4925 9.27124 25.4644 9.21513 25.4644C9.01846 25.4644 8.9061 25.6891 9.10277 25.8856C12.3605 28.8346 16.6857 30.6039 21.46 30.6039C24.8864 30.6039 28.8464 29.5367 31.5705 27.5146C32.048 27.1775 31.6549 26.672 31.1774 26.8687Z" fill="white"/>
<path fill-rule="evenodd" clip-rule="evenodd" d="M23.1262 11.8428V11.2881C23.1267 11.2036 23.1902 11.1475 23.2668 11.1477L25.7531 11.1475C25.8326 11.1475 25.8964 11.2052 25.8964 11.2874V11.7632C25.8957 11.843 25.8284 11.947 25.7093 12.1123L24.4214 13.9511C24.8993 13.9399 25.4051 14.0117 25.8395 14.2558C25.9374 14.3108 25.9637 14.3922 25.9714 14.4722V15.0642C25.9714 15.1456 25.882 15.2401 25.7882 15.1909C25.0231 14.79 24.0076 14.7463 23.1613 15.1958C23.0748 15.2419 22.9844 15.1488 22.9844 15.0672V14.5046C22.9844 14.4144 22.9861 14.2606 23.077 14.1233L24.569 11.9827L23.2699 11.9825C23.1904 11.9825 23.1267 11.926 23.1262 11.8428Z" fill="white"/>
<path fill-rule="evenodd" clip-rule="evenodd" d="M14.0558 15.3077H13.2994C13.2274 15.3031 13.1699 15.249 13.1641 15.1799L13.1647 11.2978C13.1647 11.2201 13.2299 11.1581 13.3107 11.1581L14.0151 11.1579C14.0887 11.1617 14.1479 11.2174 14.1525 11.2884V11.7951H14.1667C14.3503 11.305 14.6963 11.0762 15.1621 11.0762C15.6352 11.0762 15.9318 11.305 16.1436 11.7951C16.3272 11.305 16.7438 11.0762 17.1886 11.0762C17.5064 11.0762 17.8523 11.2069 18.0641 11.501C18.3041 11.8279 18.2549 12.3016 18.2549 12.7182L18.2541 15.1681C18.2541 15.2455 18.1889 15.3077 18.1082 15.3077H17.3528C17.2768 15.3029 17.2171 15.2429 17.2171 15.1684L17.2169 13.1102C17.2169 12.9471 17.231 12.5385 17.1956 12.3834C17.1392 12.1218 16.9697 12.0482 16.7509 12.0482C16.5673 12.0482 16.3766 12.1708 16.2988 12.3668C16.2213 12.563 16.2283 12.8896 16.2283 13.1102V15.1681C16.2283 15.2455 16.1631 15.3077 16.0825 15.3077H15.327C15.251 15.3029 15.1912 15.2429 15.1912 15.1684L15.1904 13.1102C15.1904 12.6773 15.261 12.0403 14.7245 12.0403C14.1807 12.0403 14.202 12.661 14.202 13.1102L14.2017 15.1681C14.2017 15.2455 14.1364 15.3077 14.0558 15.3077Z" fill="white"/>
<path fill-rule="evenodd" clip-rule="evenodd" d="M28.0425 11.8687C27.4848 11.8687 27.4495 12.6282 27.4495 13.1021C27.4495 13.5759 27.4425 14.5888 28.0356 14.5888C28.6218 14.5888 28.6499 13.7719 28.6499 13.2738C28.6499 12.9471 28.6358 12.5549 28.5368 12.2445C28.4521 11.9747 28.2825 11.8687 28.0425 11.8687ZM28.0356 11.0762C29.1583 11.0762 29.7654 12.0403 29.7654 13.2656C29.7654 14.4499 29.0948 15.3896 28.0356 15.3896C26.9341 15.3896 26.334 14.4254 26.334 13.2247C26.334 12.0156 26.9411 11.0762 28.0356 11.0762Z" fill="white"/>
<path fill-rule="evenodd" clip-rule="evenodd" d="M31.2227 15.3077H30.469C30.3933 15.3029 30.3333 15.2429 30.3333 15.1684L30.332 11.2848C30.3384 11.2138 30.4012 11.1581 30.4774 11.1581L31.1789 11.1579C31.245 11.1614 31.2995 11.2064 31.3134 11.2666V11.8604H31.3276C31.5396 11.3293 31.8358 11.0762 32.3584 11.0762C32.6972 11.0762 33.0292 11.1987 33.241 11.5337C33.4386 11.8441 33.4386 12.3668 33.4386 12.7427V15.1856C33.4303 15.2543 33.3684 15.3077 33.2937 15.3077H32.5355C32.4654 15.3033 32.409 15.2518 32.4009 15.1856V13.0778C32.4009 12.6529 32.4503 12.032 31.9278 12.032C31.7442 12.032 31.5747 12.1546 31.49 12.3424C31.3841 12.5794 31.3699 12.8161 31.3699 13.0778V15.1681C31.3686 15.2455 31.3033 15.3077 31.2227 15.3077Z" fill="white"/>
<mask id="mask0_23231_96416" style="mask-type:luminance" maskUnits="userSpaceOnUse" x="9" y="11" width="14" height="5">
<path d="M9.00391 11.0386H22.5306V15.3613H9.00391V11.0386Z" fill="white"/>
</mask>
<g mask="url(#mask0_23231_96416)">
<path fill-rule="evenodd" clip-rule="evenodd" d="M21.9054 15.2979C21.8554 15.3429 21.7832 15.3458 21.7268 15.3155C21.4756 15.1068 21.4306 15.0103 21.2932 14.8115C20.878 15.2344 20.584 15.3613 20.0462 15.3613C19.4094 15.3613 18.9141 14.9683 18.9141 14.1824C18.9141 13.5684 19.2467 13.1509 19.7207 12.9462C20.131 12.7661 20.7042 12.7333 21.143 12.684V12.5859C21.143 12.4057 21.1571 12.1931 21.051 12.0374C20.9589 11.8981 20.7821 11.8409 20.6264 11.8409C20.3379 11.8409 20.0815 11.9887 20.0184 12.295C20.0053 12.3632 19.9556 12.4307 19.8871 12.4342L19.1539 12.3548C19.092 12.3407 19.0233 12.2911 19.041 12.1966C19.2097 11.3072 20.0128 11.0386 20.7325 11.0386C21.1006 11.0386 21.5816 11.1367 21.8717 11.4152C22.2397 11.759 22.2042 12.2176 22.2042 12.7171V13.8952C22.2042 14.2499 22.3515 14.4053 22.4898 14.5962C22.5382 14.6652 22.5489 14.7469 22.4872 14.7973C22.3328 14.9268 22.0583 15.1652 21.9073 15.2997L21.9054 15.2979ZM21.143 13.4537C21.143 13.7486 21.15 13.994 21.0014 14.2562C20.8812 14.4689 20.69 14.6 20.4778 14.6C20.1878 14.6 20.0179 14.3788 20.0179 14.0513C20.0179 13.4071 20.5958 13.2901 21.143 13.2901V13.4537Z" fill="white"/>
</g>
<mask id="mask1_23231_96416" style="mask-type:luminance" maskUnits="userSpaceOnUse" x="9" y="11" width="14" height="5">
<path d="M9.00391 11.0386H22.5306V15.3613H9.00391V11.0386Z" fill="white"/>
</mask>
<g mask="url(#mask1_23231_96416)">
<path fill-rule="evenodd" clip-rule="evenodd" d="M11.9914 15.2979C11.9415 15.3429 11.8691 15.3458 11.8127 15.3155C11.5614 15.1068 11.5163 15.0103 11.3792 14.8115C10.9638 15.2344 10.6698 15.3613 10.1321 15.3613C9.49527 15.3613 9 14.9683 9 14.1824C9 13.5684 9.33247 13.1509 9.80659 12.9462C10.2169 12.7661 10.7902 12.7333 11.2287 12.684V12.5859C11.2287 12.4057 11.243 12.1931 11.1369 12.0374C11.0448 11.8981 10.8679 11.8409 10.7123 11.8409C10.4238 11.8409 10.1672 11.9887 10.1044 12.295C10.0913 12.3632 10.0415 12.4307 9.97298 12.4342L9.23989 12.3548C9.17791 12.3407 9.10907 12.2911 9.12693 12.1966C9.29537 11.3072 10.0985 11.0386 10.8184 11.0386C11.1864 11.0386 11.6675 11.1367 11.9576 11.4152C12.3255 11.759 12.2903 12.2176 12.2903 12.7171V13.8952C12.2903 14.2499 12.4374 14.4053 12.5756 14.5962C12.6238 14.6652 12.6349 14.7469 12.5733 14.7973C12.4187 14.9268 12.1441 15.1652 11.9931 15.2997L11.9914 15.2979ZM11.2287 13.4537C11.2287 13.7486 11.2358 13.994 11.0873 14.2562C10.9671 14.4689 10.776 14.6 10.5636 14.6C10.2737 14.6 10.1037 14.3788 10.1037 14.0513C10.1037 13.4071 10.6817 13.2901 11.2287 13.2901V13.4537Z" fill="white"/>
</g>
</g>
<defs>
<clipPath id="clip0_23231_96416">
<rect width="160" height="40" fill="white"/>
</clipPath>
</defs>
</svg>
