<svg width="160" height="40" viewBox="0 0 160 40" fill="none" xmlns="http://www.w3.org/2000/svg">
<g clip-path="url(#clip0_23231_96448)">
<path d="M7 0.5H153C156.59 0.5 159.5 3.41015 159.5 7V33C159.5 36.5899 156.59 39.5 153 39.5H7C3.41015 39.5 0.5 36.5899 0.5 33V7C0.5 3.41015 3.41015 0.5 7 0.5Z" fill="black" stroke="#A6A6A6"/>
<path fill-rule="evenodd" clip-rule="evenodd" d="M33.2128 28.3733C32.9776 28.9707 32.4349 29.8119 31.6653 30.4044C31.221 30.7466 30.6905 31.0737 29.9619 31.2896C29.1851 31.5197 28.2284 31.5975 27.0376 31.5975H16.1498C14.9592 31.5975 14.0024 31.5197 13.2256 31.2896C12.497 31.0737 11.9666 30.7466 11.5222 30.4044C10.7526 29.8118 10.2098 28.9707 9.97465 28.3733C9.5009 27.1697 9.49609 25.804 9.49609 24.9439V14.056C9.49609 13.1959 9.5009 11.8302 9.97465 10.6266C10.2098 10.0292 10.7525 9.18802 11.5222 8.59552C11.9665 8.25331 12.497 7.92619 13.2256 7.71032C14.0023 7.48013 14.9591 7.40234 16.1498 7.40234H27.0377C28.2284 7.40234 29.1851 7.48013 29.962 7.71032C30.6906 7.92619 31.221 8.2534 31.6654 8.59552C32.4349 9.18811 32.9777 10.0292 33.2129 10.6266C33.6867 11.8302 33.6915 13.1959 33.6915 14.056V24.9439C33.6915 25.8039 33.6866 27.1696 33.2128 28.3733Z" fill="url(#paint0_linear_23231_96448)"/>
<path d="M23.3479 21.3093C22.9848 20.9263 22.3471 20.6807 21.5943 20.6807C20.8414 20.6807 20.2037 20.9263 19.8407 21.3093C19.6512 21.5092 19.5511 21.7142 19.5195 22.0061C19.4584 22.5714 19.4927 23.0581 19.5589 23.8363C19.622 24.5778 19.7418 25.5667 19.8982 26.5738C20.0094 27.2905 20.0998 27.6773 20.1821 27.9543C20.3156 28.4033 20.8143 28.7959 21.5943 28.7959C22.3742 28.7959 22.873 28.4032 23.0064 27.9543C23.0887 27.6773 23.1791 27.2905 23.2904 26.5738C23.4467 25.5667 23.5665 24.5778 23.6296 23.8363C23.6959 23.058 23.7302 22.5713 23.669 22.0061C23.6375 21.7142 23.5373 21.5092 23.3479 21.3093ZM19.6161 17.8985C19.6161 18.992 20.5026 19.8786 21.5962 19.8786C22.6898 19.8786 23.5763 18.992 23.5763 17.8985C23.5763 16.8048 22.6898 15.9183 21.5962 15.9183C20.5026 15.9183 19.6161 16.8048 19.6161 17.8985ZM21.5716 10.084C16.9406 10.0972 13.1459 13.8542 13.0886 18.485C13.042 22.2363 15.4366 25.4451 18.7804 26.6213C18.8615 26.6498 18.9439 26.5824 18.9312 26.4973C18.8873 26.2061 18.846 25.9134 18.808 25.6256C18.7945 25.5239 18.7297 25.4362 18.6358 25.3951C15.9929 24.2405 14.1474 21.5899 14.177 18.5196C14.2159 14.4904 17.5061 11.2056 21.5353 11.173C25.6544 11.1397 29.0161 14.4809 29.0161 18.5924C29.0161 21.6319 27.1787 24.25 24.5563 25.3954C24.4624 25.4365 24.398 25.5244 24.3846 25.6261C24.3466 25.9138 24.3053 26.2064 24.2615 26.4973C24.2487 26.5824 24.3311 26.6498 24.4122 26.6214C27.724 25.4565 30.1047 22.2975 30.1047 18.5925C30.1045 13.8926 26.2744 10.0706 21.5716 10.084ZM21.4179 13.9874C24.0432 13.8858 26.2113 15.9919 26.2113 18.595C26.2113 19.9189 25.6504 21.1141 24.7539 21.9558C24.6779 22.0271 24.637 22.1285 24.6429 22.2326C24.6608 22.5492 24.6542 22.8569 24.6332 23.2044C24.6275 23.297 24.7313 23.3562 24.808 23.304C26.3112 22.2767 27.3 20.5492 27.3 18.595C27.3 15.3773 24.6198 12.7738 21.3747 12.8995C18.3589 13.0165 15.9394 15.5029 15.9008 18.5208C15.8754 20.5056 16.8702 22.264 18.3928 23.3042C18.4692 23.3564 18.5728 23.2971 18.5671 23.2046C18.546 22.8569 18.5395 22.5492 18.5573 22.2326C18.5632 22.1286 18.5224 22.0272 18.4465 21.956C17.5221 21.0881 16.9544 19.8443 16.9906 18.4713C17.0542 16.0549 19.0024 14.081 21.4179 13.9874Z" fill="white"/>
<path d="M43 14.8958V9.1042H43.9102V14.1317H46.6681V14.8958H43ZM48.0087 9.99855C47.7266 9.99855 47.4808 9.78148 47.4808 9.50362C47.4808 9.22576 47.7266 9 48.0087 9C48.3 9 48.5366 9.22576 48.5366 9.50362C48.5366 9.78148 48.3 9.99855 48.0087 9.99855ZM47.6082 14.8958V10.7019H48.4274V14.8958H47.6082ZM49.3039 14.3488L49.6952 13.7757C49.9956 14.0883 50.5781 14.3748 51.1698 14.3748C51.7887 14.3748 52.1164 14.1317 52.1164 13.7757C52.1164 13.3589 51.6157 13.22 51.0514 13.0984C50.3051 12.9334 49.4313 12.7424 49.4313 11.8394C49.4313 11.1708 50.032 10.5977 51.106 10.5977C51.8615 10.5977 52.4076 10.8582 52.7808 11.1968L52.4167 11.7438C52.1619 11.4486 51.6704 11.2315 51.1151 11.2315C50.5599 11.2315 50.2141 11.4399 50.2141 11.7786C50.2141 12.1433 50.6874 12.2648 51.2335 12.3864C51.998 12.5514 52.9082 12.7511 52.9082 13.7149C52.9082 14.4356 52.2893 15 51.1333 15C50.3961 15 49.7499 14.7829 49.3039 14.3488ZM55.1136 15C54.4218 15 54.0668 14.6266 54.0668 13.9667V11.3878H53.3387V10.7019H54.0668V9.55572H54.886V10.7019H55.778V11.3878H54.886V13.7931C54.886 14.0883 55.0316 14.3054 55.3138 14.3054C55.5049 14.3054 55.6779 14.2272 55.7598 14.1404L55.9691 14.7308C55.7962 14.8871 55.5413 15 55.1136 15ZM56.3723 12.7945C56.3723 11.5789 57.2916 10.5977 58.5749 10.5977C59.8947 10.5977 60.7139 11.5789 60.7139 12.864V13.055H57.237C57.3007 13.767 57.8468 14.3575 58.7297 14.3575C59.1939 14.3575 59.7036 14.1838 60.0313 13.8625L60.4135 14.3748C59.9766 14.7829 59.3577 15 58.6478 15C57.3371 15 56.3723 14.1143 56.3723 12.7945ZM58.5749 11.2402C57.6921 11.2402 57.2734 11.9175 57.2279 12.4906H59.9129C59.8947 11.9349 59.5033 11.2402 58.5749 11.2402ZM64.6668 14.8958V12.2127C64.6668 11.5181 64.2936 11.2923 63.7293 11.2923C63.2196 11.2923 62.7554 11.5876 62.5187 11.9001V14.8958H61.6996V10.7019H62.5187V11.2923C62.81 10.9537 63.3925 10.5977 64.0752 10.5977C65.0036 10.5977 65.486 11.0666 65.486 11.9522V14.8958H64.6668ZM70.998 15C69.6327 15 68.7771 14.0101 68.7771 12.7945C68.7771 11.5876 69.6327 10.5977 70.998 10.5977C72.3723 10.5977 73.2188 11.5876 73.2188 12.7945C73.2188 14.0101 72.3723 15 70.998 15ZM70.998 14.3054C71.8808 14.3054 72.3633 13.5933 72.3633 12.7945C72.3633 12.0043 71.8808 11.2923 70.998 11.2923C70.1242 11.2923 69.6327 12.0043 69.6327 12.7945C69.6327 13.5933 70.1242 14.3054 70.998 14.3054ZM77.1808 14.8958V12.2127C77.1808 11.5181 76.8076 11.2923 76.2433 11.2923C75.7336 11.2923 75.2694 11.5876 75.0328 11.9001V14.8958H74.2136V10.7019H75.0328V11.2923C75.324 10.9537 75.9066 10.5977 76.5892 10.5977C77.5176 10.5977 78 11.0666 78 11.9522V14.8958H77.1808Z" fill="white"/>
<path d="M45.0234 31L46.0547 27.9531H50.3516L51.3828 31H53.2344L49.1641 19.7266H47.2734L43.2031 31H45.0234ZM49.9062 26.5469H46.5L48.1797 21.6016H48.2266L49.9062 26.5469ZM55.9609 33.7188V29.6484H56C56.4688 30.5625 57.4062 31.1406 58.5859 31.1406C60.6484 31.1406 62.0156 29.4922 62.0156 26.8906C62.0156 24.2891 60.6406 22.6484 58.5547 22.6484C57.3672 22.6484 56.4219 23.25 55.9375 24.1953H55.9062V22.7812H54.2734V33.7188H55.9609ZM58.1094 29.7109C56.8125 29.7109 55.9531 28.6016 55.9531 26.8906C55.9531 25.1953 56.8203 24.0703 58.1094 24.0703C59.4453 24.0703 60.2812 25.1719 60.2812 26.8906C60.2812 28.6172 59.4453 29.7109 58.1094 29.7109ZM65 33.7188V29.6484H65.0391C65.5078 30.5625 66.4453 31.1406 67.625 31.1406C69.6875 31.1406 71.0547 29.4922 71.0547 26.8906C71.0547 24.2891 69.6797 22.6484 67.5938 22.6484C66.4062 22.6484 65.4609 23.25 64.9766 24.1953H64.9453V22.7812H63.3125V33.7188H65ZM67.1484 29.7109C65.8516 29.7109 64.9922 28.6016 64.9922 26.8906C64.9922 25.1953 65.8594 24.0703 67.1484 24.0703C68.4844 24.0703 69.3203 25.1719 69.3203 26.8906C69.3203 28.6172 68.4844 29.7109 67.1484 29.7109ZM74.1016 31V19.7266H72.4141V31H74.1016ZM79.3438 31.1562C81.2266 31.1562 82.6484 30.0859 82.8828 28.5859H81.2812C81.0547 29.3047 80.3438 29.7891 79.3828 29.7891C78.0312 29.7891 77.1719 28.8438 77.1719 27.4141V27.3125H82.9766V26.7344C82.9766 24.2422 81.5547 22.6328 79.2734 22.6328C76.9531 22.6328 75.4688 24.3516 75.4688 26.9297C75.4688 29.5234 76.9297 31.1562 79.3438 31.1562ZM81.2891 26.1328H77.1797C77.2656 24.8906 78.0938 23.9922 79.2734 23.9922C80.4531 23.9922 81.25 24.875 81.2891 26.1328ZM89.4766 31V27.1484H91.8984C94.1094 27.1484 95.6641 25.6328 95.6641 23.4297C95.6641 21.2344 94.1406 19.7266 91.9531 19.7266H87.7266V31H89.4766ZM91.4844 25.6797H89.4766V21.2031H91.4922C93.0078 21.2031 93.875 22.0156 93.875 23.4375C93.875 24.8594 93.0078 25.6797 91.4844 25.6797ZM100.523 31.1562C102.875 31.1562 104.422 29.5391 104.422 26.8906C104.422 24.25 102.867 22.6328 100.523 22.6328C98.1797 22.6328 96.625 24.25 96.625 26.8906C96.625 29.5391 98.1719 31.1562 100.523 31.1562ZM100.523 29.7656C99.2031 29.7656 98.3438 28.7188 98.3438 26.8906C98.3438 25.0703 99.2031 24.0234 100.523 24.0234C101.844 24.0234 102.703 25.0703 102.703 26.8906C102.703 28.7188 101.852 29.7656 100.523 29.7656ZM108.812 31.1406C110.008 31.1406 110.945 30.5391 111.43 29.6016H111.461V31H113.102V19.7266H111.406V24.1484H111.375C110.914 23.2422 109.977 22.6484 108.797 22.6484C106.734 22.6484 105.359 24.2969 105.359 26.8906C105.359 29.4844 106.734 31.1406 108.812 31.1406ZM109.258 29.7109C107.922 29.7109 107.086 28.625 107.086 26.8906C107.086 25.1641 107.922 24.0703 109.258 24.0703C110.555 24.0703 111.422 25.1875 111.422 26.8906C111.422 28.6094 110.555 29.7109 109.258 29.7109ZM118.344 31.1562C120.32 31.1562 121.719 29.9688 121.898 28.2188H120.273C120.078 29.1719 119.398 29.7422 118.359 29.7422C117.047 29.7422 116.18 28.6953 116.18 26.8906C116.18 25.125 117.039 24.0391 118.344 24.0391C119.445 24.0391 120.102 24.7344 120.273 25.6094H121.883C121.734 23.9922 120.445 22.6328 118.328 22.6328C115.992 22.6328 114.461 24.2812 114.461 26.8906C114.461 29.5469 115.992 31.1562 118.344 31.1562ZM125.5 31.1406C126.578 31.1406 127.617 30.5625 128.094 29.6484H128.133V31H129.75V25.3359C129.75 23.6875 128.477 22.6328 126.484 22.6328C124.453 22.6328 123.188 23.7266 123.094 25.2109H124.688C124.836 24.4766 125.445 24.0078 126.422 24.0078C127.453 24.0078 128.07 24.5547 128.07 25.4688V26.1016L125.82 26.2344C123.867 26.3438 122.766 27.2266 122.766 28.6641C122.766 30.1406 123.891 31.1406 125.5 31.1406ZM125.969 29.8047C125.062 29.8047 124.469 29.3359 124.469 28.6172C124.469 27.9141 125.039 27.4688 126.047 27.3984L128.07 27.2734V27.9219C128.07 28.9922 127.148 29.8047 125.969 29.8047ZM134.469 31.1562C136.406 31.1562 137.805 30.125 137.805 28.625C137.805 27.4375 137.164 26.7812 135.484 26.3906L134.148 26.0859C133.258 25.8828 132.883 25.5312 132.883 25.0156C132.883 24.3594 133.492 23.9141 134.406 23.9141C135.352 23.9141 135.938 24.4141 136.031 25.2109H137.617C137.562 23.6953 136.32 22.6328 134.406 22.6328C132.516 22.6328 131.234 23.6406 131.234 25.1094C131.234 26.3047 132.008 27.0547 133.57 27.4141L134.906 27.7266C135.805 27.9297 136.109 28.2422 136.109 28.7734C136.109 29.4453 135.484 29.8672 134.469 29.8672C133.438 29.8672 132.852 29.4453 132.695 28.5859H131.023C131.18 30.1484 132.414 31.1562 134.469 31.1562ZM141.914 31.0547C142.289 31.0547 142.664 31.0234 142.852 30.9766V29.6406C142.742 29.6641 142.469 29.6797 142.297 29.6797C141.609 29.6797 141.297 29.3594 141.297 28.6484V24.1172H142.859V22.7812H141.297V20.8359H139.602V22.7812H138.406V24.1172H139.602V28.8359C139.602 30.4219 140.25 31.0547 141.914 31.0547ZM147.328 31.1562C149.266 31.1562 150.664 30.125 150.664 28.625C150.664 27.4375 150.023 26.7812 148.344 26.3906L147.008 26.0859C146.117 25.8828 145.742 25.5312 145.742 25.0156C145.742 24.3594 146.352 23.9141 147.266 23.9141C148.211 23.9141 148.797 24.4141 148.891 25.2109H150.477C150.422 23.6953 149.18 22.6328 147.266 22.6328C145.375 22.6328 144.094 23.6406 144.094 25.1094C144.094 26.3047 144.867 27.0547 146.43 27.4141L147.766 27.7266C148.664 27.9297 148.969 28.2422 148.969 28.7734C148.969 29.4453 148.344 29.8672 147.328 29.8672C146.297 29.8672 145.711 29.4453 145.555 28.5859H143.883C144.039 30.1484 145.273 31.1562 147.328 31.1562Z" fill="white"/>
</g>
<defs>
<linearGradient id="paint0_linear_23231_96448" x1="1219.27" y1="7.40234" x2="1219.27" y2="2426.92" gradientUnits="userSpaceOnUse">
<stop stop-color="#F452FF"/>
<stop offset="1" stop-color="#832BC1"/>
</linearGradient>
<clipPath id="clip0_23231_96448">
<rect width="160" height="40" fill="white"/>
</clipPath>
</defs>
</svg>
