<svg width="2200" height="696" viewBox="0 0 2200 696" fill="none" xmlns="http://www.w3.org/2000/svg">
<g clip-path="url(#clip0_22138_201775)">
<rect width="2200" height="696" fill="#101010"/>
<g opacity="0.3">
<path vector-effect="non-scaling-stroke" d="M1488.56 779.328C1674.61 779.058 1825.38 628.288 1825.65 442.239L1488.56 442.238L1488.56 779.328Z" stroke="white"/>
<path vector-effect="non-scaling-stroke" d="M2073 -18L2018.16 45.7501L1989 79.5" stroke="white"/>
<path vector-effect="non-scaling-stroke" d="M2047.32 715.227L1432 715.226L1739.66 363.613L1763.6 336.254" stroke="white"/>
<path vector-effect="non-scaling-stroke" d="M1988.99 367.594C1988.79 288.13 1939.76 223.951 1863.4 223.951L1863.4 223.451L1863.4 222.951C1939.76 222.951 1988.79 158.773 1988.99 79.3088L1850.31 79.3088C1773.73 79.3087 1711.62 143.825 1711.62 223.451C1711.62 303.077 1773.73 367.594 1850.31 367.594L1988.99 367.594Z" stroke="white"/>
<path vector-effect="non-scaling-stroke" d="M1869.27 355.308C1845.62 355.308 1826.39 374.201 1825.83 397.717L1825.82 442.211L1870.32 442.199C1893.83 441.645 1912.72 422.409 1912.72 398.759C1912.72 374.762 1893.27 355.308 1869.27 355.308Z" fill="#101010" stroke="white"/>
<path vector-effect="non-scaling-stroke" d="M1675.66 91.9259C1622.86 91.9259 1580.05 135.162 1580.05 188.506C1580.05 241.85 1622.86 285.086 1675.66 285.086C1728.46 285.086 1771.28 241.85 1771.28 188.506C1771.28 135.162 1728.46 91.9259 1675.66 91.9259Z" fill="#101010" stroke="white"/>
</g>
<g opacity="0.3">
<path vector-effect="non-scaling-stroke" d="M42.3311 852.492C272.017 852.222 458.162 666.077 458.431 436.392L42.3311 436.392L42.3311 852.492Z" stroke="white"/>
<path vector-effect="non-scaling-stroke" d="M-14.9999 773.297L364.562 339.512L394.096 305.759" stroke="white"/>
<path vector-effect="non-scaling-stroke" d="M672.281 344.531C672.076 246.398 611.539 167.086 517.219 167.086L517.219 166.586L517.219 166.086C611.539 166.086 672.076 86.7737 672.281 -11.3592L501.066 -11.3592C406.525 -11.3592 329.852 68.2913 329.852 166.586C329.852 264.881 406.525 344.531 501.066 344.531L672.281 344.531Z" stroke="white"/>
<path vector-effect="non-scaling-stroke" d="M512.129 329.155C482.888 329.155 459.104 352.516 458.421 381.591L458.406 436.601L513.416 436.586C542.491 435.903 565.852 412.119 565.852 382.878C565.852 353.208 541.799 329.155 512.129 329.155Z" fill="#101010" stroke="white"/>
</g>
</g>
<defs>
<clipPath id="clip0_22138_201775">
<rect width="2200" height="696" fill="white"/>
</clipPath>
</defs>
</svg>
