<svg width="1440" height="696" viewBox="0 0 1440 696" fill="none" xmlns="http://www.w3.org/2000/svg">
<g clip-path="url(#clip0_22138_201532)">
<rect width="1440" height="696" fill="#101010"/>
<g opacity="0.3">
<path vector-effect="non-scaling-stroke" d="M957.462 -20.247C892.871 -20.247 840.5 32.7415 840.5 98.1186C840.5 163.496 892.871 216.484 957.462 216.484C1022.05 216.484 1074.42 163.496 1074.42 98.1187C1074.42 32.7415 1022.05 -20.247 957.462 -20.247Z" stroke="white"/>
<path vector-effect="non-scaling-stroke" d="M917.568 733.046C1097.81 732.777 1243.88 586.71 1244.15 406.464L917.568 406.464L917.568 733.046Z" stroke="white"/>
<path vector-effect="non-scaling-stroke" d="M1468.63 -10.4285L1411.93 54.7834M831.5 718L1170.53 330.256L1193.73 303.746" stroke="white"/>
<path vector-effect="non-scaling-stroke" d="M1412.1 334.102C1411.9 257.12 1364.39 194.954 1290.43 194.954L1290.43 194.454L1290.43 193.954C1364.39 193.954 1411.9 131.788 1412.1 54.8068L1277.74 54.8068C1203.55 54.8068 1143.38 117.311 1143.38 194.454C1143.38 271.598 1203.55 334.102 1277.74 334.102L1412.1 334.102Z" stroke="white"/>
<path vector-effect="non-scaling-stroke" d="M1286.43 322.227C1263.52 322.227 1244.89 340.526 1244.35 363.303L1244.34 406.398L1287.44 406.387C1310.21 405.85 1328.51 387.218 1328.51 364.313C1328.51 341.069 1309.67 322.227 1286.43 322.227Z" fill="#101010" stroke="white"/>
<path vector-effect="non-scaling-stroke" d="M1034.52 162.179C983.372 162.179 941.896 204.063 941.896 255.742C941.896 307.42 983.372 349.305 1034.52 349.305C1085.68 349.305 1127.15 307.42 1127.15 255.742C1127.15 204.064 1085.68 162.179 1034.52 162.179Z" fill="#101010" stroke="white"/>
</g>
</g>
<defs>
<clipPath id="clip0_22138_201532">
<rect width="1440" height="696" fill="white"/>
</clipPath>
</defs>
</svg>
