<svg width="599" height="636" viewBox="0 0 599 636" fill="none" xmlns="http://www.w3.org/2000/svg">
<g clip-path="url(#clip0_22133_10852)">
<rect width="599" height="636" fill="#101010"/>
<g opacity="0.2">
<path vector-effect="non-scaling-stroke" d="M173.401 -100.978C102.07 -100.978 44.2347 -42.4605 44.2347 29.7374C44.2347 101.935 102.07 160.453 173.401 160.453C244.731 160.453 302.566 101.935 302.566 29.7375C302.566 -42.4604 244.731 -100.978 173.401 -100.978Z" stroke="white"/>
<path vector-effect="non-scaling-stroke" d="M129.31 730.687C328.353 730.417 489.658 569.113 489.927 370.07L129.31 370.069L129.31 730.687Z" stroke="white"/>
<path vector-effect="non-scaling-stroke" d="M737.682 -90.0795L675.091 -18.0921M79.5369 662.086L408.609 286.003L434.215 256.74" stroke="white"/>
<path vector-effect="non-scaling-stroke" d="M675.328 290.297C675.123 205.274 622.664 136.588 540.959 136.588L540.959 136.088L540.959 135.588C622.664 135.588 675.123 66.9032 675.328 -18.1201L526.955 -18.1201C445.028 -18.1201 378.581 50.9031 378.581 136.088C378.581 221.274 445.028 290.297 526.955 290.297L675.328 290.297Z" stroke="white"/>
<path vector-effect="non-scaling-stroke" d="M536.546 277.089C511.232 277.089 490.641 297.312 490.049 322.484L490.036 370.109L537.662 370.096C562.833 369.504 583.057 348.913 583.057 323.599C583.057 297.912 562.233 277.089 536.546 277.089Z" fill="#101010" stroke="white"/>
<path vector-effect="non-scaling-stroke" d="M258.469 100.406C201.973 100.406 156.166 146.666 156.166 203.742C156.166 260.818 201.973 307.078 258.469 307.078C314.964 307.078 360.771 260.818 360.771 203.742C360.772 146.666 314.964 100.406 258.469 100.406Z" fill="#101010" stroke="white"/>
</g>
</g>
<defs>
<clipPath id="clip0_22133_10852">
<rect width="599" height="636" fill="white"/>
</clipPath>
</defs>
</svg>
