<svg width="1023" height="768" viewBox="0 0 1023 768" fill="none" xmlns="http://www.w3.org/2000/svg">
<g clip-path="url(#clip0_22137_201454)">
<rect width="1023" height="768" fill="#101010"/>
<g opacity="0.2">
<path vector-effect="non-scaling-stroke" d="M597.401 -34.9782C526.07 -34.9782 468.235 23.5395 468.235 95.7374C468.235 167.935 526.07 226.453 597.401 226.453C668.731 226.453 726.566 167.935 726.566 95.7375C726.566 23.5396 668.731 -34.9782 597.401 -34.9782Z" stroke="white"/>
<path vector-effect="non-scaling-stroke" d="M553.31 796.687C752.353 796.417 913.658 635.113 913.927 436.07L553.31 436.069L553.31 796.687Z" stroke="white"/>
<path vector-effect="non-scaling-stroke" d="M1161.68 -24.0853L1099.09 47.9021M434 807.5L832.609 352.001L858.215 322.738" stroke="white"/>
<path vector-effect="non-scaling-stroke" d="M1099.33 356.297C1099.12 271.274 1046.66 202.588 964.959 202.588L964.959 202.088L964.959 201.588C1046.66 201.588 1099.12 132.903 1099.33 47.8799L950.955 47.8799C869.028 47.8799 802.581 116.903 802.581 202.088C802.581 287.274 869.028 356.297 950.955 356.297L1099.33 356.297Z" stroke="white"/>
<path vector-effect="non-scaling-stroke" d="M960.546 343.089C935.232 343.089 914.641 363.312 914.049 388.484L914.036 436.109L961.662 436.096C986.833 435.504 1007.06 414.913 1007.06 389.599C1007.06 363.912 986.233 343.089 960.546 343.089Z" fill="#101010" stroke="white"/>
<path vector-effect="non-scaling-stroke" d="M682.469 166.406C625.973 166.406 580.166 212.666 580.166 269.742C580.166 326.818 625.973 373.078 682.469 373.078C738.964 373.078 784.771 326.818 784.771 269.742C784.772 212.666 738.964 166.406 682.469 166.406Z" fill="#101010" stroke="white"/>
</g>
</g>
<defs>
<clipPath id="clip0_22137_201454">
<rect width="1023" height="768" fill="white"/>
</clipPath>
</defs>
</svg>
