<svg width="160" height="40" viewBox="0 0 160 40" fill="none" xmlns="http://www.w3.org/2000/svg">
<g clip-path="url(#clip0_23231_96460)">
<path d="M7 0.5H153C156.59 0.5 159.5 3.41015 159.5 7V33C159.5 36.5899 156.59 39.5 153 39.5H7C3.41015 39.5 0.5 36.5899 0.5 33V7C0.5 3.41015 3.41015 0.5 7 0.5Z" fill="black" stroke="#A6A6A6"/>
<path d="M43 14.8958V9.1042H43.9102V14.1317H46.6681V14.8958H43ZM48.0087 9.99855C47.7266 9.99855 47.4808 9.78148 47.4808 9.50362C47.4808 9.22576 47.7266 9 48.0087 9C48.3 9 48.5366 9.22576 48.5366 9.50362C48.5366 9.78148 48.3 9.99855 48.0087 9.99855ZM47.6082 14.8958V10.7019H48.4274V14.8958H47.6082ZM49.3039 14.3488L49.6952 13.7757C49.9956 14.0883 50.5781 14.3748 51.1698 14.3748C51.7887 14.3748 52.1164 14.1317 52.1164 13.7757C52.1164 13.3589 51.6157 13.22 51.0514 13.0984C50.3051 12.9334 49.4313 12.7424 49.4313 11.8394C49.4313 11.1708 50.032 10.5977 51.106 10.5977C51.8615 10.5977 52.4076 10.8582 52.7808 11.1968L52.4167 11.7438C52.1619 11.4486 51.6704 11.2315 51.1151 11.2315C50.5599 11.2315 50.2141 11.4399 50.2141 11.7786C50.2141 12.1433 50.6874 12.2648 51.2335 12.3864C51.998 12.5514 52.9082 12.7511 52.9082 13.7149C52.9082 14.4356 52.2893 15 51.1333 15C50.3961 15 49.7499 14.7829 49.3039 14.3488ZM55.1136 15C54.4218 15 54.0668 14.6266 54.0668 13.9667V11.3878H53.3387V10.7019H54.0668V9.55572H54.886V10.7019H55.778V11.3878H54.886V13.7931C54.886 14.0883 55.0316 14.3054 55.3138 14.3054C55.5049 14.3054 55.6779 14.2272 55.7598 14.1404L55.9691 14.7308C55.7962 14.8871 55.5413 15 55.1136 15ZM56.3723 12.7945C56.3723 11.5789 57.2916 10.5977 58.5749 10.5977C59.8947 10.5977 60.7139 11.5789 60.7139 12.864V13.055H57.237C57.3007 13.767 57.8468 14.3575 58.7297 14.3575C59.1939 14.3575 59.7036 14.1838 60.0313 13.8625L60.4135 14.3748C59.9766 14.7829 59.3577 15 58.6478 15C57.3371 15 56.3723 14.1143 56.3723 12.7945ZM58.5749 11.2402C57.6921 11.2402 57.2734 11.9175 57.2279 12.4906H59.9129C59.8947 11.9349 59.5033 11.2402 58.5749 11.2402ZM64.6668 14.8958V12.2127C64.6668 11.5181 64.2936 11.2923 63.7293 11.2923C63.2196 11.2923 62.7554 11.5876 62.5187 11.9001V14.8958H61.6996V10.7019H62.5187V11.2923C62.81 10.9537 63.3925 10.5977 64.0752 10.5977C65.0036 10.5977 65.486 11.0666 65.486 11.9522V14.8958H64.6668ZM70.998 15C69.6327 15 68.7771 14.0101 68.7771 12.7945C68.7771 11.5876 69.6327 10.5977 70.998 10.5977C72.3723 10.5977 73.2188 11.5876 73.2188 12.7945C73.2188 14.0101 72.3723 15 70.998 15ZM70.998 14.3054C71.8808 14.3054 72.3633 13.5933 72.3633 12.7945C72.3633 12.0043 71.8808 11.2923 70.998 11.2923C70.1242 11.2923 69.6327 12.0043 69.6327 12.7945C69.6327 13.5933 70.1242 14.3054 70.998 14.3054ZM77.1808 14.8958V12.2127C77.1808 11.5181 76.8076 11.2923 76.2433 11.2923C75.7336 11.2923 75.2694 11.5876 75.0328 11.9001V14.8958H74.2136V10.7019H75.0328V11.2923C75.324 10.9537 75.9066 10.5977 76.5892 10.5977C77.5176 10.5977 78 11.0666 78 11.9522V14.8958H77.1808Z" fill="white"/>
<path d="M48.1587 31.1992C50.9146 31.1992 52.7905 29.7466 53.2471 27.2729H51.396C51.0225 28.7173 49.8354 29.5723 48.167 29.5723C45.9673 29.5723 44.5728 27.8042 44.5728 25.0068C44.5728 22.2344 45.9839 20.4497 48.1587 20.4497C49.7856 20.4497 51.064 21.4541 51.396 22.9897H53.2388C52.9233 20.4912 50.873 18.8228 48.1587 18.8228C44.8135 18.8228 42.6719 21.2134 42.6719 25.0068C42.6719 28.8252 44.7969 31.1992 48.1587 31.1992ZM57.2646 31.1494C58.4102 31.1494 59.5142 30.5352 60.0205 29.564H60.062V31H61.7803V24.9819C61.7803 23.2305 60.4272 22.1099 58.3105 22.1099C56.1523 22.1099 54.8076 23.272 54.708 24.8491H56.4014C56.5591 24.0688 57.2065 23.5708 58.2441 23.5708C59.3398 23.5708 59.9956 24.1519 59.9956 25.123V25.7954L57.605 25.9365C55.5298 26.0527 54.3594 26.9907 54.3594 28.5181C54.3594 30.0869 55.5547 31.1494 57.2646 31.1494ZM57.7627 29.73C56.7998 29.73 56.1689 29.2319 56.1689 28.4683C56.1689 27.7212 56.7749 27.248 57.8457 27.1733L59.9956 27.0405V27.7295C59.9956 28.8667 59.0161 29.73 57.7627 29.73ZM66.7939 31.166C68.8525 31.166 70.3384 30.0703 70.3384 28.4766C70.3384 27.2148 69.6577 26.5176 67.873 26.1025L66.4536 25.7788C65.5073 25.563 65.1089 25.1895 65.1089 24.6416C65.1089 23.9443 65.7563 23.4712 66.7275 23.4712C67.7319 23.4712 68.3545 24.0024 68.4541 24.8491H70.1392C70.0811 23.2388 68.7612 22.1099 66.7275 22.1099C64.7188 22.1099 63.3574 23.1807 63.3574 24.7412C63.3574 26.0112 64.1792 26.8081 65.8394 27.1899L67.2588 27.522C68.2134 27.7378 68.5371 28.0698 68.5371 28.6343C68.5371 29.3481 67.873 29.7964 66.7939 29.7964C65.6982 29.7964 65.0757 29.3481 64.9097 28.4351H63.1333C63.2993 30.0952 64.6108 31.166 66.7939 31.166ZM74.7046 31.0581C75.103 31.0581 75.5015 31.0249 75.7007 30.9751V29.5557C75.5845 29.5806 75.2939 29.5972 75.1113 29.5972C74.3809 29.5972 74.0488 29.2568 74.0488 28.5015V23.687H75.709V22.2676H74.0488V20.2007H72.2476V22.2676H70.9775V23.687H72.2476V28.7007C72.2476 30.3857 72.9365 31.0581 74.7046 31.0581ZM81.8267 31.1494C84.043 31.1494 85.4707 29.4062 85.4707 26.6338C85.4707 23.8696 84.0347 22.1265 81.835 22.1265C80.5981 22.1265 79.6021 22.7407 79.0791 23.7534H79.0376V19.022H77.2446V31H78.9878V29.5142H79.021C79.5605 30.5269 80.5483 31.1494 81.8267 31.1494ZM81.3452 29.6304C79.9839 29.6304 79.0293 28.4517 79.0293 26.6338C79.0293 24.8325 79.9839 23.6372 81.3452 23.6372C82.7563 23.6372 83.6279 24.7993 83.6279 26.6338C83.6279 28.4849 82.7563 29.6304 81.3452 29.6304ZM90.6172 31.166C93.1157 31.166 94.7593 29.4478 94.7593 26.6338C94.7593 23.8281 93.1074 22.1099 90.6172 22.1099C88.127 22.1099 86.4751 23.8281 86.4751 26.6338C86.4751 29.4478 88.1187 31.166 90.6172 31.166ZM90.6172 29.6885C89.2144 29.6885 88.3013 28.5762 88.3013 26.6338C88.3013 24.6997 89.2144 23.5874 90.6172 23.5874C92.02 23.5874 92.9331 24.6997 92.9331 26.6338C92.9331 28.5762 92.0283 29.6885 90.6172 29.6885ZM97.4404 31L99.3745 27.7876H99.416L101.342 31H103.317L100.487 26.584L103.351 22.2676H101.375L99.4907 25.4302H99.4575L97.5483 22.2676H95.5396L98.3784 26.6421L95.498 31H97.4404Z" fill="white"/>
<path d="M11.1128 19.3076V14.1592C11.108 13.3723 11.4316 12.813 12.0897 12.4115L20.4638 7.32303C21.1636 6.89457 21.8138 6.89111 22.5177 7.31996L30.9278 12.425C31.5721 12.8146 31.8908 13.3865 31.8916 14.1461L31.8923 24.4511C31.8923 25.2088 31.5848 25.7857 30.9383 26.1765L22.5008 31.3034C21.8258 31.7134 21.1868 31.7265 20.5118 31.3111L12.0953 26.2061C11.4226 25.8007 11.1016 25.2269 11.1075 24.4253L11.1128 19.3076ZM23.6405 19.2392L23.6382 16.8757C23.6345 16.4315 23.381 16.1457 22.9932 16.1157C22.541 16.0773 22.2132 16.3719 22.2012 16.8465L22.1952 18.3965C22.1892 18.7311 21.9762 18.9053 21.6815 18.8388C21.4385 18.7842 21.374 18.6061 21.3755 18.3753L21.3777 16.3215C21.3788 16.0315 21.3016 15.7853 21.0496 15.6261C20.5366 15.3023 19.9418 15.6338 19.9253 16.2646L19.9201 17.9311C19.9163 18.2365 19.7813 18.3826 19.5278 18.3919C19.2653 18.4011 19.0977 18.24 19.0801 17.9303L19.0763 17.3534C19.0632 17.0326 18.9046 16.815 18.6166 16.715C18.1291 16.5396 17.6585 16.8719 17.6491 17.4096L17.6431 18.8826C17.6371 19.1503 17.483 19.2969 17.2463 19.3042C17.0033 19.3119 16.8496 19.1757 16.8151 18.9146C16.805 18.8384 16.8151 18.7588 16.8061 18.6826C16.7611 18.3 16.4491 18.0088 16.0936 18.0134C15.7336 18.0173 15.3923 18.3096 15.3833 18.685L15.3841 21.01C15.3942 21.3946 15.7343 21.6819 16.0921 21.6815C16.4558 21.6803 16.7581 21.3992 16.8046 21.0123C16.8158 20.923 16.7821 20.8111 16.8233 20.7457C16.9058 20.6157 17.0086 20.4546 17.1365 20.4123C17.2475 20.3753 17.4383 20.4484 17.5302 20.5403C17.6127 20.6223 17.6382 20.7942 17.6401 20.928L17.6476 23.2142C17.6551 23.7711 18.2146 24.1142 18.6946 23.8657C18.9676 23.7242 19.0823 23.4903 19.0793 23.1703L19.0763 20.1473C19.0771 19.6773 19.2136 19.4665 19.5121 19.4711C19.7971 19.475 19.9246 19.6711 19.9246 20.1242L19.9265 21.4803C19.9355 21.9511 20.2212 22.2496 20.6405 22.258C21.0725 22.263 21.3695 21.9503 21.3777 21.4619L21.3807 20.4157C21.3867 20.0988 21.5405 19.9246 21.794 19.9296C22.0475 19.9346 22.196 20.1073 22.2001 20.4238L22.205 21.625C22.2192 22.0596 22.529 22.3557 22.9351 22.3492C23.354 22.3423 23.6371 22.0392 23.6412 21.5657L23.6431 19.2388L23.6405 19.2392ZM25.9227 20.0607L25.9216 18.7446C25.9163 18.2973 25.6456 18.003 25.2365 17.9869C24.809 17.9696 24.4865 18.2246 24.4812 18.6688L24.4861 21.4553C24.4973 21.8873 24.8438 22.1715 25.2391 22.1484C25.6516 22.1238 25.916 21.8284 25.9223 21.378L25.9231 20.0619L25.9227 20.0607ZM26.7635 20.4269L26.7642 20.7746C26.783 21.1723 27.0485 21.4476 27.4295 21.4692C27.8333 21.4923 28.1532 21.2403 28.1915 20.8353C28.2164 20.5659 28.2162 20.2947 28.1907 20.0253C28.1532 19.6253 27.8157 19.3546 27.4332 19.3784C27.0601 19.4015 26.786 19.6869 26.7635 20.0784C26.7567 20.1938 26.7627 20.3103 26.7627 20.4261L26.7635 20.4269Z" fill="#F25C31"/>
<path d="M23.6408 19.2436L23.6389 21.5686C23.634 22.0416 23.3516 22.3455 22.9328 22.352C22.5266 22.3589 22.2203 22.0628 22.2026 21.6278L22.1978 20.4266C22.194 20.1105 22.0455 19.9366 21.7916 19.9324C21.5378 19.9282 21.3844 20.1016 21.3784 20.4186L21.3754 21.4647C21.3671 21.9493 21.0701 22.2659 20.6381 22.2609C20.2189 22.2559 19.9331 21.9532 19.9241 21.4832L19.926 20.127C19.9253 19.6739 19.8023 19.4778 19.5135 19.4739C19.2154 19.4701 19.0785 19.6801 19.0778 20.1501L19.0808 23.1732C19.0838 23.4932 18.969 23.727 18.696 23.8686C18.216 24.117 17.6573 23.7739 17.649 23.217L17.6415 20.9309C17.6396 20.7978 17.6145 20.6251 17.5316 20.5432C17.4386 20.4516 17.2485 20.3789 17.1379 20.4151C17.0104 20.4536 16.9076 20.6182 16.8248 20.7486C16.7873 20.8139 16.8165 20.9255 16.806 21.0151C16.7591 21.4016 16.4573 21.6836 16.0935 21.6843C15.7358 21.6855 15.3953 21.3932 15.3855 21.0128L15.3848 18.6878C15.3945 18.3124 15.7346 18.0209 16.095 18.0163C16.4513 18.0124 16.7625 18.3032 16.8075 18.6855C16.8165 18.7616 16.8064 18.8413 16.8165 18.9174C16.854 19.1782 17.004 19.3143 17.2478 19.307C17.484 19.2993 17.6385 19.1532 17.6445 18.8855L17.6505 17.4124C17.6603 16.8747 18.1305 16.5432 18.618 16.7178C18.906 16.8216 19.068 17.0355 19.0778 17.3563L19.0815 17.9332C19.0988 18.2389 19.2634 18.4009 19.5293 18.3947C19.7824 18.3855 19.9174 18.2389 19.9215 17.9339L19.9268 16.2674C19.9436 15.6366 20.538 15.3051 21.051 15.6289C21.3038 15.7882 21.381 16.0343 21.3791 16.3243L21.3769 18.3782C21.3758 18.6082 21.4406 18.7866 21.6829 18.8416C21.978 18.9086 22.191 18.7339 22.1966 18.3993L22.2026 16.8493C22.2146 16.3747 22.5424 16.0801 22.9946 16.1186C23.3816 16.1486 23.6348 16.4339 23.6396 16.8786L23.6419 19.2439L23.6408 19.2436ZM25.923 20.0655L25.9219 21.3816C25.9151 21.8316 25.6481 22.1278 25.2386 22.152C24.8434 22.1751 24.4961 21.8913 24.4856 21.4589L24.4808 18.6724C24.4909 18.2282 24.8096 17.9732 25.236 17.9905C25.6485 18.007 25.9159 18.3013 25.9211 18.7482L25.923 20.0643V20.0655ZM26.7638 20.4309L26.7649 20.0832C26.7866 19.6909 27.0649 19.4063 27.4346 19.3832C27.8209 19.3593 28.1554 19.6301 28.1921 20.0301C28.2169 20.2978 28.2184 20.5686 28.1929 20.8401C28.1546 21.2451 27.8348 21.4966 27.4309 21.4739C27.0499 21.4524 26.784 21.1766 26.7656 20.7793C26.7596 20.6639 26.7645 20.5474 26.7645 20.4316L26.7638 20.4309Z" fill="#FEFEFE"/>
</g>
<defs>
<clipPath id="clip0_23231_96460">
<rect width="160" height="40" fill="white"/>
</clipPath>
</defs>
</svg>
