<svg width="160" height="40" viewBox="0 0 160 40" fill="none" xmlns="http://www.w3.org/2000/svg">
<path d="M7 0.5H153C156.59 0.5 159.5 3.41015 159.5 7V33C159.5 36.5899 156.59 39.5 153 39.5H7C3.41015 39.5 0.5 36.5899 0.5 33V7C0.5 3.41015 3.41015 0.5 7 0.5Z" fill="black" stroke="#A6A6A6"/>
<path d="M10.6719 17.1094C9.81687 17.1094 9.125 17.8012 9.125 18.6562V20.3438C9.125 21.1988 9.81687 21.8906 10.6719 21.8906C11.5269 21.8906 12.2188 21.1988 12.2188 20.3438V18.6562C12.2188 17.8012 11.5269 17.1094 10.6719 17.1094Z" fill="#0066D9"/>
<path d="M32.3281 17.1094C31.4731 17.1094 30.7812 17.8012 30.7812 18.6562V20.3438C30.7812 21.1988 31.4731 21.8906 32.3281 21.8906C33.1831 21.8906 33.875 21.1988 33.875 20.3438V18.6562C33.875 17.8012 33.1831 17.1094 32.3281 17.1094Z" fill="#4285F4"/>
<path d="M16.0156 22.1719C15.1606 22.1719 14.4688 22.8637 14.4688 23.7188V25.4062C14.4688 26.2613 15.1606 26.9531 16.0156 26.9531C16.8706 26.9531 17.5625 26.2613 17.5625 25.4062V23.7188C17.5625 22.8637 16.8706 22.1719 16.0156 22.1719Z" fill="#EA4335"/>
<path d="M16.0156 12.0469C15.1606 12.0469 14.4688 12.7387 14.4688 13.5938V19.1133H14.4702C14.4898 19.9514 15.1733 20.625 16.0156 20.625C16.858 20.625 17.5414 19.9514 17.5611 19.1133H17.5625V13.5938C17.5625 12.7387 16.8706 12.0469 16.0156 12.0469Z" fill="#EA4335"/>
<path d="M26.9844 12.0469C26.1294 12.0469 25.4375 12.7387 25.4375 13.5938V15.2812C25.4375 16.1363 26.1294 16.8281 26.9844 16.8281C27.8394 16.8281 28.5312 16.1363 28.5312 15.2812V13.5938C28.5312 12.7387 27.8394 12.0469 26.9844 12.0469Z" fill="#34A853"/>
<path d="M21.5 7.125C20.645 7.125 19.9531 7.81687 19.9531 8.67188V10.3594C19.9531 11.2144 20.645 11.9062 21.5 11.9062C22.355 11.9062 23.0469 11.2144 23.0469 10.3594V8.67188C23.0469 7.81687 22.355 7.125 21.5 7.125Z" fill="#FAB908"/>
<path d="M21.5 27.0938C20.645 27.0938 19.9531 27.7856 19.9531 28.6406V30.3281C19.9531 31.1831 20.645 31.875 21.5 31.875C22.355 31.875 23.0469 31.1831 23.0469 30.3281V28.6406C23.0469 27.7856 22.355 27.0938 21.5 27.0938Z" fill="#FAB908"/>
<path d="M26.9844 18.375C26.1294 18.375 25.4375 19.0669 25.4375 19.9219V25.4062C25.4375 26.2613 26.1294 26.9531 26.9844 26.9531C27.8394 26.9531 28.5312 26.2613 28.5312 25.4062V19.9219C28.5312 19.0669 27.8394 18.375 26.9844 18.375Z" fill="#34A853"/>
<path d="M23.0469 15C23.0469 14.145 22.355 13.4531 21.5 13.4531C20.645 13.4531 19.9531 14.145 19.9531 15V18.7505V20.2509V24C19.9531 24.855 20.645 25.5469 21.5 25.5469C22.355 25.5469 23.0469 24.855 23.0469 24V20.2495V18.7505V15Z" fill="#FAB908"/>
<path d="M91.344 29.0596V24.9716H93.542C94.102 24.9716 94.62 24.8456 95.096 24.5936C95.572 24.3416 95.9523 23.9893 96.237 23.5366C96.5216 23.084 96.664 22.573 96.664 22.0036C96.664 21.4343 96.5216 20.9233 96.237 20.4706C95.9523 20.018 95.572 19.6656 95.096 19.4136C94.62 19.1616 94.102 19.0356 93.542 19.0356H90.168V29.0596H91.344ZM93.57 23.8376H91.344V20.1696H93.57C93.9433 20.1696 94.2723 20.2583 94.557 20.4356C94.8416 20.613 95.0633 20.8416 95.222 21.1216C95.3806 21.4016 95.46 21.6956 95.46 22.0036C95.46 22.3116 95.3806 22.6056 95.222 22.8856C95.0633 23.1656 94.8416 23.3943 94.557 23.5716C94.2723 23.749 93.9433 23.8376 93.57 23.8376ZM100.598 29.2836C101.298 29.2836 101.928 29.1156 102.488 28.7796C103.048 28.4436 103.484 27.9863 103.797 27.4076C104.11 26.829 104.266 26.1896 104.266 25.4896C104.266 24.7896 104.11 24.1503 103.797 23.5716C103.484 22.993 103.048 22.5356 102.488 22.1996C101.928 21.8636 101.298 21.6956 100.598 21.6956C99.898 21.6956 99.268 21.8636 98.708 22.1996C98.148 22.5356 97.7116 22.993 97.399 23.5716C97.0863 24.1503 96.93 24.7896 96.93 25.4896C96.93 26.1896 97.0863 26.829 97.399 27.4076C97.7116 27.9863 98.148 28.4436 98.708 28.7796C99.268 29.1156 99.898 29.2836 100.598 29.2836ZM100.598 28.2056C100.159 28.2056 99.7486 28.096 99.366 27.8766C98.9833 27.6573 98.6776 27.3423 98.449 26.9316C98.2203 26.521 98.106 26.0403 98.106 25.4896C98.106 24.939 98.2203 24.4583 98.449 24.0476C98.6776 23.637 98.9833 23.322 99.366 23.1026C99.7486 22.8833 100.159 22.7736 100.598 22.7736C101.037 22.7736 101.445 22.8833 101.823 23.1026C102.201 23.322 102.504 23.637 102.733 24.0476C102.962 24.4583 103.076 24.939 103.076 25.4896C103.076 26.0403 102.962 26.521 102.733 26.9316C102.504 27.3423 102.201 27.6573 101.823 27.8766C101.445 28.096 101.037 28.2056 100.598 28.2056ZM108.48 29.2836C109.031 29.2836 109.521 29.16 109.95 28.9126C110.379 28.6653 110.706 28.3643 110.93 28.0096H110.986V29.0596H112.12V19.0356H110.93V21.9896L110.986 22.9836H110.93C110.706 22.6196 110.379 22.314 109.95 22.0666C109.521 21.8193 109.031 21.6956 108.48 21.6956C107.845 21.6956 107.269 21.859 106.751 22.1856C106.233 22.5123 105.825 22.965 105.526 23.5436C105.227 24.1223 105.078 24.771 105.078 25.4896C105.078 26.2176 105.227 26.8686 105.526 27.4426C105.825 28.0166 106.233 28.467 106.751 28.7936C107.269 29.1203 107.845 29.2836 108.48 29.2836ZM108.62 28.2056C108.209 28.2056 107.822 28.0936 107.458 27.8696C107.094 27.6456 106.802 27.326 106.583 26.9106C106.364 26.4953 106.254 26.0216 106.254 25.4896C106.254 24.9576 106.364 24.484 106.583 24.0686C106.802 23.6533 107.094 23.3336 107.458 23.1096C107.822 22.8856 108.209 22.7736 108.62 22.7736C109.04 22.7736 109.43 22.8856 109.789 23.1096C110.148 23.3336 110.438 23.651 110.657 24.0616C110.876 24.4723 110.986 24.9483 110.986 25.4896C110.986 26.031 110.876 26.507 110.657 26.9176C110.438 27.3283 110.148 27.6456 109.789 27.8696C109.43 28.0936 109.04 28.2056 108.62 28.2056ZM116.852 29.2836C117.617 29.2836 118.268 29.1016 118.805 28.7376C119.342 28.3736 119.731 27.8976 119.974 27.3096L118.91 26.8616C118.733 27.291 118.462 27.6223 118.098 27.8556C117.734 28.089 117.3 28.2056 116.796 28.2056C116.376 28.2056 115.984 28.0913 115.62 27.8626C115.256 27.634 114.964 27.3143 114.745 26.9036C114.526 26.493 114.416 26.0216 114.416 25.4896C114.416 24.9576 114.526 24.4863 114.745 24.0756C114.964 23.665 115.256 23.3453 115.62 23.1166C115.984 22.888 116.376 22.7736 116.796 22.7736C117.291 22.7736 117.713 22.888 118.063 23.1166C118.413 23.3453 118.677 23.679 118.854 24.1176L119.932 23.6696C119.708 23.0723 119.332 22.594 118.805 22.2346C118.278 21.8753 117.627 21.6956 116.852 21.6956C116.161 21.6956 115.541 21.859 114.99 22.1856C114.439 22.5123 114.01 22.965 113.702 23.5436C113.394 24.1223 113.24 24.771 113.24 25.4896C113.24 26.2083 113.394 26.8546 113.702 27.4286C114.01 28.0026 114.439 28.4553 114.99 28.7866C115.541 29.118 116.161 29.2836 116.852 29.2836ZM123.278 29.2836C123.791 29.2836 124.253 29.1623 124.664 28.9196C125.075 28.677 125.383 28.383 125.588 28.0376H125.644V29.0596H126.778V24.5376C126.778 23.6603 126.5 22.9673 125.945 22.4586C125.39 21.95 124.627 21.6956 123.656 21.6956C123.059 21.6956 122.515 21.817 122.025 22.0596C121.535 22.3023 121.15 22.6383 120.87 23.0676L121.766 23.7396C121.962 23.4316 122.228 23.1913 122.564 23.0186C122.9 22.846 123.269 22.7596 123.67 22.7596C124.239 22.7596 124.711 22.9206 125.084 23.2426C125.457 23.5646 125.644 23.9916 125.644 24.5236V24.9576C125.448 24.8363 125.166 24.729 124.797 24.6356C124.428 24.5423 124.029 24.4956 123.6 24.4956C122.732 24.4956 122.013 24.708 121.444 25.1326C120.875 25.5573 120.59 26.1476 120.59 26.9036C120.59 27.361 120.702 27.7693 120.926 28.1286C121.15 28.488 121.467 28.7703 121.878 28.9756C122.289 29.181 122.755 29.2836 123.278 29.2836ZM123.39 28.2336C122.933 28.2336 122.555 28.1123 122.256 27.8696C121.957 27.627 121.808 27.3096 121.808 26.9176C121.808 26.4883 121.974 26.1383 122.305 25.8676C122.636 25.597 123.129 25.4616 123.782 25.4616C124.146 25.4616 124.491 25.5083 124.818 25.6016C125.145 25.695 125.42 25.8163 125.644 25.9656C125.644 26.3763 125.541 26.7543 125.336 27.0996C125.131 27.445 124.855 27.7203 124.51 27.9256C124.165 28.131 123.791 28.2336 123.39 28.2336ZM130.656 29.2836C131.179 29.2836 131.655 29.195 132.084 29.0176C132.513 28.8403 132.854 28.586 133.106 28.2546C133.358 27.9233 133.484 27.5383 133.484 27.0996C133.484 26.5956 133.307 26.1686 132.952 25.8186C132.597 25.4686 132.07 25.205 131.37 25.0276L130.334 24.7616C129.923 24.659 129.615 24.526 129.41 24.3626C129.205 24.1993 129.102 23.987 129.102 23.7256C129.102 23.4456 129.249 23.2146 129.543 23.0326C129.837 22.8506 130.18 22.7596 130.572 22.7596C131.384 22.7596 131.949 23.077 132.266 23.7116L133.302 23.2356C133.097 22.7503 132.749 22.3723 132.259 22.1016C131.769 21.831 131.211 21.6956 130.586 21.6956C130.11 21.6956 129.667 21.7796 129.256 21.9476C128.845 22.1156 128.516 22.356 128.269 22.6686C128.022 22.9813 127.898 23.343 127.898 23.7536C127.898 24.2856 128.08 24.7196 128.444 25.0556C128.808 25.3916 129.275 25.6296 129.844 25.7696L130.712 25.9936C131.253 26.1243 131.65 26.2806 131.902 26.4626C132.154 26.6446 132.28 26.885 132.28 27.1836C132.28 27.5196 132.121 27.7786 131.804 27.9606C131.487 28.1426 131.104 28.2336 130.656 28.2336C130.236 28.2336 129.851 28.117 129.501 27.8836C129.151 27.6503 128.887 27.319 128.71 26.8896L127.646 27.3656C127.861 27.9256 128.225 28.3853 128.738 28.7446C129.251 29.104 129.891 29.2836 130.656 29.2836ZM137.264 29.1716C137.488 29.1716 137.672 29.1576 137.817 29.1296C137.962 29.1016 138.104 29.055 138.244 28.9896V27.8276C137.992 27.9863 137.731 28.0656 137.46 28.0656C137.124 28.0656 136.867 27.963 136.69 27.7576C136.541 27.571 136.466 27.2816 136.466 26.8896V22.9976H138.202V21.9196H136.466V19.9036H135.276V21.9196H134.03V22.9976H135.276V27.1836C135.276 27.5196 135.323 27.8043 135.416 28.0376C135.509 28.271 135.649 28.4763 135.836 28.6536C136.004 28.8123 136.212 28.9383 136.459 29.0316C136.706 29.125 136.975 29.1716 137.264 29.1716ZM142.08 29.2836C142.603 29.2836 143.079 29.195 143.508 29.0176C143.937 28.8403 144.278 28.586 144.53 28.2546C144.782 27.9233 144.908 27.5383 144.908 27.0996C144.908 26.5956 144.731 26.1686 144.376 25.8186C144.021 25.4686 143.494 25.205 142.794 25.0276L141.758 24.7616C141.347 24.659 141.039 24.526 140.834 24.3626C140.629 24.1993 140.526 23.987 140.526 23.7256C140.526 23.4456 140.673 23.2146 140.967 23.0326C141.261 22.8506 141.604 22.7596 141.996 22.7596C142.808 22.7596 143.373 23.077 143.69 23.7116L144.726 23.2356C144.521 22.7503 144.173 22.3723 143.683 22.1016C143.193 21.831 142.635 21.6956 142.01 21.6956C141.534 21.6956 141.091 21.7796 140.68 21.9476C140.269 22.1156 139.94 22.356 139.693 22.6686C139.446 22.9813 139.322 23.343 139.322 23.7536C139.322 24.2856 139.504 24.7196 139.868 25.0556C140.232 25.3916 140.699 25.6296 141.268 25.7696L142.136 25.9936C142.677 26.1243 143.074 26.2806 143.326 26.4626C143.578 26.6446 143.704 26.885 143.704 27.1836C143.704 27.5196 143.545 27.7786 143.228 27.9606C142.911 28.1426 142.528 28.2336 142.08 28.2336C141.66 28.2336 141.275 28.117 140.925 27.8836C140.575 27.6503 140.311 27.319 140.134 26.8896L139.07 27.3656C139.285 27.9256 139.649 28.3853 140.162 28.7446C140.675 29.104 141.315 29.2836 142.08 29.2836Z" fill="white"/>
<path d="M72.6208 21.8131C73.5028 21.8131 74.1997 22.2051 74.5591 22.6406H74.6135V22.0417H76.1597V28.6513C76.1597 31.3735 74.5591 32.4842 72.6644 32.4842C70.8786 32.4842 69.8006 31.2864 69.3977 30.3064L70.8024 29.7184C71.0528 30.3173 71.6626 31.0251 72.6535 31.0251C73.8622 31.0251 74.6135 30.2737 74.6135 28.8691V28.3355H74.5591C74.1997 28.782 73.5028 29.174 72.6208 29.174C70.7806 29.174 69.0928 27.5624 69.0928 25.5044C69.0928 23.4246 70.7806 21.8131 72.6208 21.8131ZM56.6686 21.922C58.7048 21.922 60.36 23.4682 60.36 25.6024C60.36 27.7257 58.7048 29.2828 56.6686 29.2828C54.6324 29.2828 52.9773 27.7257 52.9773 25.6024C52.9773 23.4682 54.6324 21.922 56.6686 21.922ZM64.7264 21.922C66.7626 21.922 68.4177 23.4682 68.4177 25.6024C68.4177 27.7257 66.7626 29.2828 64.7264 29.2828C62.6902 29.2828 61.0351 27.7257 61.0351 25.6024C61.0351 23.4682 62.6902 21.922 64.7264 21.922ZM83.1286 21.922C85.0342 21.922 85.9706 23.4355 86.2755 24.2631L86.4388 24.6768L81.5171 26.7131C81.8982 27.4426 82.4753 27.8237 83.3028 27.8237C84.1304 27.8237 84.6966 27.4208 85.1213 26.8111L86.3735 27.6495C85.9597 28.2484 84.9906 29.2828 83.3028 29.2828C81.2122 29.2828 79.6551 27.6604 79.6551 25.6024C79.6551 23.4137 81.2339 21.922 83.1286 21.922ZM47.1299 17.7842C48.8722 17.7842 50.1135 18.4702 51.0499 19.3631L49.9393 20.4628C49.2751 19.8313 48.3713 19.3413 47.1299 19.3413C44.8324 19.3413 43.0357 21.1924 43.0357 23.49C43.0357 25.7875 44.8324 27.6386 47.1299 27.6386C48.6217 27.6386 49.4711 27.0397 50.0155 26.4953C50.4619 26.0488 50.7559 25.4064 50.8648 24.5353H47.1299V22.9782H52.3893C52.4437 23.2613 52.4764 23.588 52.4764 23.9582C52.4764 25.1342 52.1606 26.5824 51.1262 27.606C50.1135 28.6513 48.8286 29.2066 47.1299 29.2066C43.9722 29.2066 41.3262 26.6477 41.3262 23.5008C41.3262 20.3431 43.9722 17.7842 47.1299 17.7842ZM78.8711 18.2197V29.0324H77.2595V18.2197H78.8711ZM56.6686 23.3593C55.5471 23.3593 54.5888 24.2631 54.5888 25.5915C54.5888 26.9091 55.5579 27.8237 56.6686 27.8237C57.7793 27.8237 58.7484 26.9091 58.7484 25.5915C58.7484 24.2631 57.7793 23.3593 56.6686 23.3593ZM64.7264 23.3593C63.6048 23.3593 62.6466 24.2631 62.6466 25.5915C62.6466 26.9091 63.6157 27.8237 64.7264 27.8237C65.8371 27.8237 66.8062 26.9091 66.8062 25.5915C66.8062 24.2631 65.8479 23.3593 64.7264 23.3593ZM72.7624 23.2613C71.6517 23.2613 70.7153 24.2086 70.7153 25.5044C70.7153 26.7893 71.6517 27.7257 72.7624 27.7257C73.8622 27.7257 74.7333 26.8002 74.7224 25.5044C74.7224 24.2086 73.8622 23.2613 72.7624 23.2613ZM83.1831 23.3375C82.3555 23.3375 81.2122 24.0671 81.2557 25.4826L84.5442 24.1215C84.3699 23.6533 83.8255 23.3375 83.1831 23.3375Z" fill="white"/>
<path d="M46.178 14.1997V13.427H42.782V7.0335H41.832V14.1997H46.178ZM47.9066 7.9785C48.0838 7.9785 48.2183 7.92928 48.3102 7.83084C48.4021 7.7324 48.448 7.60936 48.448 7.4617C48.448 7.31404 48.4021 7.18936 48.3102 7.08764C48.2183 6.98592 48.0838 6.93506 47.9066 6.93506C47.7294 6.93506 47.5957 6.98592 47.5055 7.08764C47.4152 7.18936 47.3701 7.31404 47.3701 7.4617C47.3701 7.60936 47.4152 7.7324 47.5055 7.83084C47.5957 7.92928 47.7294 7.9785 47.9066 7.9785ZM48.3545 14.1997V8.87428H47.444V14.1997H48.3545ZM52.0223 14.2982C52.6293 14.2982 53.1231 14.1546 53.5038 13.8675C53.8844 13.5804 54.0747 13.199 54.0747 12.7232C54.0747 12.4377 54.0066 12.1957 53.8704 11.9972C53.7343 11.7987 53.5251 11.6289 53.2429 11.4878C52.9607 11.3467 52.5924 11.2253 52.1379 11.1236C51.6835 11.0219 51.3693 10.9152 51.1954 10.8037C51.0215 10.6921 50.9345 10.5264 50.9345 10.3065C50.9345 10.0736 51.0281 9.8849 51.2151 9.74053C51.4021 9.59615 51.6613 9.52396 51.9927 9.52396C52.3143 9.52396 52.5809 9.6142 52.7926 9.79467C53.0042 9.97514 53.11 10.1901 53.11 10.4394H54.0255C54.0255 9.95381 53.8376 9.55514 53.4619 9.24342C53.0862 8.9317 52.5965 8.77584 51.9927 8.77584C51.4185 8.77584 50.9468 8.92678 50.5777 9.22865C50.2086 9.53053 50.024 9.89967 50.024 10.3361C50.024 10.5986 50.0888 10.825 50.2184 11.0153C50.348 11.2056 50.5482 11.3697 50.8189 11.5075C51.0896 11.6453 51.4554 11.7634 51.9165 11.8619C52.3775 11.9603 52.7007 12.0776 52.8861 12.2138C53.0715 12.3499 53.1642 12.5411 53.1642 12.7872C53.1642 13.0201 53.06 13.2063 52.8516 13.3458C52.6433 13.4853 52.3668 13.555 52.0223 13.555C51.6482 13.555 51.3472 13.4656 51.1191 13.2867C50.8911 13.1079 50.7688 12.8659 50.7524 12.5608H49.8419C49.8419 12.8758 49.9346 13.1686 50.12 13.4393C50.3054 13.71 50.5621 13.9208 50.8902 14.0718C51.2184 14.2227 51.5957 14.2982 52.0223 14.2982ZM57.0682 14.2982C57.2946 14.2982 57.5276 14.2654 57.7671 14.1997V13.4615C57.5833 13.5008 57.439 13.5205 57.334 13.5205C57.1207 13.5205 56.9697 13.4672 56.8812 13.3606C56.7926 13.2539 56.7483 13.094 56.7483 12.8807V9.57811H57.7425V8.87428H56.7483V7.58475H55.8377V8.87428H54.8681V9.57811H55.8377V12.8807C55.8377 13.3335 55.9411 13.6829 56.1478 13.929C56.3545 14.1751 56.6613 14.2982 57.0682 14.2982ZM61.2675 14.2982C62.16 14.2982 62.8294 13.9553 63.2757 13.2695L62.7195 12.8364C62.5521 13.0529 62.3569 13.2269 62.1338 13.3581C61.9107 13.4894 61.6383 13.555 61.3167 13.555C60.8639 13.555 60.4907 13.3934 60.197 13.0702C59.9033 12.747 59.75 12.3229 59.7368 11.7979H63.3446V11.4189C63.3446 10.569 63.1526 9.91607 62.7687 9.45998C62.3848 9.00389 61.8467 8.77584 61.1543 8.77584C60.731 8.77584 60.3381 8.89314 59.9755 9.12775C59.613 9.36236 59.3308 9.68721 59.129 10.1023C58.9272 10.5174 58.8263 10.989 58.8263 11.5173V11.6847C58.8263 12.4787 59.0527 13.1128 59.5055 13.587C59.9583 14.0611 60.5457 14.2982 61.2675 14.2982ZM62.434 11.0497H59.7664C59.8254 10.5674 59.9796 10.1925 60.229 9.9251C60.4784 9.65768 60.7868 9.52396 61.1543 9.52396C61.535 9.52396 61.8368 9.65111 62.06 9.90541C62.2831 10.1597 62.4078 10.5182 62.434 10.9808V11.0497ZM65.5604 14.1997V10.405C65.6851 10.149 65.859 9.94232 66.0821 9.78482C66.3052 9.62732 66.5644 9.54857 66.8598 9.54857C67.224 9.54857 67.4922 9.64045 67.6645 9.8242C67.8368 10.0079 67.9245 10.2918 67.9278 10.6757V14.1997H68.8384V10.6806C68.8285 9.41076 68.2609 8.77584 67.1354 8.77584C66.4791 8.77584 65.9476 9.03178 65.5407 9.54365L65.5112 8.87428H64.6498V14.1997H65.5604ZM75.3963 14.2982C75.8753 14.2982 76.2994 14.1833 76.6686 13.9537C77.0377 13.724 77.3215 13.4032 77.5201 12.9914C77.7186 12.5796 77.8178 12.1145 77.8178 11.5961V11.5321C77.8178 10.6987 77.5939 10.0309 77.146 9.52889C76.6981 9.02686 76.1116 8.77584 75.3864 8.77584C74.9172 8.77584 74.4997 8.88904 74.1338 9.11545C73.7679 9.34186 73.4825 9.66342 73.2774 10.0801C73.0723 10.4969 72.9698 10.9661 72.9698 11.4878V11.5518C72.9698 12.3787 73.1937 13.0431 73.6416 13.5451C74.0895 14.0472 74.6744 14.2982 75.3963 14.2982ZM75.3963 13.555C74.9369 13.555 74.5702 13.3762 74.2962 13.0185C74.0222 12.6608 73.8853 12.1867 73.8853 11.5961C73.8853 10.93 74.0231 10.4181 74.2987 10.0604C74.5743 9.70279 74.9369 9.52396 75.3864 9.52396C75.8458 9.52396 76.2141 9.70525 76.4914 10.0678C76.7687 10.4304 76.9073 10.9037 76.9073 11.4878C76.9073 12.1408 76.7711 12.6485 76.4988 13.0111C76.2264 13.3737 75.8589 13.555 75.3963 13.555ZM80.1222 14.1997V10.405C80.2469 10.149 80.4208 9.94232 80.644 9.78482C80.8671 9.62732 81.1263 9.54857 81.4216 9.54857C81.7858 9.54857 82.0541 9.64045 82.2264 9.8242C82.3986 10.0079 82.4864 10.2918 82.4897 10.6757V14.1997H83.4002V10.6806C83.3904 9.41076 82.8227 8.77584 81.6972 8.77584C81.041 8.77584 80.5094 9.03178 80.1026 9.54365L80.073 8.87428H79.2117V14.1997H80.1222Z" fill="white"/>
</svg>
