<svg width="160" height="40" viewBox="0 0 160 40" fill="none" xmlns="http://www.w3.org/2000/svg">
<g clip-path="url(#clip0_23231_96513)">
<path d="M7 0.5H153C156.59 0.5 159.5 3.41015 159.5 7V33C159.5 36.5899 156.59 39.5 153 39.5H7C3.41015 39.5 0.5 36.5899 0.5 33V7C0.5 3.41015 3.41015 0.5 7 0.5Z" fill="black" stroke="#A6A6A6"/>
<path d="M43 14.8958V9.1042H43.9102V14.1317H46.6681V14.8958H43ZM48.0087 9.99855C47.7266 9.99855 47.4808 9.78148 47.4808 9.50362C47.4808 9.22576 47.7266 9 48.0087 9C48.3 9 48.5366 9.22576 48.5366 9.50362C48.5366 9.78148 48.3 9.99855 48.0087 9.99855ZM47.6082 14.8958V10.7019H48.4274V14.8958H47.6082ZM49.3039 14.3488L49.6952 13.7757C49.9956 14.0883 50.5781 14.3748 51.1698 14.3748C51.7887 14.3748 52.1164 14.1317 52.1164 13.7757C52.1164 13.3589 51.6157 13.22 51.0514 13.0984C50.3051 12.9334 49.4313 12.7424 49.4313 11.8394C49.4313 11.1708 50.032 10.5977 51.106 10.5977C51.8615 10.5977 52.4076 10.8582 52.7808 11.1968L52.4167 11.7438C52.1619 11.4486 51.6704 11.2315 51.1151 11.2315C50.5599 11.2315 50.2141 11.4399 50.2141 11.7786C50.2141 12.1433 50.6874 12.2648 51.2335 12.3864C51.998 12.5514 52.9082 12.7511 52.9082 13.7149C52.9082 14.4356 52.2893 15 51.1333 15C50.3961 15 49.7499 14.7829 49.3039 14.3488ZM55.1136 15C54.4218 15 54.0668 14.6266 54.0668 13.9667V11.3878H53.3387V10.7019H54.0668V9.55572H54.886V10.7019H55.778V11.3878H54.886V13.7931C54.886 14.0883 55.0316 14.3054 55.3138 14.3054C55.5049 14.3054 55.6779 14.2272 55.7598 14.1404L55.9691 14.7308C55.7962 14.8871 55.5413 15 55.1136 15ZM56.3723 12.7945C56.3723 11.5789 57.2916 10.5977 58.5749 10.5977C59.8947 10.5977 60.7139 11.5789 60.7139 12.864V13.055H57.237C57.3007 13.767 57.8468 14.3575 58.7297 14.3575C59.1939 14.3575 59.7036 14.1838 60.0313 13.8625L60.4135 14.3748C59.9766 14.7829 59.3577 15 58.6478 15C57.3371 15 56.3723 14.1143 56.3723 12.7945ZM58.5749 11.2402C57.6921 11.2402 57.2734 11.9175 57.2279 12.4906H59.9129C59.8947 11.9349 59.5033 11.2402 58.5749 11.2402ZM64.6668 14.8958V12.2127C64.6668 11.5181 64.2936 11.2923 63.7293 11.2923C63.2196 11.2923 62.7554 11.5876 62.5187 11.9001V14.8958H61.6996V10.7019H62.5187V11.2923C62.81 10.9537 63.3925 10.5977 64.0752 10.5977C65.0036 10.5977 65.486 11.0666 65.486 11.9522V14.8958H64.6668ZM70.998 15C69.6327 15 68.7771 14.0101 68.7771 12.7945C68.7771 11.5876 69.6327 10.5977 70.998 10.5977C72.3723 10.5977 73.2188 11.5876 73.2188 12.7945C73.2188 14.0101 72.3723 15 70.998 15ZM70.998 14.3054C71.8808 14.3054 72.3633 13.5933 72.3633 12.7945C72.3633 12.0043 71.8808 11.2923 70.998 11.2923C70.1242 11.2923 69.6327 12.0043 69.6327 12.7945C69.6327 13.5933 70.1242 14.3054 70.998 14.3054ZM77.1808 14.8958V12.2127C77.1808 11.5181 76.8076 11.2923 76.2433 11.2923C75.7336 11.2923 75.2694 11.5876 75.0328 11.9001V14.8958H74.2136V10.7019H75.0328V11.2923C75.324 10.9537 75.9066 10.5977 76.5892 10.5977C77.5176 10.5977 78 11.0666 78 11.9522V14.8958H77.1808Z" fill="white"/>
<path d="M22.5 32C15.5728 32 10 26.4272 10 19.5C10 12.5728 15.5728 7 22.5 7C29.4272 7 35 12.5728 35 19.5C35 26.4272 29.4272 32 22.5 32ZM22.5 27.0522L23.4375 26.1147L22.5 22.5209L21.5625 26.1147L22.5 27.0522ZM21.3022 27L20.8334 28.7709L21.9272 27.6772L21.3022 27ZM23.6978 27L23.0728 27.625L24.1666 28.7188L23.6978 27ZM24.5834 30.2291L22.5 28.1459L20.4166 30.2291C21.0938 30.3334 21.7709 30.4375 22.5 30.4375C23.2291 30.4375 23.9062 30.3853 24.5834 30.2291ZM22.5 8.5625C16.4584 8.5625 11.5625 13.4584 11.5625 19.5C11.5625 24.2916 14.6353 28.3541 18.9062 29.8125L21.25 21.1147C20.7291 20.75 20.4166 20.125 20.4166 19.4478C20.4166 18.3022 21.3541 17.3647 22.5 17.3647C23.6459 17.3647 24.5834 18.3022 24.5834 19.4478C24.5834 20.125 24.2709 20.6978 23.75 21.1147L26.0938 29.8125C30.3647 28.3541 33.4375 24.2916 33.4375 19.5C33.4375 13.4584 28.5416 8.5625 22.5 8.5625ZM29.6353 24.9166C29.375 25.2291 28.9062 25.3334 28.5416 25.0728C28.1772 24.8125 28.125 24.3438 28.3853 24.0312C28.3853 24.0312 29.7916 22.1562 29.7916 19.5C29.7916 16.8438 28.3853 14.9688 28.3853 14.9688C28.125 14.6562 28.1772 14.1875 28.5416 13.9272C28.9062 13.6666 29.375 13.7709 29.6353 14.0834C29.7397 14.1875 31.3541 16.3228 31.3541 19.5C31.3541 22.6772 29.7397 24.8125 29.6353 24.9166ZM25.8334 22.8853C25.5209 22.5728 25.5728 22 25.8853 21.6875C25.8853 21.6875 26.6666 20.8541 26.6666 19.5C26.6666 18.1459 25.8853 17.3647 25.8853 17.3125C25.5728 17 25.5728 16.4791 25.8334 16.1147C26.1459 15.75 26.6147 15.75 26.9272 16.0625C26.9791 16.1147 28.2291 17.4166 28.2291 19.5C28.2291 21.5834 26.9791 22.8853 26.9272 22.9375C26.6147 23.25 26.1459 23.1978 25.8334 22.8853ZM19.1666 22.8853C18.8541 23.1978 18.3853 23.25 18.0728 22.9375C18.0209 22.8334 16.7709 21.5834 16.7709 19.5C16.7709 17.4166 18.0209 16.1666 18.0728 16.0625C18.3853 15.75 18.9062 15.75 19.1666 16.1147C19.4791 16.4272 19.4272 17 19.1147 17.3125C19.1147 17.3647 18.3334 18.1459 18.3334 19.5C18.3334 20.8541 19.1147 21.6875 19.1147 21.6875C19.4272 22 19.4791 22.5209 19.1666 22.8853ZM16.4584 25.0728C16.0938 25.3334 15.625 25.2291 15.3647 24.9166C15.2603 24.8125 13.6459 22.6772 13.6459 19.5C13.6459 16.3228 15.2603 14.1875 15.3647 14.0834C15.625 13.7709 16.0938 13.6666 16.4584 13.9272C16.8228 14.1875 16.875 14.6562 16.6147 14.9688C16.6147 14.9688 15.2084 16.8438 15.2084 19.5C15.2084 22.1562 16.6147 24.0312 16.6147 24.0312C16.875 24.3438 16.7709 24.8125 16.4584 25.0728Z" fill="#FC7E0F"/>
<path d="M48.2832 31.1992C51.728 31.1992 53.8945 28.8252 53.8945 25.0151C53.8945 21.2051 51.728 18.8228 48.2832 18.8228C44.8301 18.8228 42.6719 21.2051 42.6719 25.0151C42.6719 28.8252 44.8301 31.1992 48.2832 31.1992ZM48.2832 29.564C46.0088 29.564 44.5728 27.8042 44.5728 25.0151C44.5728 22.2178 46.0088 20.458 48.2832 20.458C50.5576 20.458 51.9854 22.2178 51.9854 25.0151C51.9854 27.8042 50.5576 29.564 48.2832 29.564ZM59.7715 31L62.9009 22.2676H61.0249L58.8335 29.2485H58.8003L56.6089 22.2676H54.6997L57.8457 31H59.7715ZM67.6572 31.166C69.6577 31.166 71.1685 30.0288 71.4175 28.4351H69.7158C69.4751 29.1987 68.7197 29.7134 67.6987 29.7134C66.2627 29.7134 65.3496 28.709 65.3496 27.1899V27.082H71.5171V26.4678C71.5171 23.8198 70.0063 22.1099 67.5825 22.1099C65.1172 22.1099 63.54 23.936 63.54 26.6753C63.54 29.4312 65.0923 31.166 67.6572 31.166ZM69.7241 25.8286H65.3579C65.4492 24.5088 66.3291 23.5542 67.5825 23.5542C68.8359 23.5542 69.6826 24.4922 69.7241 25.8286ZM74.6963 31V25.7705C74.6963 24.5337 75.4102 23.7617 76.564 23.7617C76.9126 23.7617 77.228 23.8032 77.3691 23.8613V22.1929C77.2363 22.168 77.0122 22.1265 76.7549 22.1265C75.7256 22.1265 74.9453 22.7324 74.6548 23.7534H74.6133V22.2676H72.9033V31H74.6963ZM82.2168 31.166C84.3169 31.166 85.8027 29.9043 85.9937 28.0449H84.2671C84.0596 29.0576 83.3374 29.6636 82.2334 29.6636C80.8389 29.6636 79.9175 28.5513 79.9175 26.6338C79.9175 24.7578 80.8306 23.604 82.2168 23.604C83.3872 23.604 84.0845 24.3428 84.2671 25.2725H85.9771C85.8193 23.5542 84.4497 22.1099 82.2002 22.1099C79.7183 22.1099 78.0913 23.8613 78.0913 26.6338C78.0913 29.4561 79.7183 31.166 82.2168 31.166ZM89.8203 31.1494C90.9658 31.1494 92.0698 30.5352 92.5762 29.564H92.6177V31H94.3359V24.9819C94.3359 23.2305 92.9829 22.1099 90.8662 22.1099C88.708 22.1099 87.3633 23.272 87.2637 24.8491H88.957C89.1147 24.0688 89.7622 23.5708 90.7998 23.5708C91.8955 23.5708 92.5513 24.1519 92.5513 25.123V25.7954L90.1606 25.9365C88.0854 26.0527 86.915 26.9907 86.915 28.5181C86.915 30.0869 88.1104 31.1494 89.8203 31.1494ZM90.3184 29.73C89.3555 29.73 88.7246 29.2319 88.7246 28.4683C88.7246 27.7212 89.3306 27.248 90.4014 27.1733L92.5513 27.0405V27.7295C92.5513 28.8667 91.5718 29.73 90.3184 29.73ZM99.3496 31.166C101.408 31.166 102.894 30.0703 102.894 28.4766C102.894 27.2148 102.213 26.5176 100.429 26.1025L99.0093 25.7788C98.063 25.563 97.6646 25.1895 97.6646 24.6416C97.6646 23.9443 98.312 23.4712 99.2832 23.4712C100.288 23.4712 100.91 24.0024 101.01 24.8491H102.695C102.637 23.2388 101.317 22.1099 99.2832 22.1099C97.2744 22.1099 95.9131 23.1807 95.9131 24.7412C95.9131 26.0112 96.7349 26.8081 98.395 27.1899L99.8145 27.522C100.769 27.7378 101.093 28.0698 101.093 28.6343C101.093 29.3481 100.429 29.7964 99.3496 29.7964C98.2539 29.7964 97.6313 29.3481 97.4653 28.4351H95.689C95.855 30.0952 97.1665 31.166 99.3496 31.166ZM107.26 31.0581C107.659 31.0581 108.057 31.0249 108.256 30.9751V29.5557C108.14 29.5806 107.85 29.5972 107.667 29.5972C106.937 29.5972 106.604 29.2568 106.604 28.5015V23.687H108.265V22.2676H106.604V20.2007H104.803V22.2676H103.533V23.687H104.803V28.7007C104.803 30.3857 105.492 31.0581 107.26 31.0581Z" fill="white"/>
</g>
<defs>
<clipPath id="clip0_23231_96513">
<rect width="160" height="40" fill="white"/>
</clipPath>
</defs>
</svg>
