<svg width="160" height="40" viewBox="0 0 160 40" fill="none" xmlns="http://www.w3.org/2000/svg">
<g clip-path="url(#clip0_23231_96522)">
<path d="M7 0.5H153C156.59 0.5 159.5 3.41015 159.5 7V33C159.5 36.5899 156.59 39.5 153 39.5H7C3.41015 39.5 0.5 36.5899 0.5 33V7C0.5 3.41015 3.41015 0.5 7 0.5Z" fill="black" stroke="#A6A6A6"/>
<path d="M43 14.8958V9.1042H43.9102V14.1317H46.6681V14.8958H43ZM48.0087 9.99855C47.7266 9.99855 47.4808 9.78148 47.4808 9.50362C47.4808 9.22576 47.7266 9 48.0087 9C48.3 9 48.5366 9.22576 48.5366 9.50362C48.5366 9.78148 48.3 9.99855 48.0087 9.99855ZM47.6082 14.8958V10.7019H48.4274V14.8958H47.6082ZM49.3039 14.3488L49.6952 13.7757C49.9956 14.0883 50.5781 14.3748 51.1698 14.3748C51.7887 14.3748 52.1164 14.1317 52.1164 13.7757C52.1164 13.3589 51.6157 13.22 51.0514 13.0984C50.3051 12.9334 49.4313 12.7424 49.4313 11.8394C49.4313 11.1708 50.032 10.5977 51.106 10.5977C51.8615 10.5977 52.4076 10.8582 52.7808 11.1968L52.4167 11.7438C52.1619 11.4486 51.6704 11.2315 51.1151 11.2315C50.5599 11.2315 50.2141 11.4399 50.2141 11.7786C50.2141 12.1433 50.6874 12.2648 51.2335 12.3864C51.998 12.5514 52.9082 12.7511 52.9082 13.7149C52.9082 14.4356 52.2893 15 51.1333 15C50.3961 15 49.7499 14.7829 49.3039 14.3488ZM55.1136 15C54.4218 15 54.0668 14.6266 54.0668 13.9667V11.3878H53.3387V10.7019H54.0668V9.55572H54.886V10.7019H55.778V11.3878H54.886V13.7931C54.886 14.0883 55.0316 14.3054 55.3138 14.3054C55.5049 14.3054 55.6779 14.2272 55.7598 14.1404L55.9691 14.7308C55.7962 14.8871 55.5413 15 55.1136 15ZM56.3723 12.7945C56.3723 11.5789 57.2916 10.5977 58.5749 10.5977C59.8947 10.5977 60.7139 11.5789 60.7139 12.864V13.055H57.237C57.3007 13.767 57.8468 14.3575 58.7297 14.3575C59.1939 14.3575 59.7036 14.1838 60.0313 13.8625L60.4135 14.3748C59.9766 14.7829 59.3577 15 58.6478 15C57.3371 15 56.3723 14.1143 56.3723 12.7945ZM58.5749 11.2402C57.6921 11.2402 57.2734 11.9175 57.2279 12.4906H59.9129C59.8947 11.9349 59.5033 11.2402 58.5749 11.2402ZM64.6668 14.8958V12.2127C64.6668 11.5181 64.2936 11.2923 63.7293 11.2923C63.2196 11.2923 62.7554 11.5876 62.5187 11.9001V14.8958H61.6996V10.7019H62.5187V11.2923C62.81 10.9537 63.3925 10.5977 64.0752 10.5977C65.0036 10.5977 65.486 11.0666 65.486 11.9522V14.8958H64.6668ZM70.998 15C69.6327 15 68.7771 14.0101 68.7771 12.7945C68.7771 11.5876 69.6327 10.5977 70.998 10.5977C72.3723 10.5977 73.2188 11.5876 73.2188 12.7945C73.2188 14.0101 72.3723 15 70.998 15ZM70.998 14.3054C71.8808 14.3054 72.3633 13.5933 72.3633 12.7945C72.3633 12.0043 71.8808 11.2923 70.998 11.2923C70.1242 11.2923 69.6327 12.0043 69.6327 12.7945C69.6327 13.5933 70.1242 14.3054 70.998 14.3054ZM77.1808 14.8958V12.2127C77.1808 11.5181 76.8076 11.2923 76.2433 11.2923C75.7336 11.2923 75.2694 11.5876 75.0328 11.9001V14.8958H74.2136V10.7019H75.0328V11.2923C75.324 10.9537 75.9066 10.5977 76.5892 10.5977C77.5176 10.5977 78 11.0666 78 11.9522V14.8958H77.1808Z" fill="white"/>
<path d="M44.9629 31V26.9077H47.5361C49.8853 26.9077 51.5371 25.2974 51.5371 22.9565C51.5371 20.624 49.9185 19.022 47.5942 19.022H43.1035V31H44.9629ZM47.0962 25.3472H44.9629V20.5908H47.1045C48.7148 20.5908 49.6362 21.4541 49.6362 22.9648C49.6362 24.4756 48.7148 25.3472 47.0962 25.3472ZM55.5049 31.1494C56.6504 31.1494 57.7544 30.5352 58.2607 29.564H58.3022V31H60.0205V24.9819C60.0205 23.2305 58.6675 22.1099 56.5508 22.1099C54.3926 22.1099 53.0479 23.272 52.9482 24.8491H54.6416C54.7993 24.0688 55.4468 23.5708 56.4844 23.5708C57.5801 23.5708 58.2358 24.1519 58.2358 25.123V25.7954L55.8452 25.9365C53.77 26.0527 52.5996 26.9907 52.5996 28.5181C52.5996 30.0869 53.7949 31.1494 55.5049 31.1494ZM56.0029 29.73C55.04 29.73 54.4092 29.2319 54.4092 28.4683C54.4092 27.7212 55.0151 27.248 56.0859 27.1733L58.2358 27.0405V27.7295C58.2358 28.8667 57.2563 29.73 56.0029 29.73ZM63.5483 31V25.9116C63.5483 24.5586 64.3618 23.6621 65.6235 23.6621C66.8687 23.6621 67.4829 24.3843 67.4829 25.6958V31H69.2842V25.3472C69.2842 23.3467 68.1802 22.1182 66.2544 22.1182C64.9097 22.1182 63.98 22.7324 63.5068 23.7285H63.4653V22.2676H61.7554V31H63.5483ZM74.2896 31.1494C75.5596 31.1494 76.5557 30.5103 77.0703 29.5142H77.1035V31H78.8467V19.022H77.0454V23.7202H77.0122C76.5225 22.7573 75.5264 22.1265 74.2729 22.1265C72.0815 22.1265 70.6206 23.8779 70.6206 26.6338C70.6206 29.3896 72.0815 31.1494 74.2896 31.1494ZM74.7627 29.6304C73.3433 29.6304 72.4551 28.4766 72.4551 26.6338C72.4551 24.7993 73.3433 23.6372 74.7627 23.6372C76.1406 23.6372 77.062 24.8242 77.062 26.6338C77.062 28.46 76.1406 29.6304 74.7627 29.6304ZM84.4331 31.166C86.9316 31.166 88.5752 29.4478 88.5752 26.6338C88.5752 23.8281 86.9233 22.1099 84.4331 22.1099C81.9429 22.1099 80.291 23.8281 80.291 26.6338C80.291 29.4478 81.9346 31.166 84.4331 31.166ZM84.4331 29.6885C83.0303 29.6885 82.1172 28.5762 82.1172 26.6338C82.1172 24.6997 83.0303 23.5874 84.4331 23.5874C85.8359 23.5874 86.749 24.6997 86.749 26.6338C86.749 28.5762 85.8442 29.6885 84.4331 29.6885ZM91.7544 31V25.7705C91.7544 24.5337 92.4683 23.7617 93.6221 23.7617C93.9707 23.7617 94.2861 23.8032 94.4272 23.8613V22.1929C94.2944 22.168 94.0703 22.1265 93.813 22.1265C92.7837 22.1265 92.0034 22.7324 91.7129 23.7534H91.6714V22.2676H89.9614V31H91.7544ZM98.0962 31.1494C99.2417 31.1494 100.346 30.5352 100.852 29.564H100.894V31H102.612V24.9819C102.612 23.2305 101.259 22.1099 99.1421 22.1099C96.9839 22.1099 95.6392 23.272 95.5396 24.8491H97.2329C97.3906 24.0688 98.0381 23.5708 99.0757 23.5708C100.171 23.5708 100.827 24.1519 100.827 25.123V25.7954L98.4365 25.9365C96.3613 26.0527 95.1909 26.9907 95.1909 28.5181C95.1909 30.0869 96.3862 31.1494 98.0962 31.1494ZM98.5942 29.73C97.6313 29.73 97.0005 29.2319 97.0005 28.4683C97.0005 27.7212 97.6064 27.248 98.6772 27.1733L100.827 27.0405V27.7295C100.827 28.8667 99.8477 29.73 98.5942 29.73Z" fill="white"/>
<path d="M34.947 15.1301C34.5125 10.5921 30.4264 7.0376 25.6433 7.0376H14.0098V30.9626H20.0036C20.8292 30.9626 21.5019 30.2925 21.5019 29.467V24.9811H25.9972C28.5249 24.9811 30.9509 23.9107 32.65 22.0427C34.3761 20.1499 35.1912 17.6949 34.947 15.1301Z" fill="#2299F8"/>
</g>
<defs>
<clipPath id="clip0_23231_96522">
<rect width="160" height="40" fill="white"/>
</clipPath>
</defs>
</svg>
