<svg width="160" height="40" viewBox="0 0 160 40" fill="none" xmlns="http://www.w3.org/2000/svg">
<g clip-path="url(#clip0_23231_96532)">
<path d="M7 0.5H153C156.59 0.5 159.5 3.41015 159.5 7V33C159.5 36.5899 156.59 39.5 153 39.5H7C3.41015 39.5 0.5 36.5899 0.5 33V7C0.5 3.41015 3.41015 0.5 7 0.5Z" fill="black" stroke="#A6A6A6"/>
<path d="M43 14.8958V9.1042H43.9102V14.1317H46.6681V14.8958H43ZM48.0087 9.99855C47.7266 9.99855 47.4808 9.78148 47.4808 9.50362C47.4808 9.22576 47.7266 9 48.0087 9C48.3 9 48.5366 9.22576 48.5366 9.50362C48.5366 9.78148 48.3 9.99855 48.0087 9.99855ZM47.6082 14.8958V10.7019H48.4274V14.8958H47.6082ZM49.3039 14.3488L49.6952 13.7757C49.9956 14.0883 50.5781 14.3748 51.1698 14.3748C51.7887 14.3748 52.1164 14.1317 52.1164 13.7757C52.1164 13.3589 51.6157 13.22 51.0514 13.0984C50.3051 12.9334 49.4313 12.7424 49.4313 11.8394C49.4313 11.1708 50.032 10.5977 51.106 10.5977C51.8615 10.5977 52.4076 10.8582 52.7808 11.1968L52.4167 11.7438C52.1619 11.4486 51.6704 11.2315 51.1151 11.2315C50.5599 11.2315 50.2141 11.4399 50.2141 11.7786C50.2141 12.1433 50.6874 12.2648 51.2335 12.3864C51.998 12.5514 52.9082 12.7511 52.9082 13.7149C52.9082 14.4356 52.2893 15 51.1333 15C50.3961 15 49.7499 14.7829 49.3039 14.3488ZM55.1136 15C54.4218 15 54.0668 14.6266 54.0668 13.9667V11.3878H53.3387V10.7019H54.0668V9.55572H54.886V10.7019H55.778V11.3878H54.886V13.7931C54.886 14.0883 55.0316 14.3054 55.3138 14.3054C55.5049 14.3054 55.6779 14.2272 55.7598 14.1404L55.9691 14.7308C55.7962 14.8871 55.5413 15 55.1136 15ZM56.3723 12.7945C56.3723 11.5789 57.2916 10.5977 58.5749 10.5977C59.8947 10.5977 60.7139 11.5789 60.7139 12.864V13.055H57.237C57.3007 13.767 57.8468 14.3575 58.7297 14.3575C59.1939 14.3575 59.7036 14.1838 60.0313 13.8625L60.4135 14.3748C59.9766 14.7829 59.3577 15 58.6478 15C57.3371 15 56.3723 14.1143 56.3723 12.7945ZM58.5749 11.2402C57.6921 11.2402 57.2734 11.9175 57.2279 12.4906H59.9129C59.8947 11.9349 59.5033 11.2402 58.5749 11.2402ZM64.6668 14.8958V12.2127C64.6668 11.5181 64.2936 11.2923 63.7293 11.2923C63.2196 11.2923 62.7554 11.5876 62.5187 11.9001V14.8958H61.6996V10.7019H62.5187V11.2923C62.81 10.9537 63.3925 10.5977 64.0752 10.5977C65.0036 10.5977 65.486 11.0666 65.486 11.9522V14.8958H64.6668ZM70.998 15C69.6327 15 68.7771 14.0101 68.7771 12.7945C68.7771 11.5876 69.6327 10.5977 70.998 10.5977C72.3723 10.5977 73.2188 11.5876 73.2188 12.7945C73.2188 14.0101 72.3723 15 70.998 15ZM70.998 14.3054C71.8808 14.3054 72.3633 13.5933 72.3633 12.7945C72.3633 12.0043 71.8808 11.2923 70.998 11.2923C70.1242 11.2923 69.6327 12.0043 69.6327 12.7945C69.6327 13.5933 70.1242 14.3054 70.998 14.3054ZM77.1808 14.8958V12.2127C77.1808 11.5181 76.8076 11.2923 76.2433 11.2923C75.7336 11.2923 75.2694 11.5876 75.0328 11.9001V14.8958H74.2136V10.7019H75.0328V11.2923C75.324 10.9537 75.9066 10.5977 76.5892 10.5977C77.5176 10.5977 78 11.0666 78 11.9522V14.8958H77.1808Z" fill="white"/>
<path d="M44.9629 31V26.9077H47.5361C49.8853 26.9077 51.5371 25.2974 51.5371 22.9565C51.5371 20.624 49.9185 19.022 47.5942 19.022H43.1035V31H44.9629ZM47.0962 25.3472H44.9629V20.5908H47.1045C48.7148 20.5908 49.6362 21.4541 49.6362 22.9648C49.6362 24.4756 48.7148 25.3472 47.0962 25.3472ZM56.7002 31.166C59.1987 31.166 60.8423 29.4478 60.8423 26.6338C60.8423 23.8281 59.1904 22.1099 56.7002 22.1099C54.21 22.1099 52.5581 23.8281 52.5581 26.6338C52.5581 29.4478 54.2017 31.166 56.7002 31.166ZM56.7002 29.6885C55.2974 29.6885 54.3843 28.5762 54.3843 26.6338C54.3843 24.6997 55.2974 23.5874 56.7002 23.5874C58.103 23.5874 59.0161 24.6997 59.0161 26.6338C59.0161 28.5762 58.1113 29.6885 56.7002 29.6885ZM65.9639 31.166C68.064 31.166 69.5498 29.9043 69.7407 28.0449H68.0142C67.8066 29.0576 67.0845 29.6636 65.9805 29.6636C64.5859 29.6636 63.6646 28.5513 63.6646 26.6338C63.6646 24.7578 64.5776 23.604 65.9639 23.604C67.1343 23.604 67.8315 24.3428 68.0142 25.2725H69.7241C69.5664 23.5542 68.1968 22.1099 65.9473 22.1099C63.4653 22.1099 61.8384 23.8613 61.8384 26.6338C61.8384 29.4561 63.4653 31.166 65.9639 31.166ZM72.8701 31V27.8623L73.6172 27.1235L76.5806 31H78.6641L74.9038 26.0278L78.5229 22.2676H76.4146L72.8867 26.0112H72.8701V19.022H71.0771V31H72.8701ZM83.3125 31.166C85.313 31.166 86.8237 30.0288 87.0728 28.4351H85.3711C85.1304 29.1987 84.375 29.7134 83.354 29.7134C81.918 29.7134 81.0049 28.709 81.0049 27.1899V27.082H87.1724V26.4678C87.1724 23.8198 85.6616 22.1099 83.2378 22.1099C80.7725 22.1099 79.1953 23.936 79.1953 26.6753C79.1953 29.4312 80.7476 31.166 83.3125 31.166ZM85.3794 25.8286H81.0132C81.1045 24.5088 81.9844 23.5542 83.2378 23.5542C84.4912 23.5542 85.3379 24.4922 85.3794 25.8286ZM91.5386 31.0581C91.937 31.0581 92.3354 31.0249 92.5347 30.9751V29.5557C92.4185 29.5806 92.1279 29.5972 91.9453 29.5972C91.2148 29.5972 90.8828 29.2568 90.8828 28.5015V23.687H92.543V22.2676H90.8828V20.2007H89.0815V22.2676H87.8115V23.687H89.0815V28.7007C89.0815 30.3857 89.7705 31.0581 91.5386 31.0581ZM102.728 31.1992C105.484 31.1992 107.36 29.7466 107.816 27.2729H105.965C105.592 28.7173 104.405 29.5723 102.736 29.5723C100.537 29.5723 99.1421 27.8042 99.1421 25.0068C99.1421 22.2344 100.553 20.4497 102.728 20.4497C104.355 20.4497 105.633 21.4541 105.965 22.9897H107.808C107.493 20.4912 105.442 18.8228 102.728 18.8228C99.3828 18.8228 97.2412 21.2134 97.2412 25.0068C97.2412 28.8252 99.3662 31.1992 102.728 31.1992ZM111.834 31.1494C112.979 31.1494 114.083 30.5352 114.59 29.564H114.631V31H116.35V24.9819C116.35 23.2305 114.997 22.1099 112.88 22.1099C110.722 22.1099 109.377 23.272 109.277 24.8491H110.971C111.128 24.0688 111.776 23.5708 112.813 23.5708C113.909 23.5708 114.565 24.1519 114.565 25.123V25.7954L112.174 25.9365C110.099 26.0527 108.929 26.9907 108.929 28.5181C108.929 30.0869 110.124 31.1494 111.834 31.1494ZM112.332 29.73C111.369 29.73 110.738 29.2319 110.738 28.4683C110.738 27.7212 111.344 27.248 112.415 27.1733L114.565 27.0405V27.7295C114.565 28.8667 113.585 29.73 112.332 29.73ZM121.363 31.166C123.422 31.166 124.908 30.0703 124.908 28.4766C124.908 27.2148 124.227 26.5176 122.442 26.1025L121.023 25.7788C120.077 25.563 119.678 25.1895 119.678 24.6416C119.678 23.9443 120.326 23.4712 121.297 23.4712C122.301 23.4712 122.924 24.0024 123.023 24.8491H124.708C124.65 23.2388 123.331 22.1099 121.297 22.1099C119.288 22.1099 117.927 23.1807 117.927 24.7412C117.927 26.0112 118.749 26.8081 120.409 27.1899L121.828 27.522C122.783 27.7378 123.106 28.0698 123.106 28.6343C123.106 29.3481 122.442 29.7964 121.363 29.7964C120.268 29.7964 119.645 29.3481 119.479 28.4351H117.703C117.869 30.0952 119.18 31.166 121.363 31.166ZM129.274 31.0581C129.672 31.0581 130.071 31.0249 130.27 30.9751V29.5557C130.154 29.5806 129.863 29.5972 129.681 29.5972C128.95 29.5972 128.618 29.2568 128.618 28.5015V23.687H130.278V22.2676H128.618V20.2007H126.817V22.2676H125.547V23.687H126.817V28.7007C126.817 30.3857 127.506 31.0581 129.274 31.0581ZM135.026 31.166C137.085 31.166 138.571 30.0703 138.571 28.4766C138.571 27.2148 137.89 26.5176 136.105 26.1025L134.686 25.7788C133.74 25.563 133.341 25.1895 133.341 24.6416C133.341 23.9443 133.989 23.4712 134.96 23.4712C135.964 23.4712 136.587 24.0024 136.687 24.8491H138.372C138.313 23.2388 136.994 22.1099 134.96 22.1099C132.951 22.1099 131.59 23.1807 131.59 24.7412C131.59 26.0112 132.412 26.8081 134.072 27.1899L135.491 27.522C136.446 27.7378 136.77 28.0698 136.77 28.6343C136.77 29.3481 136.105 29.7964 135.026 29.7964C133.931 29.7964 133.308 29.3481 133.142 28.4351H131.366C131.532 30.0952 132.843 31.166 135.026 31.166Z" fill="white"/>
<mask id="mask0_23231_96532" style="mask-type:luminance" maskUnits="userSpaceOnUse" x="10" y="7" width="25" height="25">
<path d="M10.0176 7.16211H34.8372V31.982H10.0176V7.16211Z" fill="#F43E37"/>
</mask>
<g mask="url(#mask0_23231_96532)">
<path fill-rule="evenodd" clip-rule="evenodd" d="M34.8375 19.5809C34.8375 26.4398 29.2777 31.9999 22.4187 31.9999C15.5598 31.9999 10 26.4398 10 19.5809C10 12.7222 15.5598 7.16211 22.4187 7.16211C29.2777 7.16211 34.8375 12.7222 34.8375 19.5809Z" fill="#F43E37"/>
</g>
<path fill-rule="evenodd" clip-rule="evenodd" d="M22.5339 25.5603C19.2952 25.5603 16.6696 22.9347 16.6696 19.696C16.6696 16.457 19.2952 13.8314 22.5339 13.8314C25.7729 13.8314 28.3985 16.457 28.3985 19.696H26.266C26.266 17.6347 24.5952 15.9638 22.5339 15.9638C20.4729 15.9638 18.802 17.6347 18.802 19.696C18.802 21.757 20.4729 23.4275 22.5339 23.4275V25.5603ZM12.7598 19.696C12.7598 14.2978 17.136 9.92188 22.5339 9.92188C27.9321 9.92188 32.308 14.2978 32.308 19.696H29.8645C29.8645 15.6475 26.5827 12.3653 22.5339 12.3653C18.4854 12.3653 15.2035 15.6475 15.2035 19.696C15.2035 23.7445 18.4854 27.0263 22.5339 27.0263V29.4701C17.136 29.4701 12.7598 25.0939 12.7598 19.696Z" fill="#FFFFFE"/>
</g>
<defs>
<clipPath id="clip0_23231_96532">
<rect width="160" height="40" fill="white"/>
</clipPath>
</defs>
</svg>
