<svg width="160" height="40" viewBox="0 0 160 40" fill="none" xmlns="http://www.w3.org/2000/svg">
<g clip-path="url(#clip0_23231_96548)">
<path d="M7 0.5H153C156.59 0.5 159.5 3.41015 159.5 7V33C159.5 36.5899 156.59 39.5 153 39.5H7C3.41015 39.5 0.5 36.5899 0.5 33V7C0.5 3.41015 3.41015 0.5 7 0.5Z" fill="black" stroke="#A6A6A6"/>
<path d="M43 14.8958V9.1042H43.9102V14.1317H46.6681V14.8958H43ZM48.0087 9.99855C47.7266 9.99855 47.4808 9.78148 47.4808 9.50362C47.4808 9.22576 47.7266 9 48.0087 9C48.3 9 48.5366 9.22576 48.5366 9.50362C48.5366 9.78148 48.3 9.99855 48.0087 9.99855ZM47.6082 14.8958V10.7019H48.4274V14.8958H47.6082ZM49.3039 14.3488L49.6952 13.7757C49.9956 14.0883 50.5781 14.3748 51.1698 14.3748C51.7887 14.3748 52.1164 14.1317 52.1164 13.7757C52.1164 13.3589 51.6157 13.22 51.0514 13.0984C50.3051 12.9334 49.4313 12.7424 49.4313 11.8394C49.4313 11.1708 50.032 10.5977 51.106 10.5977C51.8615 10.5977 52.4076 10.8582 52.7808 11.1968L52.4167 11.7438C52.1619 11.4486 51.6704 11.2315 51.1151 11.2315C50.5599 11.2315 50.2141 11.4399 50.2141 11.7786C50.2141 12.1433 50.6874 12.2648 51.2335 12.3864C51.998 12.5514 52.9082 12.7511 52.9082 13.7149C52.9082 14.4356 52.2893 15 51.1333 15C50.3961 15 49.7499 14.7829 49.3039 14.3488ZM55.1136 15C54.4218 15 54.0668 14.6266 54.0668 13.9667V11.3878H53.3387V10.7019H54.0668V9.55572H54.886V10.7019H55.778V11.3878H54.886V13.7931C54.886 14.0883 55.0316 14.3054 55.3138 14.3054C55.5049 14.3054 55.6779 14.2272 55.7598 14.1404L55.9691 14.7308C55.7962 14.8871 55.5413 15 55.1136 15ZM56.3723 12.7945C56.3723 11.5789 57.2916 10.5977 58.5749 10.5977C59.8947 10.5977 60.7139 11.5789 60.7139 12.864V13.055H57.237C57.3007 13.767 57.8468 14.3575 58.7297 14.3575C59.1939 14.3575 59.7036 14.1838 60.0313 13.8625L60.4135 14.3748C59.9766 14.7829 59.3577 15 58.6478 15C57.3371 15 56.3723 14.1143 56.3723 12.7945ZM58.5749 11.2402C57.6921 11.2402 57.2734 11.9175 57.2279 12.4906H59.9129C59.8947 11.9349 59.5033 11.2402 58.5749 11.2402ZM64.6668 14.8958V12.2127C64.6668 11.5181 64.2936 11.2923 63.7293 11.2923C63.2196 11.2923 62.7554 11.5876 62.5187 11.9001V14.8958H61.6996V10.7019H62.5187V11.2923C62.81 10.9537 63.3925 10.5977 64.0752 10.5977C65.0036 10.5977 65.486 11.0666 65.486 11.9522V14.8958H64.6668ZM70.998 15C69.6327 15 68.7771 14.0101 68.7771 12.7945C68.7771 11.5876 69.6327 10.5977 70.998 10.5977C72.3723 10.5977 73.2188 11.5876 73.2188 12.7945C73.2188 14.0101 72.3723 15 70.998 15ZM70.998 14.3054C71.8808 14.3054 72.3633 13.5933 72.3633 12.7945C72.3633 12.0043 71.8808 11.2923 70.998 11.2923C70.1242 11.2923 69.6327 12.0043 69.6327 12.7945C69.6327 13.5933 70.1242 14.3054 70.998 14.3054ZM77.1808 14.8958V12.2127C77.1808 11.5181 76.8076 11.2923 76.2433 11.2923C75.7336 11.2923 75.2694 11.5876 75.0328 11.9001V14.8958H74.2136V10.7019H75.0328V11.2923C75.324 10.9537 75.9066 10.5977 76.5892 10.5977C77.5176 10.5977 78 11.0666 78 11.9522V14.8958H77.1808Z" fill="white"/>
<path d="M44.7891 31V27.1484H47.2109C49.4219 27.1484 50.9766 25.6328 50.9766 23.4297C50.9766 21.2344 49.4531 19.7266 47.2656 19.7266H43.0391V31H44.7891ZM46.7969 25.6797H44.7891V21.2031H46.8047C48.3203 21.2031 49.1875 22.0156 49.1875 23.4375C49.1875 24.8594 48.3203 25.6797 46.7969 25.6797ZM55.8359 31.1562C58.1875 31.1562 59.7344 29.5391 59.7344 26.8906C59.7344 24.25 58.1797 22.6328 55.8359 22.6328C53.4922 22.6328 51.9375 24.25 51.9375 26.8906C51.9375 29.5391 53.4844 31.1562 55.8359 31.1562ZM55.8359 29.7656C54.5156 29.7656 53.6562 28.7188 53.6562 26.8906C53.6562 25.0703 54.5156 24.0234 55.8359 24.0234C57.1562 24.0234 58.0156 25.0703 58.0156 26.8906C58.0156 28.7188 57.1641 29.7656 55.8359 29.7656ZM64.125 31.1406C65.3203 31.1406 66.2578 30.5391 66.7422 29.6016H66.7734V31H68.4141V19.7266H66.7188V24.1484H66.6875C66.2266 23.2422 65.2891 22.6484 64.1094 22.6484C62.0469 22.6484 60.6719 24.2969 60.6719 26.8906C60.6719 29.4844 62.0469 31.1406 64.125 31.1406ZM64.5703 29.7109C63.2344 29.7109 62.3984 28.625 62.3984 26.8906C62.3984 25.1641 63.2344 24.0703 64.5703 24.0703C65.8672 24.0703 66.7344 25.1875 66.7344 26.8906C66.7344 28.6094 65.8672 29.7109 64.5703 29.7109ZM73.6562 31.1562C75.6328 31.1562 77.0312 29.9688 77.2109 28.2188H75.5859C75.3906 29.1719 74.7109 29.7422 73.6719 29.7422C72.3594 29.7422 71.4922 28.6953 71.4922 26.8906C71.4922 25.125 72.3516 24.0391 73.6562 24.0391C74.7578 24.0391 75.4141 24.7344 75.5859 25.6094H77.1953C77.0469 23.9922 75.7578 22.6328 73.6406 22.6328C71.3047 22.6328 69.7734 24.2812 69.7734 26.8906C69.7734 29.5469 71.3047 31.1562 73.6562 31.1562ZM80.8125 31.1406C81.8906 31.1406 82.9297 30.5625 83.4062 29.6484H83.4453V31H85.0625V25.3359C85.0625 23.6875 83.7891 22.6328 81.7969 22.6328C79.7656 22.6328 78.5 23.7266 78.4062 25.2109H80C80.1484 24.4766 80.7578 24.0078 81.7344 24.0078C82.7656 24.0078 83.3828 24.5547 83.3828 25.4688V26.1016L81.1328 26.2344C79.1797 26.3438 78.0781 27.2266 78.0781 28.6641C78.0781 30.1406 79.2031 31.1406 80.8125 31.1406ZM81.2812 29.8047C80.375 29.8047 79.7812 29.3359 79.7812 28.6172C79.7812 27.9141 80.3516 27.4688 81.3594 27.3984L83.3828 27.2734V27.9219C83.3828 28.9922 82.4609 29.8047 81.2812 29.8047ZM89.7812 31.1562C91.7188 31.1562 93.1172 30.125 93.1172 28.625C93.1172 27.4375 92.4766 26.7812 90.7969 26.3906L89.4609 26.0859C88.5703 25.8828 88.1953 25.5312 88.1953 25.0156C88.1953 24.3594 88.8047 23.9141 89.7188 23.9141C90.6641 23.9141 91.25 24.4141 91.3438 25.2109H92.9297C92.875 23.6953 91.6328 22.6328 89.7188 22.6328C87.8281 22.6328 86.5469 23.6406 86.5469 25.1094C86.5469 26.3047 87.3203 27.0547 88.8828 27.4141L90.2188 27.7266C91.1172 27.9297 91.4219 28.2422 91.4219 28.7734C91.4219 29.4453 90.7969 29.8672 89.7812 29.8672C88.75 29.8672 88.1641 29.4453 88.0078 28.5859H86.3359C86.4922 30.1484 87.7266 31.1562 89.7812 31.1562ZM97.2266 31.0547C97.6016 31.0547 97.9766 31.0234 98.1641 30.9766V29.6406C98.0547 29.6641 97.7812 29.6797 97.6094 29.6797C96.9219 29.6797 96.6094 29.3594 96.6094 28.6484V24.1172H98.1719V22.7812H96.6094V20.8359H94.9141V22.7812H93.7188V24.1172H94.9141V28.8359C94.9141 30.4219 95.5625 31.0547 97.2266 31.0547ZM103.984 31L105.016 27.9531H109.312L110.344 31H112.195L108.125 19.7266H106.234L102.164 31H103.984ZM108.867 26.5469H105.461L107.141 21.6016H107.188L108.867 26.5469ZM116.32 31.1406C117.516 31.1406 118.453 30.5391 118.938 29.6016H118.969V31H120.609V19.7266H118.914V24.1484H118.883C118.422 23.2422 117.484 22.6484 116.305 22.6484C114.242 22.6484 112.867 24.2969 112.867 26.8906C112.867 29.4844 114.242 31.1406 116.32 31.1406ZM116.766 29.7109C115.43 29.7109 114.594 28.625 114.594 26.8906C114.594 25.1641 115.43 24.0703 116.766 24.0703C118.062 24.0703 118.93 25.1875 118.93 26.8906C118.93 28.6094 118.062 29.7109 116.766 29.7109ZM125.422 31.1406C126.617 31.1406 127.555 30.5391 128.039 29.6016H128.07V31H129.711V19.7266H128.016V24.1484H127.984C127.523 23.2422 126.586 22.6484 125.406 22.6484C123.344 22.6484 121.969 24.2969 121.969 26.8906C121.969 29.4844 123.344 31.1406 125.422 31.1406ZM125.867 29.7109C124.531 29.7109 123.695 28.625 123.695 26.8906C123.695 25.1641 124.531 24.0703 125.867 24.0703C127.164 24.0703 128.031 25.1875 128.031 26.8906C128.031 28.6094 127.164 29.7109 125.867 29.7109ZM132.336 21.4531C132.875 21.4531 133.305 21.0156 133.305 20.4844C133.305 19.9453 132.875 19.5156 132.336 19.5156C131.797 19.5156 131.359 19.9453 131.359 20.4844C131.359 21.0156 131.797 21.4531 132.336 21.4531ZM133.18 31V22.7812H131.492V31H133.18ZM138.422 31.1562C140.398 31.1562 141.797 29.9688 141.977 28.2188H140.352C140.156 29.1719 139.477 29.7422 138.438 29.7422C137.125 29.7422 136.258 28.6953 136.258 26.8906C136.258 25.125 137.117 24.0391 138.422 24.0391C139.523 24.0391 140.18 24.7344 140.352 25.6094H141.961C141.812 23.9922 140.523 22.6328 138.406 22.6328C136.07 22.6328 134.539 24.2812 134.539 26.8906C134.539 29.5469 136.07 31.1562 138.422 31.1562ZM145.977 31.0547C146.352 31.0547 146.727 31.0234 146.914 30.9766V29.6406C146.805 29.6641 146.531 29.6797 146.359 29.6797C145.672 29.6797 145.359 29.3594 145.359 28.6484V24.1172H146.922V22.7812H145.359V20.8359H143.664V22.7812H142.469V24.1172H143.664V28.8359C143.664 30.4219 144.312 31.0547 145.977 31.0547Z" fill="white"/>
<path d="M31 8H14C11.7909 8 10 9.79086 10 12V29C10 31.2091 11.7909 33 14 33H31C33.2091 33 35 31.2091 35 29V12C35 9.79086 33.2091 8 31 8Z" fill="#F3842D"/>
</g>
<defs>
<clipPath id="clip0_23231_96548">
<rect width="160" height="40" fill="white"/>
</clipPath>
</defs>
</svg>
