<svg width="160" height="40" viewBox="0 0 160 40" fill="none" xmlns="http://www.w3.org/2000/svg">
<path d="M7 0.5H153C156.59 0.5 159.5 3.41015 159.5 7V33C159.5 36.5899 156.59 39.5 153 39.5H7C3.41015 39.5 0.5 36.5899 0.5 33V7C0.5 3.41015 3.41015 0.5 7 0.5Z" fill="black" stroke="#A6A6A6"/>
<path d="M18 11H10V26H18V11Z" fill="white"/>
<path d="M28 14H20V29H28V14Z" fill="white"/>
<path fill-rule="evenodd" clip-rule="evenodd" d="M30.2315 31.2796C25.967 29.303 21.7024 33.2562 17.4375 31.2796V11.512C21.702 13.4886 25.9665 9.53538 30.2315 11.512V31.2796ZM23.3117 20.679V17.0407C23.4594 17.0073 23.6068 16.9731 23.7545 16.9389C24.3043 16.8116 24.3571 17.0952 24.3571 17.5624V19.7108C24.3563 20.1096 24.3039 20.4498 23.7545 20.5772C23.6068 20.6114 23.4594 20.6456 23.3117 20.679ZM23.3117 22.7753C23.6838 22.6906 24.0558 22.6023 24.4279 22.5185C26.0763 22.142 26.7314 21.1238 26.731 19.5224V16.941C26.7301 15.3664 26.3056 14.3665 24.3039 14.8199C23.1877 15.0742 22.0715 15.3587 20.9553 15.46V28.3495C21.7411 28.2783 22.5264 28.1163 23.3117 27.938V22.7753Z" fill="#CE262F"/>
<path fill-rule="evenodd" clip-rule="evenodd" d="M20.9683 28.3605C20.9683 28.3605 20.7702 29.4589 17.4375 31.2793V20.6001L20.9683 28.3605Z" fill="#992326"/>
<path fill-rule="evenodd" clip-rule="evenodd" d="M20.9555 28.3382C16.6368 26.3615 12.3186 30.3148 8 28.3382V8.57061C12.3186 10.5472 16.6368 6.59397 20.9555 8.57061V28.3382ZM13.9219 17.3622V14.1053C14.0992 14.0658 14.2761 14.0251 14.4533 13.9844C14.9319 13.8749 15.0381 14.0251 15.0377 14.5794V16.3289C15.0385 16.9353 14.8604 17.1477 14.3826 17.2576C14.229 17.2926 14.0755 17.328 13.9219 17.3622ZM13.9219 25.0022V19.4931C14.0871 19.4561 14.2527 19.4182 14.418 19.3804C14.8962 19.2709 15.0368 19.3962 15.0377 20.0018V23.7614C15.0381 24.3327 15.1271 24.5899 15.2507 24.7019C16.0361 24.5297 16.8214 24.3812 17.6067 24.327V24.2404C17.5172 24.0906 17.4119 23.857 17.4119 23.3027V18.9197C17.4128 17.9625 16.7743 17.5974 16.4023 17.5274C16.8451 17.2568 17.4481 16.7306 17.4473 15.6595V13.5982C17.4469 12.2161 16.7215 11.486 15.2861 11.8047C14.0459 12.0753 12.8057 12.4066 11.5655 12.5185V25.4079C12.3513 25.3371 13.1366 25.178 13.9219 25.0022Z" fill="#CE262F"/>
<path fill-rule="evenodd" clip-rule="evenodd" d="M44.9925 29.712L43.1445 26.492H42.0805V29.712H39.8405V19.912H43.7605C45.6225 19.912 47.1205 21.41 47.1205 23.272C47.1205 24.476 46.3925 25.568 45.3145 26.114L47.4005 29.712H44.9925ZM42.0805 22.012V24.532H43.7605C44.3765 24.532 44.8805 23.986 44.8805 23.272C44.8805 22.558 44.3765 22.012 43.7605 22.012H42.0805ZM52.8125 22.712H54.9125V29.712H52.8125V29.054C52.3505 29.586 51.6645 29.908 50.7265 29.908C48.8925 29.908 47.3805 28.298 47.3805 26.212C47.3805 24.126 48.8925 22.516 50.7265 22.516C51.6645 22.516 52.3505 22.838 52.8125 23.37V22.712ZM51.1465 27.92C52.1125 27.92 52.8125 27.262 52.8125 26.212C52.8125 25.162 52.1125 24.504 51.1465 24.504C50.1805 24.504 49.4805 25.162 49.4805 26.212C49.4805 27.262 50.1805 27.92 51.1465 27.92ZM61.2345 19.912H63.3345V29.712H61.2345V29.054C60.7725 29.586 60.0865 29.908 59.1485 29.908C57.3145 29.908 55.8025 28.298 55.8025 26.212C55.8025 24.126 57.3145 22.516 59.1485 22.516C60.0865 22.516 60.7725 22.838 61.2345 23.37V19.912ZM59.5685 27.92C60.5345 27.92 61.2345 27.262 61.2345 26.212C61.2345 25.162 60.5345 24.504 59.5685 24.504C58.6025 24.504 57.9025 25.162 57.9025 26.212C57.9025 27.262 58.6025 27.92 59.5685 27.92ZM65.6245 22.096C64.9385 22.096 64.3645 21.522 64.3645 20.836C64.3645 20.15 64.9385 19.576 65.6245 19.576C66.3105 19.576 66.8845 20.15 66.8845 20.836C66.8845 21.522 66.3105 22.096 65.6245 22.096ZM64.5745 29.712V22.712H66.6745V29.712H64.5745ZM71.2745 29.908C69.2165 29.908 67.5645 28.298 67.5645 26.212C67.5645 24.126 69.2165 22.516 71.2745 22.516C73.3325 22.516 74.9845 24.126 74.9845 26.212C74.9845 28.298 73.3325 29.908 71.2745 29.908ZM71.2745 27.864C72.1845 27.864 72.8845 27.206 72.8845 26.212C72.8845 25.218 72.1845 24.56 71.2745 24.56C70.3645 24.56 69.6645 25.218 69.6645 26.212C69.6645 27.206 70.3645 27.864 71.2745 27.864ZM79.6545 19.912C81.5865 19.912 83.0845 21.41 83.0845 23.272C83.0845 25.134 81.5865 26.632 79.6545 26.632H78.1845V29.712H75.9445V19.912H79.6545ZM79.6545 24.532C80.3405 24.532 80.8445 23.986 80.8445 23.272C80.8445 22.558 80.3405 22.012 79.6545 22.012H78.1845V24.532H79.6545ZM88.3565 22.712H90.4565V29.712H88.3565V29.054C87.9785 29.572 87.2785 29.908 86.3545 29.908C84.9405 29.908 83.7365 28.9 83.7365 27.01V22.712H85.8365V26.702C85.8365 27.57 86.3825 27.976 87.0545 27.976C87.8245 27.976 88.3565 27.528 88.3565 26.534V22.712ZM95.8825 22.516C97.7165 22.516 99.2285 24.126 99.2285 26.212C99.2285 28.298 97.7165 29.908 95.8825 29.908C94.9445 29.908 94.2585 29.586 93.7965 29.054V29.712H91.6965V19.912H93.7965V23.37C94.2585 22.838 94.9445 22.516 95.8825 22.516ZM95.4625 27.92C96.4285 27.92 97.1285 27.262 97.1285 26.212C97.1285 25.162 96.4285 24.504 95.4625 24.504C94.4965 24.504 93.7965 25.162 93.7965 26.212C93.7965 27.262 94.4965 27.92 95.4625 27.92ZM100.118 29.712V19.492H102.218V29.712H100.118ZM104.508 22.096C103.822 22.096 103.248 21.522 103.248 20.836C103.248 20.15 103.822 19.576 104.508 19.576C105.194 19.576 105.768 20.15 105.768 20.836C105.768 21.522 105.194 22.096 104.508 22.096ZM103.458 29.712V22.712H105.558V29.712H103.458ZM110.158 29.908C108.03 29.908 106.448 28.298 106.448 26.212C106.448 24.126 108.03 22.516 110.158 22.516C111.516 22.516 112.72 23.23 113.322 24.308L111.488 25.372C111.25 24.882 110.746 24.588 110.13 24.588C109.22 24.588 108.548 25.246 108.548 26.212C108.548 27.178 109.22 27.836 110.13 27.836C110.746 27.836 111.264 27.542 111.488 27.052L113.322 28.102C112.72 29.194 111.53 29.908 110.158 29.908ZM40.7605 14.48H42.7605V15.712H39.4805V10.112H40.7605V14.48ZM43.8205 10.112H45.1005V15.712H43.8205V10.112ZM48.4405 15.824C47.2645 15.824 46.5125 15.264 46.2005 14.44L47.3045 13.8C47.5045 14.264 47.8485 14.576 48.4805 14.576C49.0885 14.576 49.2405 14.336 49.2405 14.12C49.2405 13.776 48.9205 13.64 48.0805 13.408C47.2485 13.176 46.4325 12.776 46.4325 11.704C46.4325 10.624 47.3445 10 48.3125 10C49.2325 10 49.9525 10.44 50.3605 11.264L49.2805 11.896C49.0885 11.496 48.8245 11.248 48.3125 11.248C47.9125 11.248 47.7125 11.448 47.7125 11.672C47.7125 11.928 47.8485 12.104 48.7205 12.368C49.5685 12.624 50.5205 12.92 50.5205 14.104C50.5205 15.184 49.6565 15.824 48.4405 15.824ZM55.2205 10.112V11.344H53.7805V15.712H52.5005V11.344H51.0605V10.112H55.2205ZM57.5605 14.48H59.8005V15.712H56.2805V10.112H59.7605V11.344H57.5605V12.272H59.5605V13.488H57.5605V14.48ZM64.1405 10.112H65.4205V15.712H64.4605L62.3005 12.672V15.712H61.0205V10.112H61.9805L64.1405 13.152V10.112ZM72.0525 15.824C70.4445 15.824 69.1405 14.56 69.1405 12.912C69.1405 11.264 70.4445 10 72.0525 10C73.6605 10 74.9645 11.264 74.9645 12.912C74.9645 14.56 73.6605 15.824 72.0525 15.824ZM72.0525 14.576C72.9645 14.576 73.6845 13.912 73.6845 12.912C73.6845 11.912 72.9645 11.248 72.0525 11.248C71.1405 11.248 70.4205 11.912 70.4205 12.912C70.4205 13.912 71.1405 14.576 72.0525 14.576ZM79.3045 10.112H80.5845V15.712H79.6245L77.4645 12.672V15.712H76.1845V10.112H77.1445L79.3045 13.152V10.112Z" fill="white"/>
</svg>
