<svg width="160" height="40" viewBox="0 0 160 40" fill="none" xmlns="http://www.w3.org/2000/svg">
<g clip-path="url(#clip0_23231_96607)">
<path d="M7 0.5H153C156.59 0.5 159.5 3.41015 159.5 7V33C159.5 36.5899 156.59 39.5 153 39.5H7C3.41015 39.5 0.5 36.5899 0.5 33V7C0.5 3.41015 3.41015 0.5 7 0.5Z" fill="black" stroke="#A6A6A6"/>
<path d="M44.7891 31V26.6641H47.1953L49.4922 31H51.5078L48.9844 26.3906C50.3594 25.9297 51.1719 24.6953 51.1719 23.1719C51.1719 21.0703 49.7266 19.7266 47.4062 19.7266H43.0391V31H44.7891ZM47.2422 25.25H44.7891V21.1953H47.1953C48.5469 21.1953 49.3672 21.9609 49.3672 23.2188C49.3672 24.5078 48.5938 25.25 47.2422 25.25ZM56.7031 31.1875C59.3281 31.1875 61 29.8516 61 27.7266C61 26.0859 60.0312 25.1406 57.6719 24.6406L56.4375 24.3828C54.9766 24.0703 54.3984 23.5234 54.3984 22.7031C54.3984 21.6719 55.3672 21.0312 56.6875 21.0312C58.0547 21.0312 58.9844 21.7266 59.0938 22.8594H60.7891C60.7344 20.8906 59.1016 19.5391 56.7109 19.5391C54.3125 19.5391 52.6172 20.8672 52.6172 22.7969C52.6172 24.4219 53.6406 25.4688 55.8984 25.9453L57.125 26.2031C58.6328 26.5312 59.2266 27.0781 59.2266 27.9531C59.2266 28.9609 58.2031 29.6953 56.7734 29.6953C55.2734 29.6953 54.2109 29.0234 54.0547 27.9062H52.3516C52.4609 29.9141 54.1562 31.1875 56.7031 31.1875ZM66.4141 31.1875C69.0391 31.1875 70.7109 29.8516 70.7109 27.7266C70.7109 26.0859 69.7422 25.1406 67.3828 24.6406L66.1484 24.3828C64.6875 24.0703 64.1094 23.5234 64.1094 22.7031C64.1094 21.6719 65.0781 21.0312 66.3984 21.0312C67.7656 21.0312 68.6953 21.7266 68.8047 22.8594H70.5C70.4453 20.8906 68.8125 19.5391 66.4219 19.5391C64.0234 19.5391 62.3281 20.8672 62.3281 22.7969C62.3281 24.4219 63.3516 25.4688 65.6094 25.9453L66.8359 26.2031C68.3438 26.5312 68.9375 27.0781 68.9375 27.9531C68.9375 28.9609 67.9141 29.6953 66.4844 29.6953C64.9844 29.6953 63.9219 29.0234 63.7656 27.9062H62.0625C62.1719 29.9141 63.8672 31.1875 66.4141 31.1875ZM77.2734 31V26.2812H82.1172V24.8047H77.2734V21.2344H82.5625V19.7266H75.5234V31H77.2734ZM87.3906 31.1562C89.2734 31.1562 90.6953 30.0859 90.9297 28.5859H89.3281C89.1016 29.3047 88.3906 29.7891 87.4297 29.7891C86.0781 29.7891 85.2188 28.8438 85.2188 27.4141V27.3125H91.0234V26.7344C91.0234 24.2422 89.6016 22.6328 87.3203 22.6328C85 22.6328 83.5156 24.3516 83.5156 26.9297C83.5156 29.5234 84.9766 31.1562 87.3906 31.1562ZM89.3359 26.1328H85.2266C85.3125 24.8906 86.1406 23.9922 87.3203 23.9922C88.5 23.9922 89.2969 24.875 89.3359 26.1328ZM95.8359 31.1562C97.7188 31.1562 99.1406 30.0859 99.375 28.5859H97.7734C97.5469 29.3047 96.8359 29.7891 95.875 29.7891C94.5234 29.7891 93.6641 28.8438 93.6641 27.4141V27.3125H99.4688V26.7344C99.4688 24.2422 98.0469 22.6328 95.7656 22.6328C93.4453 22.6328 91.9609 24.3516 91.9609 26.9297C91.9609 29.5234 93.4219 31.1562 95.8359 31.1562ZM97.7812 26.1328H93.6719C93.7578 24.8906 94.5859 23.9922 95.7656 23.9922C96.9453 23.9922 97.7422 24.875 97.7812 26.1328ZM103.859 31.1406C105.055 31.1406 105.992 30.5391 106.477 29.6016H106.508V31H108.148V19.7266H106.453V24.1484H106.422C105.961 23.2422 105.023 22.6484 103.844 22.6484C101.781 22.6484 100.406 24.2969 100.406 26.8906C100.406 29.4844 101.781 31.1406 103.859 31.1406ZM104.305 29.7109C102.969 29.7109 102.133 28.625 102.133 26.8906C102.133 25.1641 102.969 24.0703 104.305 24.0703C105.602 24.0703 106.469 25.1875 106.469 26.8906C106.469 28.6094 105.602 29.7109 104.305 29.7109Z" fill="white"/>
<path d="M43 11.9957C43 10.1896 44.3779 9 46.0758 9C47.187 9 47.9248 9.49493 48.4226 10.1462L47.7026 10.5543C47.3648 10.1114 46.7692 9.77279 46.0758 9.77279C44.8401 9.77279 43.9156 10.6932 43.9156 11.9957C43.9156 13.2894 44.8401 14.2272 46.0758 14.2272C46.7336 14.2272 47.2937 13.9146 47.5781 13.6541V12.6122H45.6758V11.848H48.4671V13.9754C47.8981 14.5919 47.0803 15 46.0758 15C44.3779 15 43 13.8017 43 11.9957ZM49.2786 12.7858C49.2786 11.5702 50.1765 10.589 51.4299 10.589C52.7189 10.589 53.519 11.5702 53.519 12.8553V13.0463H50.1231C50.1854 13.7583 50.7187 14.3488 51.581 14.3488C52.0344 14.3488 52.5322 14.1751 52.8522 13.8538L53.2256 14.3661C52.7989 14.7742 52.1944 14.9913 51.501 14.9913C50.2209 14.9913 49.2786 14.1056 49.2786 12.7858ZM51.4299 11.2315C50.5676 11.2315 50.1587 11.9088 50.1143 12.4819H52.7367C52.7189 11.9262 52.3366 11.2315 51.4299 11.2315ZM55.664 14.9913C54.9883 14.9913 54.6417 14.6179 54.6417 13.958V11.3792H53.9305V10.6932H54.6417V9.54703H55.4417V10.6932H56.3129V11.3792H55.4417V13.7844C55.4417 14.0796 55.5839 14.2967 55.8595 14.2967C56.0462 14.2967 56.2151 14.2185 56.2951 14.1317L56.4996 14.7221C56.3307 14.8784 56.0818 14.9913 55.664 14.9913ZM60.594 14.9913C59.9184 14.9913 59.5717 14.6179 59.5717 13.958V11.3792H58.8605V10.6932H59.5717V9.54703H60.3718V10.6932H61.2429V11.3792H60.3718V13.7844C60.3718 14.0796 60.514 14.2967 60.7896 14.2967C60.9762 14.2967 61.1451 14.2185 61.2252 14.1317L61.4296 14.7221C61.2607 14.8784 61.0118 14.9913 60.594 14.9913ZM64.988 14.8871V12.1867C64.988 11.492 64.6236 11.2836 64.0724 11.2836C63.5746 11.2836 63.1212 11.5789 62.8901 11.8915V14.8871H62.0901V9.09551H62.8901V11.2836C63.1746 10.945 63.7524 10.589 64.4102 10.589C65.3258 10.589 65.7881 11.0405 65.7881 11.9262V14.8871H64.988ZM66.7597 12.7858C66.7597 11.5702 67.6575 10.589 68.911 10.589C70.1999 10.589 71 11.5702 71 12.8553V13.0463H67.6042C67.6664 13.7583 68.1998 14.3488 69.0621 14.3488C69.5154 14.3488 70.0133 14.1751 70.3333 13.8538L70.7066 14.3661C70.2799 14.7742 69.6755 14.9913 68.9821 14.9913C67.702 14.9913 66.7597 14.1056 66.7597 12.7858ZM68.911 11.2315C68.0487 11.2315 67.6397 11.9088 67.5953 12.4819H70.2177C70.1999 11.9262 69.8177 11.2315 68.911 11.2315Z" fill="white"/>
<path fill-rule="evenodd" clip-rule="evenodd" d="M10 15.6538C19.0106 15.6538 26.3462 22.986 26.3462 31.9999L21.578 32C21.578 28.8991 20.372 25.9802 18.186 23.796C15.9978 21.6071 13.0911 20.3989 10 20.3989V15.6538ZM13.3631 25.2692C15.226 25.2692 16.7308 26.7877 16.7308 28.6382C16.7307 30.4985 15.2259 32 13.3631 32C11.5076 32 10 30.4985 10 28.6382C10 26.7877 11.5076 25.2692 13.3631 25.2692ZM10 7C23.7838 7 35 18.2189 35 32L30.1922 31.9998C30.1922 20.8599 21.131 11.7937 10 11.7937V7Z" fill="#F5A623"/>
</g>
<defs>
<clipPath id="clip0_23231_96607">
<rect width="160" height="40" fill="white"/>
</clipPath>
</defs>
</svg>
