<svg width="160" height="40" viewBox="0 0 160 40" fill="none" xmlns="http://www.w3.org/2000/svg">
<path d="M7 0.5H153C156.59 0.5 159.5 3.41015 159.5 7V33C159.5 36.5899 156.59 39.5 153 39.5H7C3.41015 39.5 0.5 36.5899 0.5 33V7C0.5 3.41015 3.41015 0.5 7 0.5Z" stroke="#A6A6A6"/>
<path d="M47.2325 31.161C46.449 31.161 45.7728 31.0698 45.2039 30.8873C44.6458 30.6941 44.1789 30.4365 43.8032 30.1145C43.4383 29.7818 43.1592 29.39 42.966 28.9392C42.7728 28.4777 42.6547 27.9732 42.6118 27.4258H44.6726C44.7048 27.7156 44.7638 27.9893 44.8497 28.2469C44.9463 28.5045 45.0858 28.7299 45.2683 28.9231C45.4615 29.1163 45.7137 29.2719 46.025 29.39C46.347 29.4973 46.7495 29.551 47.2325 29.551C47.8765 29.551 48.3971 29.39 48.7942 29.068C49.2021 28.746 49.406 28.3167 49.406 27.78C49.406 27.5117 49.3684 27.2863 49.2933 27.1038C49.2182 26.9106 49.0894 26.7496 48.9069 26.6208C48.7244 26.4813 48.4776 26.3632 48.1663 26.2666C47.855 26.17 47.4686 26.0841 47.0071 26.009C46.3202 25.9124 45.7191 25.789 45.2039 25.6387C44.6994 25.4777 44.2808 25.2684 43.9481 25.0108C43.6154 24.7425 43.3631 24.4151 43.1914 24.0287C43.0304 23.6423 42.9499 23.1808 42.9499 22.6441C42.9499 22.1718 43.0465 21.7371 43.2397 21.34C43.4329 20.9321 43.7012 20.5833 44.0447 20.2935C44.3989 19.993 44.8229 19.7622 45.3166 19.6012C45.8103 19.4295 46.3577 19.3436 46.9588 19.3436C48.2039 19.3436 49.1806 19.6227 49.889 20.1808C50.6081 20.7389 51.0267 21.5708 51.1448 22.6763H49.1806C49.0733 22.0645 48.8425 21.6244 48.4883 21.3561C48.1341 21.0878 47.6243 20.9536 46.9588 20.9536C46.3041 20.9536 45.8103 21.0931 45.4776 21.3722C45.1449 21.6513 44.9785 22.0162 44.9785 22.467C44.9785 22.7031 45.0053 22.9124 45.059 23.0949C45.1234 23.2666 45.2415 23.4223 45.4132 23.5618C45.5957 23.6906 45.8372 23.8033 46.1377 23.8999C46.449 23.9965 46.8568 24.0824 47.3613 24.1575C48.0375 24.2541 48.6278 24.3775 49.1323 24.5278C49.6475 24.6781 50.0768 24.8874 50.4203 25.1557C50.7745 25.424 51.0375 25.7568 51.2092 26.1539C51.3809 26.5403 51.4668 27.0233 51.4668 27.6029C51.4668 28.1074 51.3648 28.5743 51.1609 29.0036C50.957 29.4329 50.6672 29.8086 50.2915 30.1306C49.9266 30.4526 49.4811 30.7048 48.9552 30.8873C48.44 31.0698 47.8658 31.161 47.2325 31.161ZM53.0071 22.5797H54.9552V31H53.0071V22.5797ZM53.957 21.1951C53.635 21.1951 53.3613 21.0878 53.1359 20.8731C52.9105 20.6584 52.7978 20.3955 52.7978 20.0842C52.7978 19.7622 52.9105 19.4939 53.1359 19.2792C53.3613 19.0645 53.635 18.9572 53.957 18.9572C54.279 18.9572 54.5527 19.0645 54.7781 19.2792C55.0035 19.4939 55.1162 19.7622 55.1162 20.0842C55.1162 20.3955 55.0035 20.6584 54.7781 20.8731C54.5527 21.0878 54.279 21.1951 53.957 21.1951ZM56.9096 22.5797H58.8577V23.8677C59.0616 23.4706 59.3836 23.1271 59.8237 22.8373C60.2638 22.5475 60.7951 22.4026 61.4176 22.4026C61.965 22.4026 62.4426 22.526 62.8505 22.7729C63.2691 23.009 63.5857 23.3901 63.8004 23.916C64.1224 23.3901 64.5464 23.009 65.0723 22.7729C65.5982 22.526 66.1242 22.4026 66.6501 22.4026C67.0365 22.4026 67.3961 22.467 67.7288 22.5958C68.0723 22.7139 68.3728 22.9071 68.6304 23.1754C68.888 23.433 69.0866 23.7711 69.2261 24.1897C69.3764 24.5976 69.4515 25.0913 69.4515 25.6709V31H67.5034V25.7997C67.5034 25.1772 67.3746 24.7264 67.117 24.4473C66.8594 24.1682 66.4891 24.0287 66.0061 24.0287C65.7592 24.0287 65.5231 24.0716 65.2977 24.1575C65.083 24.2326 64.8898 24.3507 64.7181 24.5117C64.5464 24.6727 64.4068 24.8766 64.2995 25.1235C64.2029 25.3596 64.1546 25.6387 64.1546 25.9607V31H62.2065V25.7997C62.2065 25.1772 62.0777 24.7264 61.8201 24.4473C61.5625 24.1682 61.1922 24.0287 60.7092 24.0287C60.4623 24.0287 60.2262 24.0716 60.0008 24.1575C59.7861 24.2326 59.5929 24.3507 59.4212 24.5117C59.2495 24.6727 59.1099 24.8766 59.0026 25.1235C58.906 25.3596 58.8577 25.6387 58.8577 25.9607V31H56.9096V22.5797ZM71.2688 22.5797H73.2169V23.9321C73.335 23.7282 73.4852 23.535 73.6677 23.3525C73.8502 23.17 74.0595 23.009 74.2956 22.8695C74.5425 22.73 74.8054 22.6173 75.0845 22.5314C75.3636 22.4455 75.6587 22.4026 75.97 22.4026C76.4959 22.4026 76.9843 22.4992 77.4351 22.6924C77.8966 22.8856 78.2938 23.1647 78.6265 23.5296C78.9592 23.8945 79.2222 24.3453 79.4154 24.882C79.6086 25.4079 79.7052 26.009 79.7052 26.6852V26.814C79.7052 27.4902 79.6086 28.0966 79.4154 28.6333C79.2329 29.17 78.9753 29.6261 78.6426 30.0018C78.3206 30.3775 77.9288 30.6673 77.4673 30.8712C77.0165 31.0644 76.5174 31.161 75.97 31.161C75.2938 31.161 74.7196 31.0161 74.2473 30.7263C73.7858 30.4365 73.4423 30.0877 73.2169 29.6798V33.8819H71.2688V22.5797ZM75.487 29.6154C76.2061 29.6154 76.7535 29.3846 77.1292 28.9231C77.5156 28.4508 77.7088 27.7585 77.7088 26.8462V26.7174C77.7088 26.2559 77.6498 25.8534 77.5317 25.5099C77.4244 25.1557 77.2687 24.8605 77.0648 24.6244C76.8609 24.3883 76.6247 24.2165 76.3564 24.1092C76.0881 23.9911 75.7929 23.9321 75.4709 23.9321C74.7947 23.9321 74.2366 24.1629 73.7965 24.6244C73.3672 25.0752 73.1525 25.7729 73.1525 26.7174V26.8462C73.1525 27.7907 73.3618 28.4884 73.7804 28.9392C74.2097 29.39 74.7786 29.6154 75.487 29.6154ZM81.0853 18.6835H83.0334V31H81.0853V18.6835ZM88.6908 31.161C88.0682 31.161 87.494 31.0644 86.9681 30.8712C86.4529 30.6673 86.0021 30.3828 85.6157 30.0179C85.24 29.6422 84.9448 29.1914 84.7302 28.6655C84.5262 28.1396 84.4243 27.5439 84.4243 26.8784V26.7496C84.4243 26.0949 84.5262 25.5045 84.7302 24.9786C84.9448 24.4419 85.24 23.9858 85.6157 23.6101C85.9913 23.2237 86.4314 22.9285 86.9359 22.7246C87.4511 22.5099 88.0092 22.4026 88.6103 22.4026C89.1362 22.4026 89.6353 22.4831 90.1076 22.6441C90.5906 22.8051 91.0145 23.0573 91.3795 23.4008C91.7444 23.7443 92.0342 24.1843 92.2489 24.721C92.4743 25.2577 92.587 25.9017 92.587 26.653V27.2165H86.4207C86.4529 28.0215 86.6622 28.6387 87.0486 29.068C87.4457 29.4973 88.0092 29.712 88.7391 29.712C89.3294 29.712 89.7802 29.5993 90.0915 29.3739C90.4027 29.1485 90.5959 28.8319 90.6711 28.424H92.5548C92.4152 29.3149 92.0074 29.9964 91.3312 30.4687C90.655 30.9302 89.7748 31.161 88.6908 31.161ZM90.655 25.9124C90.6013 25.1825 90.3974 24.6512 90.0432 24.3185C89.6997 23.9858 89.2221 23.8194 88.6103 23.8194C88.0199 23.8194 87.5369 24.0072 87.1613 24.3829C86.7856 24.7478 86.5495 25.2577 86.4529 25.9124H90.655ZM97.5938 31.161C96.9927 31.161 96.4292 31.0644 95.9033 30.8712C95.3881 30.678 94.9373 30.3989 94.5509 30.034C94.1752 29.6691 93.8801 29.2236 93.6654 28.6977C93.4507 28.1718 93.3434 27.5707 93.3434 26.8945V26.7657C93.3434 26.1002 93.4507 25.4992 93.6654 24.9625C93.8908 24.4258 94.1967 23.9697 94.5831 23.594C94.9695 23.2076 95.4203 22.9124 95.9355 22.7085C96.4507 22.5046 97.0035 22.4026 97.5938 22.4026C98.0553 22.4026 98.5061 22.4616 98.9462 22.5797C99.3863 22.687 99.778 22.8641 100.122 23.111C100.476 23.3579 100.771 23.6852 101.007 24.0931C101.243 24.4902 101.388 24.9786 101.442 25.5582H99.558C99.4721 24.9893 99.2575 24.5815 98.914 24.3346C98.5705 24.0877 98.1412 23.9643 97.626 23.9643C97.2933 23.9643 96.9874 24.0287 96.7083 24.1575C96.4292 24.2756 96.1877 24.458 95.9838 24.7049C95.7799 24.941 95.6189 25.2308 95.5008 25.5743C95.3935 25.9178 95.3398 26.3042 95.3398 26.7335V26.8623C95.3398 27.7854 95.5491 28.483 95.9677 28.9553C96.3863 29.4276 96.9552 29.6637 97.6743 29.6637C97.9319 29.6637 98.1734 29.6261 98.3988 29.551C98.6349 29.4759 98.8442 29.3632 99.0267 29.2129C99.2092 29.0626 99.3594 28.8748 99.4775 28.6494C99.5956 28.424 99.6707 28.161 99.7029 27.8605H101.49C101.458 28.3435 101.34 28.7889 101.136 29.1968C100.943 29.5939 100.68 29.9428 100.347 30.2433C100.014 30.5331 99.6117 30.7585 99.1394 30.9195C98.6779 31.0805 98.1627 31.161 97.5938 31.161ZM104.953 31.161C104.567 31.161 104.202 31.1127 103.858 31.0161C103.515 30.9195 103.214 30.7746 102.957 30.5814C102.71 30.3775 102.511 30.1199 102.361 29.8086C102.211 29.4866 102.136 29.1056 102.136 28.6655C102.136 28.1718 102.248 27.7585 102.474 27.4258C102.699 27.0823 103.005 26.8086 103.391 26.6047C103.778 26.39 104.234 26.2344 104.76 26.1378C105.286 26.0412 105.849 25.9929 106.45 25.9929H107.497V25.5582C107.497 24.9893 107.384 24.5654 107.159 24.2863C106.944 24.0072 106.547 23.8677 105.967 23.8677C105.452 23.8677 105.066 23.9858 104.808 24.2219C104.561 24.4473 104.411 24.7693 104.357 25.1879H102.474C102.517 24.6942 102.64 24.2756 102.844 23.9321C103.048 23.5779 103.311 23.2881 103.633 23.0627C103.955 22.8373 104.325 22.6709 104.744 22.5636C105.162 22.4563 105.608 22.4026 106.08 22.4026C106.552 22.4026 106.992 22.4563 107.4 22.5636C107.808 22.6602 108.162 22.8319 108.463 23.0788C108.774 23.3149 109.016 23.6316 109.187 24.0287C109.359 24.4151 109.445 24.8981 109.445 25.4777V31H107.529V29.9696C107.25 30.3345 106.912 30.6243 106.515 30.839C106.118 31.0537 105.597 31.161 104.953 31.161ZM105.42 29.7603C106.021 29.7603 106.515 29.6154 106.901 29.3256C107.298 29.0251 107.497 28.6011 107.497 28.0537V27.2165H106.499C105.758 27.2165 105.168 27.3185 104.728 27.5224C104.288 27.7156 104.068 28.0698 104.068 28.585C104.068 28.9392 104.17 29.2236 104.374 29.4383C104.588 29.653 104.937 29.7603 105.42 29.7603ZM114.14 31.161C113.045 31.161 112.192 30.9249 111.58 30.4526C110.979 29.9696 110.657 29.2773 110.614 28.3757H112.449C112.503 28.805 112.648 29.1378 112.884 29.3739C113.131 29.61 113.544 29.7281 114.124 29.7281C114.65 29.7281 115.031 29.6369 115.267 29.4544C115.514 29.2719 115.637 29.0036 115.637 28.6494C115.637 28.3059 115.492 28.0537 115.202 27.8927C114.913 27.7317 114.456 27.5975 113.834 27.4902C113.276 27.4043 112.803 27.297 112.417 27.1682C112.031 27.0394 111.714 26.873 111.467 26.6691C111.231 26.4652 111.059 26.2237 110.952 25.9446C110.845 25.6655 110.791 25.3274 110.791 24.9303C110.791 24.5117 110.882 24.1468 111.065 23.8355C111.247 23.5135 111.483 23.2505 111.773 23.0466C112.074 22.8319 112.412 22.6709 112.787 22.5636C113.163 22.4563 113.549 22.4026 113.947 22.4026C114.376 22.4026 114.778 22.4455 115.154 22.5314C115.54 22.6173 115.879 22.7622 116.168 22.9661C116.458 23.1593 116.694 23.4223 116.877 23.755C117.07 24.077 117.193 24.4741 117.247 24.9464H115.444C115.358 24.56 115.197 24.2756 114.961 24.0931C114.735 23.9106 114.397 23.8194 113.947 23.8194C113.528 23.8194 113.201 23.9106 112.964 24.0931C112.728 24.2756 112.61 24.5171 112.61 24.8176C112.61 24.9679 112.637 25.102 112.691 25.2201C112.744 25.3274 112.836 25.424 112.964 25.5099C113.104 25.585 113.286 25.6548 113.512 25.7192C113.737 25.7836 114.016 25.8426 114.349 25.8963C114.843 25.9714 115.283 26.068 115.669 26.1861C116.066 26.2934 116.399 26.4437 116.667 26.6369C116.936 26.8194 117.14 27.0609 117.279 27.3614C117.429 27.6512 117.505 28.0215 117.505 28.4723C117.505 29.331 117.215 29.9964 116.635 30.4687C116.056 30.9302 115.224 31.161 114.14 31.161ZM121.659 31.1449C120.822 31.1449 120.189 30.9302 119.759 30.5009C119.33 30.0716 119.115 29.4544 119.115 28.6494V24.0448H117.988V22.5797H119.115V20.7282H121.063V22.5797H122.915V24.0448H121.063V28.4723C121.063 28.848 121.144 29.1217 121.305 29.2934C121.477 29.4651 121.718 29.551 122.029 29.551C122.405 29.551 122.722 29.4973 122.979 29.39V30.9356C122.829 30.9893 122.647 31.0376 122.432 31.0805C122.217 31.1234 121.96 31.1449 121.659 31.1449Z" fill="white"/>
<path d="M43 14.8958V9.1042H43.9102V14.1317H46.6681V14.8958H43ZM48.0087 9.99855C47.7266 9.99855 47.4808 9.78148 47.4808 9.50362C47.4808 9.22576 47.7266 9 48.0087 9C48.3 9 48.5366 9.22576 48.5366 9.50362C48.5366 9.78148 48.3 9.99855 48.0087 9.99855ZM47.6082 14.8958V10.7019H48.4274V14.8958H47.6082ZM49.3039 14.3488L49.6952 13.7757C49.9956 14.0883 50.5781 14.3748 51.1698 14.3748C51.7887 14.3748 52.1164 14.1317 52.1164 13.7757C52.1164 13.3589 51.6157 13.22 51.0514 13.0984C50.3051 12.9334 49.4313 12.7424 49.4313 11.8394C49.4313 11.1708 50.032 10.5977 51.106 10.5977C51.8615 10.5977 52.4076 10.8582 52.7808 11.1968L52.4167 11.7438C52.1619 11.4486 51.6704 11.2315 51.1151 11.2315C50.5599 11.2315 50.2141 11.4399 50.2141 11.7786C50.2141 12.1433 50.6874 12.2648 51.2335 12.3864C51.998 12.5514 52.9082 12.7511 52.9082 13.7149C52.9082 14.4356 52.2893 15 51.1333 15C50.3961 15 49.7499 14.7829 49.3039 14.3488ZM55.1136 15C54.4218 15 54.0668 14.6266 54.0668 13.9667V11.3878H53.3387V10.7019H54.0668V9.55572H54.886V10.7019H55.778V11.3878H54.886V13.7931C54.886 14.0883 55.0316 14.3054 55.3138 14.3054C55.5049 14.3054 55.6779 14.2272 55.7598 14.1404L55.9691 14.7308C55.7962 14.8871 55.5413 15 55.1136 15ZM56.3723 12.7945C56.3723 11.5789 57.2916 10.5977 58.5749 10.5977C59.8947 10.5977 60.7139 11.5789 60.7139 12.864V13.055H57.237C57.3007 13.767 57.8468 14.3575 58.7297 14.3575C59.1939 14.3575 59.7036 14.1838 60.0313 13.8625L60.4135 14.3748C59.9766 14.7829 59.3577 15 58.6478 15C57.3371 15 56.3723 14.1143 56.3723 12.7945ZM58.5749 11.2402C57.6921 11.2402 57.2734 11.9175 57.2279 12.4906H59.9129C59.8947 11.9349 59.5033 11.2402 58.5749 11.2402ZM64.6668 14.8958V12.2127C64.6668 11.5181 64.2936 11.2923 63.7293 11.2923C63.2196 11.2923 62.7554 11.5876 62.5187 11.9001V14.8958H61.6996V10.7019H62.5187V11.2923C62.81 10.9537 63.3925 10.5977 64.0752 10.5977C65.0036 10.5977 65.486 11.0666 65.486 11.9522V14.8958H64.6668ZM70.998 15C69.6327 15 68.7771 14.0101 68.7771 12.7945C68.7771 11.5876 69.6327 10.5977 70.998 10.5977C72.3723 10.5977 73.2188 11.5876 73.2188 12.7945C73.2188 14.0101 72.3723 15 70.998 15ZM70.998 14.3054C71.8808 14.3054 72.3633 13.5933 72.3633 12.7945C72.3633 12.0043 71.8808 11.2923 70.998 11.2923C70.1242 11.2923 69.6327 12.0043 69.6327 12.7945C69.6327 13.5933 70.1242 14.3054 70.998 14.3054ZM77.1808 14.8958V12.2127C77.1808 11.5181 76.8076 11.2923 76.2433 11.2923C75.7336 11.2923 75.2694 11.5876 75.0328 11.9001V14.8958H74.2136V10.7019H75.0328V11.2923C75.324 10.9537 75.9066 10.5977 76.5892 10.5977C77.5176 10.5977 78 11.0666 78 11.9522V14.8958H77.1808Z" fill="white"/>
<g clip-path="url(#clip0_51511_16461)">
<path fill-rule="evenodd" clip-rule="evenodd" d="M7 32H31V8H7V32ZM8.6 30.4H29.4V9.6H8.6V30.4Z" fill="white"/>
<path fill-rule="evenodd" clip-rule="evenodd" d="M11.8008 12.8003V27.2003H26.2008L11.8008 12.8003ZM25.0693 22.9828L16.0183 13.9318L17.1498 12.8003L26.2008 21.8513L25.0693 22.9828ZM25.0693 18.4573L20.5443 13.9323L21.6753 12.7998L26.2003 17.3258L25.0693 18.4573Z" fill="white"/>
</g>
<defs>
<clipPath id="clip0_51511_16461">
<rect width="24" height="24" fill="white" transform="translate(7 8)"/>
</clipPath>
</defs>
</svg>
