<svg width="160" height="40" viewBox="0 0 160 40" fill="none" xmlns="http://www.w3.org/2000/svg">
<g clip-path="url(#clip0_23231_96623)">
<path d="M7 0.5H153C156.59 0.5 159.5 3.41015 159.5 7V33C159.5 36.5899 156.59 39.5 153 39.5H7C3.41015 39.5 0.5 36.5899 0.5 33V7C0.5 3.41015 3.41015 0.5 7 0.5Z" fill="black" stroke="#A6A6A6"/>
<g clip-path="url(#clip1_23231_96623)">
<path d="M10.082 21.2367L12.5086 21.1768C12.6945 21.7867 12.9695 21.9242 13.5195 21.9242C13.9535 21.9242 14.207 21.7867 14.207 21.5117C14.207 20.5492 10.357 21.0992 10.357 18.7617C10.357 17.7371 11.3195 16.6992 13.442 16.6992C15.114 16.6992 16.132 17.1117 16.5445 18.6242H14.207C14.2015 18.6055 14.207 18.0742 13.382 18.0742C12.9695 18.0742 12.6945 18.2117 12.6945 18.4867C12.6945 18.7617 13.1351 19.0411 13.932 19.1742C14.757 19.3117 16.8195 19.4492 16.8195 21.1069C16.8195 22.1151 16.0825 23.2992 13.5135 23.2992C11.8734 23.2992 10.7695 23.0242 10.082 21.2367Z" fill="#005480"/>
<path d="M16.6828 16.6992H19.4328L20.2578 18.3492L21.2203 16.6992H23.9038L21.6521 19.8441L23.9703 23.2992H21.2203L20.2578 21.3742L19.0473 23.2992H16.3066L18.7035 19.8441L16.6828 16.6992Z" fill="#005480"/>
<path d="M23.9707 16.6992L26.3082 16.7036V17.6617C26.8582 17.1117 27.4264 16.6992 28.2332 16.6992C28.9207 16.6992 29.4707 16.8367 30.1582 17.7992C30.7082 17.1117 31.3957 16.6992 32.0832 16.6992C33.9263 16.6992 34.4207 17.912 34.4207 19.1407V23.2992H31.9457V19.524C31.9457 18.7617 31.5085 18.6242 31.2582 18.6242C30.8457 18.6242 30.5707 19.1742 30.5707 19.876V23.2992H28.0957V19.6472C28.0957 18.8992 27.6832 18.6242 27.4082 18.6242C26.5832 18.6242 26.5832 19.744 26.5832 19.9134V23.2992H23.9707V16.6992Z" fill="#005480"/>
<path d="M26.9402 11.3104C26.8489 11.3104 26.7565 11.2879 26.6718 11.24C24.0164 9.74896 20.6251 9.74896 17.9697 11.24C17.7062 11.3891 17.3696 11.295 17.2211 11.0294C17.0721 10.7648 17.1661 10.4293 17.4318 10.2808C20.415 8.60496 24.227 8.60496 27.2102 10.2808C27.4753 10.4299 27.5694 10.7648 27.4209 11.0294C27.3197 11.2098 27.1327 11.3104 26.9402 11.3104Z" fill="#00E0FA"/>
<path d="M22.3209 30.9997C20.6137 30.9997 18.923 30.5569 17.4314 29.7193C17.1663 29.5702 17.0723 29.2353 17.2208 28.9707C17.3698 28.7051 17.7059 28.6116 17.9693 28.7601C20.6247 30.2511 24.016 30.2511 26.6714 28.7601C26.9349 28.6116 27.2715 28.7045 27.42 28.9707C27.569 29.2353 27.475 29.5708 27.2093 29.7193C25.7188 30.5569 24.0281 30.9997 22.3209 30.9997Z" fill="#00E0FA"/>
<path d="M25.9556 13.2797C25.8621 13.2797 25.7675 13.256 25.6806 13.2054C23.6341 12.0218 21.0067 12.0218 18.9602 13.2054C18.6962 13.3583 18.3607 13.2676 18.2089 13.0052C18.0565 12.7418 18.1467 12.4057 18.4091 12.2539C20.7895 10.8756 23.8513 10.8756 26.2317 12.2539C26.4946 12.4057 26.5848 12.7423 26.4319 13.0052C26.3302 13.1818 26.1459 13.2797 25.9556 13.2797Z" fill="#00E0FA"/>
<path d="M22.3205 28.8004C20.9521 28.8004 19.5996 28.4363 18.4094 27.7472C18.1465 27.5954 18.0563 27.2588 18.2092 26.9959C18.361 26.733 18.6965 26.6417 18.9605 26.7957C21.0071 27.9793 23.6344 27.9793 25.681 26.7957C25.9444 26.6422 26.2799 26.7335 26.4323 26.9959C26.5846 27.2593 26.4944 27.5954 26.2321 27.7472C25.0413 28.4363 23.6889 28.8004 22.3205 28.8004Z" fill="#00E0FA"/>
<path d="M24.9696 15.2478C24.8722 15.2478 24.7738 15.222 24.6841 15.1675C23.2266 14.2815 21.4111 14.2815 19.953 15.1675C19.6934 15.3259 19.3552 15.2429 19.1973 14.9833C19.0395 14.7237 19.122 14.3854 19.3816 14.2276C21.1636 13.1435 23.473 13.1435 25.2556 14.2276C25.5152 14.3854 25.5977 14.7237 25.4398 14.9833C25.3364 15.1538 25.1555 15.2478 24.9696 15.2478Z" fill="#00E0FA"/>
<path d="M22.3205 26.6004C21.2904 26.6004 20.2745 26.3138 19.3835 25.7721C19.1239 25.6142 19.0414 25.276 19.1993 25.0164C19.3571 24.7568 19.6954 24.6743 19.955 24.8321C21.4125 25.7182 23.228 25.7182 24.6861 24.8321C24.9462 24.6748 25.2845 24.7568 25.4418 25.0164C25.5996 25.276 25.5171 25.6142 25.2575 25.7721C24.3665 26.3138 23.3507 26.6004 22.3205 26.6004Z" fill="#00E0FA"/>
</g>
<path d="M43 14.8958V9.1042H43.9102V14.1317H46.6681V14.8958H43ZM48.0087 9.99855C47.7266 9.99855 47.4808 9.78148 47.4808 9.50362C47.4808 9.22576 47.7266 9 48.0087 9C48.3 9 48.5366 9.22576 48.5366 9.50362C48.5366 9.78148 48.3 9.99855 48.0087 9.99855ZM47.6082 14.8958V10.7019H48.4274V14.8958H47.6082ZM49.3039 14.3488L49.6952 13.7757C49.9956 14.0883 50.5781 14.3748 51.1698 14.3748C51.7887 14.3748 52.1164 14.1317 52.1164 13.7757C52.1164 13.3589 51.6157 13.22 51.0514 13.0984C50.3051 12.9334 49.4313 12.7424 49.4313 11.8394C49.4313 11.1708 50.032 10.5977 51.106 10.5977C51.8615 10.5977 52.4076 10.8582 52.7808 11.1968L52.4167 11.7438C52.1619 11.4486 51.6704 11.2315 51.1151 11.2315C50.5599 11.2315 50.2141 11.4399 50.2141 11.7786C50.2141 12.1433 50.6874 12.2648 51.2335 12.3864C51.998 12.5514 52.9082 12.7511 52.9082 13.7149C52.9082 14.4356 52.2893 15 51.1333 15C50.3961 15 49.7499 14.7829 49.3039 14.3488ZM55.1136 15C54.4218 15 54.0668 14.6266 54.0668 13.9667V11.3878H53.3387V10.7019H54.0668V9.55572H54.886V10.7019H55.778V11.3878H54.886V13.7931C54.886 14.0883 55.0316 14.3054 55.3138 14.3054C55.5049 14.3054 55.6779 14.2272 55.7598 14.1404L55.9691 14.7308C55.7962 14.8871 55.5413 15 55.1136 15ZM56.3723 12.7945C56.3723 11.5789 57.2916 10.5977 58.5749 10.5977C59.8947 10.5977 60.7139 11.5789 60.7139 12.864V13.055H57.237C57.3007 13.767 57.8468 14.3575 58.7297 14.3575C59.1939 14.3575 59.7036 14.1838 60.0313 13.8625L60.4135 14.3748C59.9766 14.7829 59.3577 15 58.6478 15C57.3371 15 56.3723 14.1143 56.3723 12.7945ZM58.5749 11.2402C57.6921 11.2402 57.2734 11.9175 57.2279 12.4906H59.9129C59.8947 11.9349 59.5033 11.2402 58.5749 11.2402ZM64.6668 14.8958V12.2127C64.6668 11.5181 64.2936 11.2923 63.7293 11.2923C63.2196 11.2923 62.7554 11.5876 62.5187 11.9001V14.8958H61.6996V10.7019H62.5187V11.2923C62.81 10.9537 63.3925 10.5977 64.0752 10.5977C65.0036 10.5977 65.486 11.0666 65.486 11.9522V14.8958H64.6668ZM70.998 15C69.6327 15 68.7771 14.0101 68.7771 12.7945C68.7771 11.5876 69.6327 10.5977 70.998 10.5977C72.3723 10.5977 73.2188 11.5876 73.2188 12.7945C73.2188 14.0101 72.3723 15 70.998 15ZM70.998 14.3054C71.8808 14.3054 72.3633 13.5933 72.3633 12.7945C72.3633 12.0043 71.8808 11.2923 70.998 11.2923C70.1242 11.2923 69.6327 12.0043 69.6327 12.7945C69.6327 13.5933 70.1242 14.3054 70.998 14.3054ZM77.1808 14.8958V12.2127C77.1808 11.5181 76.8076 11.2923 76.2433 11.2923C75.7336 11.2923 75.2694 11.5876 75.0328 11.9001V14.8958H74.2136V10.7019H75.0328V11.2923C75.324 10.9537 75.9066 10.5977 76.5892 10.5977C77.5176 10.5977 78 11.0666 78 11.9522V14.8958H77.1808Z" fill="white"/>
<path d="M47.2325 31.161C46.449 31.161 45.7728 31.0698 45.2039 30.8873C44.6458 30.6941 44.1789 30.4365 43.8032 30.1145C43.4383 29.7818 43.1592 29.39 42.966 28.9392C42.7728 28.4777 42.6547 27.9732 42.6118 27.4258H44.6726C44.7048 27.7156 44.7638 27.9893 44.8497 28.2469C44.9463 28.5045 45.0858 28.7299 45.2683 28.9231C45.4615 29.1163 45.7137 29.2719 46.025 29.39C46.347 29.4973 46.7495 29.551 47.2325 29.551C47.8765 29.551 48.3971 29.39 48.7942 29.068C49.2021 28.746 49.406 28.3167 49.406 27.78C49.406 27.5117 49.3684 27.2863 49.2933 27.1038C49.2182 26.9106 49.0894 26.7496 48.9069 26.6208C48.7244 26.4813 48.4776 26.3632 48.1663 26.2666C47.855 26.17 47.4686 26.0841 47.0071 26.009C46.3202 25.9124 45.7191 25.789 45.2039 25.6387C44.6994 25.4777 44.2808 25.2684 43.9481 25.0108C43.6154 24.7425 43.3631 24.4151 43.1914 24.0287C43.0304 23.6423 42.9499 23.1808 42.9499 22.6441C42.9499 22.1718 43.0465 21.7371 43.2397 21.34C43.4329 20.9321 43.7012 20.5833 44.0447 20.2935C44.3989 19.993 44.8229 19.7622 45.3166 19.6012C45.8103 19.4295 46.3577 19.3436 46.9588 19.3436C48.2039 19.3436 49.1806 19.6227 49.889 20.1808C50.6081 20.7389 51.0267 21.5708 51.1448 22.6763H49.1806C49.0733 22.0645 48.8425 21.6244 48.4883 21.3561C48.1341 21.0878 47.6243 20.9536 46.9588 20.9536C46.3041 20.9536 45.8103 21.0931 45.4776 21.3722C45.1449 21.6513 44.9785 22.0162 44.9785 22.467C44.9785 22.7031 45.0053 22.9124 45.059 23.0949C45.1234 23.2666 45.2415 23.4223 45.4132 23.5618C45.5957 23.6906 45.8372 23.8033 46.1377 23.8999C46.449 23.9965 46.8568 24.0824 47.3613 24.1575C48.0375 24.2541 48.6278 24.3775 49.1323 24.5278C49.6475 24.6781 50.0768 24.8874 50.4203 25.1557C50.7745 25.424 51.0375 25.7568 51.2092 26.1539C51.3809 26.5403 51.4668 27.0233 51.4668 27.6029C51.4668 28.1074 51.3648 28.5743 51.1609 29.0036C50.957 29.4329 50.6672 29.8086 50.2915 30.1306C49.9266 30.4526 49.4811 30.7048 48.9552 30.8873C48.44 31.0698 47.8658 31.161 47.2325 31.161ZM53.0071 22.5797H54.9552V31H53.0071V22.5797ZM53.957 21.1951C53.635 21.1951 53.3613 21.0878 53.1359 20.8731C52.9105 20.6584 52.7978 20.3955 52.7978 20.0842C52.7978 19.7622 52.9105 19.4939 53.1359 19.2792C53.3613 19.0645 53.635 18.9572 53.957 18.9572C54.279 18.9572 54.5527 19.0645 54.7781 19.2792C55.0035 19.4939 55.1162 19.7622 55.1162 20.0842C55.1162 20.3955 55.0035 20.6584 54.7781 20.8731C54.5527 21.0878 54.279 21.1951 53.957 21.1951ZM56.9096 22.5797H58.8577V24.1575C59.126 23.6208 59.4695 23.2076 59.8881 22.9178C60.3174 22.6173 60.8863 22.4616 61.5947 22.4509V24.2702C61.1654 24.2702 60.779 24.3131 60.4355 24.399C60.1028 24.4741 59.8183 24.6029 59.5822 24.7854C59.3461 24.9679 59.1636 25.2094 59.0348 25.5099C58.9167 25.7997 58.8577 26.17 58.8577 26.6208V31H56.9096V22.5797ZM62.9369 22.5797H64.885V31H62.9369V22.5797ZM63.8868 21.1951C63.5648 21.1951 63.2911 21.0878 63.0657 20.8731C62.8403 20.6584 62.7276 20.3955 62.7276 20.0842C62.7276 19.7622 62.8403 19.4939 63.0657 19.2792C63.2911 19.0645 63.5648 18.9572 63.8868 18.9572C64.2088 18.9572 64.4825 19.0645 64.7079 19.2792C64.9333 19.4939 65.046 19.7622 65.046 20.0842C65.046 20.3955 64.9333 20.6584 64.7079 20.8731C64.4825 21.0878 64.2088 21.1951 63.8868 21.1951ZM69.6569 31.161C69.2383 31.161 68.8519 31.102 68.4977 30.9839C68.1435 30.8551 67.8376 30.6619 67.58 30.4043C67.3224 30.1467 67.1185 29.8193 66.9682 29.4222C66.8287 29.0143 66.7589 28.5313 66.7589 27.9732V22.5797H68.707V27.7478C68.707 28.3918 68.8412 28.8641 69.1095 29.1646C69.3778 29.4544 69.7964 29.5993 70.3653 29.5993C70.6229 29.5993 70.8698 29.5564 71.1059 29.4705C71.3528 29.3846 71.5621 29.2612 71.7338 29.1002C71.9163 28.9285 72.0612 28.7192 72.1685 28.4723C72.2758 28.2147 72.3295 27.9195 72.3295 27.5868V22.5797H74.2776V31H72.3295V29.6798C72.1148 30.0877 71.7875 30.4365 71.3474 30.7263C70.9073 31.0161 70.3438 31.161 69.6569 31.161ZM79.0492 31.161C77.9544 31.161 77.1011 30.9249 76.4893 30.4526C75.8883 29.9696 75.5663 29.2773 75.5233 28.3757H77.3587C77.4124 28.805 77.5573 29.1378 77.7934 29.3739C78.0403 29.61 78.4535 29.7281 79.0331 29.7281C79.5591 29.7281 79.9401 29.6369 80.1762 29.4544C80.4231 29.2719 80.5465 29.0036 80.5465 28.6494C80.5465 28.3059 80.4016 28.0537 80.1118 27.8927C79.822 27.7317 79.3659 27.5975 78.7433 27.4902C78.1852 27.4043 77.7129 27.297 77.3265 27.1682C76.9401 27.0394 76.6235 26.873 76.3766 26.6691C76.1405 26.4652 75.9688 26.2237 75.8614 25.9446C75.7541 25.6655 75.7004 25.3274 75.7004 24.9303C75.7004 24.5117 75.7917 24.1468 75.9741 23.8355C76.1566 23.5135 76.3927 23.2505 76.6825 23.0466C76.9831 22.8319 77.3212 22.6709 77.6968 22.5636C78.0725 22.4563 78.4589 22.4026 78.856 22.4026C79.2854 22.4026 79.6879 22.4455 80.0635 22.5314C80.4499 22.6173 80.788 22.7622 81.0778 22.9661C81.3676 23.1593 81.6038 23.4223 81.7862 23.755C81.9794 24.077 82.1029 24.4741 82.1565 24.9464H80.3533C80.2675 24.56 80.1065 24.2756 79.8703 24.0931C79.6449 23.9106 79.3068 23.8194 78.856 23.8194C78.4374 23.8194 78.1101 23.9106 77.8739 24.0931C77.6378 24.2756 77.5197 24.5171 77.5197 24.8176C77.5197 24.9679 77.5466 25.102 77.6002 25.2201C77.6539 25.3274 77.7451 25.424 77.8739 25.5099C78.0135 25.585 78.1959 25.6548 78.4213 25.7192C78.6467 25.7836 78.9258 25.8426 79.2585 25.8963C79.7523 25.9714 80.1923 26.068 80.5787 26.1861C80.9759 26.2934 81.3086 26.4437 81.5769 26.6369C81.8453 26.8194 82.0492 27.0609 82.1887 27.3614C82.339 27.6512 82.4141 28.0215 82.4141 28.4723C82.4141 29.331 82.1243 29.9964 81.5447 30.4687C80.9651 30.9302 80.1333 31.161 79.0492 31.161ZM86.8263 25.0913L83.3809 19.4885H85.7959L88.2431 23.5779L90.6742 19.4885H92.8799L89.4828 25.043L93.1697 31H90.7225L88.0177 26.5081L85.3129 31H83.1233L86.8263 25.0913ZM94.6383 19.4885H97.5041L100.531 27.3453L103.493 19.4885H106.327V31H104.186V22.306L100.756 31H100.064L96.5703 22.306V31H94.6383V19.4885Z" fill="white"/>
</g>
<defs>
<clipPath id="clip0_23231_96623">
<rect width="160" height="40" fill="white"/>
</clipPath>
<clipPath id="clip1_23231_96623">
<rect width="24.42" height="22" fill="white" transform="translate(10 9)"/>
</clipPath>
</defs>
</svg>
