<svg width="160" height="40" viewBox="0 0 160 40" fill="none" xmlns="http://www.w3.org/2000/svg">
<path d="M7 0.5H153C156.59 0.5 159.5 3.41015 159.5 7V33C159.5 36.5899 156.59 39.5 153 39.5H7C3.41015 39.5 0.5 36.5899 0.5 33V7C0.5 3.41015 3.41015 0.5 7 0.5Z" fill="black" stroke="#A6A6A6"/>
<path d="M24.2 11.9414C22.2552 11.9414 20.42 12.9075 19.34 14.4727V25.4414H30.95C33.1648 25.4414 35 23.6063 35 21.3914C35 19.1766 33.1648 17.3414 30.95 17.3414C30.68 17.3414 30.41 17.3878 30.14 17.4427C29.87 14.3651 27.3324 11.9414 24.2 11.9414ZM17.18 14.6414C16.8024 14.6414 16.4248 14.6878 16.1 14.7427V25.4414H17.18V14.6414ZM17.72 14.6414V25.4414H18.8V14.9114C18.4752 14.8038 18.0976 14.6963 17.72 14.6414ZM15.56 14.9114C15.1824 15.0738 14.8048 15.2363 14.48 15.4514V25.4414H15.56V14.9114ZM13.94 15.8902C13.5076 16.2677 13.13 16.7508 12.86 17.2908V25.4414H13.94V15.8902ZM11.51 17.8814C11.4151 17.8877 11.3202 17.9046 11.24 17.932V25.3908C11.4024 25.4456 11.6176 25.4414 11.78 25.4414H12.32V17.932C12.1576 17.8772 11.9424 17.8814 11.78 17.8814C11.6998 17.8814 11.6049 17.8751 11.51 17.8814ZM10.7 18.0502C10.3224 18.1577 9.94484 18.3202 9.62 18.5902V24.7327C9.94484 24.9478 10.3224 25.1651 10.7 25.2727V18.0502ZM9.08 19.012C8.43242 19.7145 8 20.6363 8 21.6614C8 22.6866 8.43242 23.6084 9.08 24.3108V19.012Z" fill="#EC622B"/>
<path d="M42 13.8958V8.1042H42.9102V13.1317H45.6681V13.8958H42ZM47.0087 8.99855C46.7266 8.99855 46.4808 8.78148 46.4808 8.50362C46.4808 8.22576 46.7266 8 47.0087 8C47.3 8 47.5366 8.22576 47.5366 8.50362C47.5366 8.78148 47.3 8.99855 47.0087 8.99855ZM46.6082 13.8958V9.70188H47.4274V13.8958H46.6082ZM48.3039 13.3488L48.6952 12.7757C48.9956 13.0883 49.5781 13.3748 50.1698 13.3748C50.7887 13.3748 51.1164 13.1317 51.1164 12.7757C51.1164 12.3589 50.6157 12.22 50.0514 12.0984C49.3051 11.9334 48.4313 11.7424 48.4313 10.8394C48.4313 10.1708 49.032 9.59768 50.106 9.59768C50.8615 9.59768 51.4076 9.85818 51.7808 10.1968L51.4167 10.7438C51.1619 10.4486 50.6704 10.2315 50.1151 10.2315C49.5599 10.2315 49.2141 10.4399 49.2141 10.7786C49.2141 11.1433 49.6874 11.2648 50.2335 11.3864C50.998 11.5514 51.9082 11.7511 51.9082 12.7149C51.9082 13.4356 51.2893 14 50.1333 14C49.3961 14 48.7499 13.7829 48.3039 13.3488ZM54.1136 14C53.4218 14 53.0668 13.6266 53.0668 12.9667V10.3878H52.3387V9.70188H53.0668V8.55572H53.886V9.70188H54.778V10.3878H53.886V12.7931C53.886 13.0883 54.0316 13.3054 54.3138 13.3054C54.5049 13.3054 54.6779 13.2272 54.7598 13.1404L54.9691 13.7308C54.7962 13.8871 54.5413 14 54.1136 14ZM55.3723 11.7945C55.3723 10.5789 56.2916 9.59768 57.5749 9.59768C58.8947 9.59768 59.7139 10.5789 59.7139 11.864V12.055H56.237C56.3007 12.767 56.8468 13.3575 57.7297 13.3575C58.1939 13.3575 58.7036 13.1838 59.0313 12.8625L59.4135 13.3748C58.9766 13.7829 58.3577 14 57.6478 14C56.3371 14 55.3723 13.1143 55.3723 11.7945ZM57.5749 10.2402C56.6921 10.2402 56.2734 10.9175 56.2279 11.4906H58.9129C58.8947 10.9349 58.5033 10.2402 57.5749 10.2402ZM63.6668 13.8958V11.2127C63.6668 10.5181 63.2936 10.2923 62.7293 10.2923C62.2196 10.2923 61.7554 10.5876 61.5187 10.9001V13.8958H60.6996V9.70188H61.5187V10.2923C61.81 9.95369 62.3925 9.59768 63.0752 9.59768C64.0036 9.59768 64.486 10.0666 64.486 10.9522V13.8958H63.6668ZM69.998 14C68.6327 14 67.7771 13.0101 67.7771 11.7945C67.7771 10.5876 68.6327 9.59768 69.998 9.59768C71.3723 9.59768 72.2188 10.5876 72.2188 11.7945C72.2188 13.0101 71.3723 14 69.998 14ZM69.998 13.3054C70.8808 13.3054 71.3633 12.5933 71.3633 11.7945C71.3633 11.0043 70.8808 10.2923 69.998 10.2923C69.1242 10.2923 68.6327 11.0043 68.6327 11.7945C68.6327 12.5933 69.1242 13.3054 69.998 13.3054ZM76.1808 13.8958V11.2127C76.1808 10.5181 75.8076 10.2923 75.2433 10.2923C74.7336 10.2923 74.2694 10.5876 74.0328 10.9001V13.8958H73.2136V9.70188H74.0328V10.2923C74.324 9.95369 74.9066 9.59768 75.5892 9.59768C76.5176 9.59768 77 10.0666 77 10.9522V13.8958H76.1808Z" fill="white"/>
<path d="M47.1845 32C46.3054 32 45.5467 31.8976 44.9084 31.6929C44.2822 31.4761 43.7583 31.1871 43.3368 30.8258C42.9273 30.4525 42.6142 30.0129 42.3974 29.5071C42.1806 28.9892 42.0482 28.4232 42 27.809H44.3123C44.3484 28.1342 44.4146 28.4413 44.511 28.7303C44.6194 29.0194 44.7759 29.2723 44.9806 29.489C45.1974 29.7058 45.4804 29.8804 45.8297 30.0129C46.191 30.1333 46.6426 30.1935 47.1845 30.1935C47.9071 30.1935 48.4912 30.0129 48.9368 29.6516C49.3944 29.2903 49.6232 28.8086 49.6232 28.2065C49.6232 27.9054 49.5811 27.6525 49.4968 27.4477C49.4125 27.231 49.268 27.0503 49.0632 26.9058C48.8585 26.7492 48.5815 26.6168 48.2323 26.5084C47.883 26.4 47.4495 26.3037 46.9316 26.2194C46.1609 26.111 45.4865 25.9725 44.9084 25.8039C44.3424 25.6232 43.8727 25.3884 43.4994 25.0994C43.126 24.7983 42.843 24.431 42.6503 23.9974C42.4697 23.5639 42.3794 23.046 42.3794 22.4439C42.3794 21.914 42.4877 21.4262 42.7045 20.9806C42.9213 20.523 43.2224 20.1316 43.6077 19.8065C44.0052 19.4692 44.4809 19.2103 45.0348 19.0297C45.5888 18.837 46.203 18.7406 46.8774 18.7406C48.2744 18.7406 49.3703 19.0538 50.1652 19.68C50.972 20.3062 51.4417 21.2396 51.5742 22.48H49.3703C49.2499 21.7935 48.991 21.2998 48.5935 20.9987C48.1961 20.6976 47.6241 20.5471 46.8774 20.5471C46.1428 20.5471 45.5888 20.7037 45.2155 21.0168C44.8422 21.3299 44.6555 21.7394 44.6555 22.2452C44.6555 22.5101 44.6856 22.7449 44.7458 22.9497C44.8181 23.1424 44.9505 23.317 45.1432 23.4735C45.348 23.6181 45.6189 23.7445 45.9561 23.8529C46.3054 23.9613 46.763 24.0576 47.329 24.1419C48.0877 24.2503 48.7501 24.3888 49.3161 24.5574C49.8942 24.726 50.3759 24.9609 50.7613 25.2619C51.1587 25.563 51.4538 25.9363 51.6465 26.3819C51.8391 26.8155 51.9355 27.3574 51.9355 28.0077C51.9355 28.5738 51.8211 29.0976 51.5923 29.5794C51.3634 30.0611 51.0383 30.4826 50.6168 30.8439C50.2073 31.2052 49.7075 31.4882 49.1174 31.6929C48.5394 31.8976 47.8951 32 47.1845 32Z" fill="white"/>
<path d="M57.8367 30.3019C58.6556 30.3019 59.2939 30.0249 59.7515 29.471C60.2091 28.9049 60.4379 28.1342 60.4379 27.1587V27.0323C60.4379 26.0568 60.2091 25.292 59.7515 24.7381C59.2939 24.172 58.6556 23.889 57.8367 23.889C57.0177 23.889 56.3734 24.166 55.9037 24.72C55.4461 25.274 55.2173 26.0387 55.2173 27.0142V27.1587C55.2173 28.1342 55.4461 28.9049 55.9037 29.471C56.3614 30.0249 57.0057 30.3019 57.8367 30.3019ZM57.8186 32C57.1201 32 56.4758 31.8856 55.8857 31.6568C55.2956 31.428 54.7837 31.1028 54.3502 30.6813C53.9167 30.2598 53.5794 29.754 53.3386 29.1639C53.0977 28.5738 52.9773 27.9174 52.9773 27.1948V27.0503C52.9773 26.3157 53.0977 25.6533 53.3386 25.0632C53.5915 24.4611 53.9347 23.9492 54.3683 23.5277C54.8018 23.0942 55.3136 22.763 55.9037 22.5342C56.4939 22.2933 57.1382 22.1729 57.8367 22.1729C58.5231 22.1729 59.1614 22.2873 59.7515 22.5161C60.3416 22.7449 60.8534 23.0761 61.287 23.5097C61.7205 23.9312 62.0577 24.437 62.2986 25.0271C62.5515 25.6172 62.6779 26.2735 62.6779 26.9961V27.1406C62.6779 27.8753 62.5515 28.5437 62.2986 29.1458C62.0577 29.7359 61.7205 30.2477 61.287 30.6813C60.8534 31.1028 60.3416 31.428 59.7515 31.6568C59.1614 31.8856 58.5171 32 57.8186 32Z" fill="white"/>
<path d="M67.3428 32C66.8731 32 66.4396 31.9338 66.0422 31.8013C65.6448 31.6568 65.3015 31.44 65.0125 31.151C64.7235 30.8619 64.4947 30.4946 64.326 30.049C64.1695 29.5914 64.0912 29.0495 64.0912 28.4232V22.3716H66.277V28.1703C66.277 28.8929 66.4276 29.4228 66.7286 29.76C67.0297 30.0852 67.4994 30.2477 68.1377 30.2477C68.4267 30.2477 68.7037 30.1996 68.9686 30.1032C69.2456 30.0069 69.4805 29.8684 69.6731 29.6877C69.8779 29.4951 70.0405 29.2602 70.1609 28.9832C70.2813 28.6942 70.3415 28.363 70.3415 27.9897V22.3716H72.5273V31.8194H70.3415V30.3381C70.1007 30.7957 69.7334 31.1871 69.2396 31.5123C68.7458 31.8374 68.1136 32 67.3428 32Z" fill="white"/>
<path d="M74.6477 22.3716H76.8335V23.871C77.0623 23.4133 77.4296 23.0159 77.9354 22.6787C78.4533 22.3415 79.1036 22.1729 79.8864 22.1729C80.3561 22.1729 80.7896 22.2452 81.187 22.3897C81.5844 22.5342 81.9277 22.757 82.2167 23.0581C82.5057 23.3471 82.7285 23.7265 82.8851 24.1961C83.0416 24.6658 83.1199 25.2258 83.1199 25.8761V31.8194H80.9341V26.0748C80.9341 25.3523 80.7836 24.8284 80.4825 24.5032C80.1814 24.166 79.7057 23.9974 79.0554 23.9974C78.4412 23.9974 77.9173 24.1901 77.4838 24.5755C77.0502 24.9488 76.8335 25.5088 76.8335 26.2555V31.8194H74.6477V22.3716Z" fill="white"/>
<path d="M88.7074 32C88.1172 32 87.5693 31.8976 87.0635 31.6929C86.5577 31.4882 86.1181 31.1871 85.7448 30.7897C85.3714 30.3802 85.0764 29.8804 84.8596 29.2903C84.6549 28.7002 84.5525 28.0198 84.5525 27.249V27.1045C84.5525 26.3458 84.6549 25.6654 84.8596 25.0632C85.0764 24.449 85.3714 23.9312 85.7448 23.5097C86.1302 23.0761 86.5818 22.7449 87.0996 22.5161C87.6175 22.2873 88.1835 22.1729 88.7977 22.1729C89.5684 22.1729 90.1947 22.3295 90.6764 22.6426C91.1702 22.9557 91.5495 23.3471 91.8145 23.8168V18H94.0003V31.8194H91.8145V30.2297C91.682 30.4705 91.5134 30.6994 91.3086 30.9161C91.1039 31.1209 90.8631 31.3075 90.5861 31.4761C90.3211 31.6327 90.0261 31.7591 89.7009 31.8555C89.3878 31.9518 89.0566 32 88.7074 32ZM89.2493 30.2658C90.008 30.2658 90.6342 30.0129 91.128 29.5071C91.6338 28.9892 91.8867 28.2004 91.8867 27.1406V26.9961C91.8867 25.9484 91.6579 25.1716 91.2003 24.6658C90.7547 24.148 90.1344 23.889 89.3396 23.889C88.5327 23.889 87.9065 24.16 87.4609 24.7019C87.0153 25.2439 86.7925 26.0267 86.7925 27.0503V27.1948C86.7925 28.2305 87.0213 29.0013 87.479 29.5071C87.9486 30.0129 88.5388 30.2658 89.2493 30.2658Z" fill="white"/>
<path d="M100.264 32C99.5892 32 98.9569 31.8916 98.3668 31.6748C97.7887 31.4581 97.2829 31.1449 96.8494 30.7355C96.4279 30.326 96.0967 29.8262 95.8558 29.2361C95.615 28.646 95.4945 27.9716 95.4945 27.2129V27.0684C95.4945 26.3217 95.615 25.6473 95.8558 25.0452C96.1087 24.443 96.452 23.9312 96.8855 23.5097C97.3191 23.0761 97.8249 22.7449 98.4029 22.5161C98.981 22.2873 99.6012 22.1729 100.264 22.1729C100.781 22.1729 101.287 22.2391 101.781 22.3716C102.275 22.492 102.714 22.6908 103.1 22.9677C103.497 23.2447 103.828 23.612 104.093 24.0697C104.358 24.5153 104.521 25.0632 104.581 25.7135H102.467C102.371 25.0753 102.13 24.6176 101.745 24.3406C101.359 24.0637 100.878 23.9252 100.3 23.9252C99.9264 23.9252 99.5831 23.9974 99.27 24.1419C98.9569 24.2744 98.6859 24.4791 98.4571 24.7561C98.2283 25.0211 98.0477 25.3462 97.9152 25.7316C97.7948 26.117 97.7345 26.5505 97.7345 27.0323V27.1768C97.7345 28.2125 97.9694 28.9953 98.439 29.5252C98.9087 30.0551 99.547 30.32 100.354 30.32C100.643 30.32 100.914 30.2778 101.167 30.1935C101.432 30.1092 101.667 29.9828 101.871 29.8142C102.076 29.6456 102.245 29.4348 102.377 29.1819C102.51 28.929 102.594 28.634 102.63 28.2968H104.635C104.599 28.8387 104.467 29.3385 104.238 29.7961C104.021 30.2417 103.726 30.6331 103.353 30.9703C102.979 31.2955 102.528 31.5484 101.998 31.729C101.48 31.9097 100.902 32 100.264 32Z" fill="white"/>
<path d="M106.1 18H108.286V31.8194H106.1V18Z" fill="white"/>
<path d="M114.706 30.3019C115.525 30.3019 116.163 30.0249 116.621 29.471C117.078 28.9049 117.307 28.1342 117.307 27.1587V27.0323C117.307 26.0568 117.078 25.292 116.621 24.7381C116.163 24.172 115.525 23.889 114.706 23.889C113.887 23.889 113.243 24.166 112.773 24.72C112.315 25.274 112.087 26.0387 112.087 27.0142V27.1587C112.087 28.1342 112.315 28.9049 112.773 29.471C113.231 30.0249 113.875 30.3019 114.706 30.3019ZM114.688 32C113.989 32 113.345 31.8856 112.755 31.6568C112.165 31.428 111.653 31.1028 111.22 30.6813C110.786 30.2598 110.449 29.754 110.208 29.1639C109.967 28.5738 109.847 27.9174 109.847 27.1948V27.0503C109.847 26.3157 109.967 25.6533 110.208 25.0632C110.461 24.4611 110.804 23.9492 111.238 23.5277C111.671 23.0942 112.183 22.763 112.773 22.5342C113.363 22.2933 114.008 22.1729 114.706 22.1729C115.392 22.1729 116.031 22.2873 116.621 22.5161C117.211 22.7449 117.723 23.0761 118.156 23.5097C118.59 23.9312 118.927 24.437 119.168 25.0271C119.421 25.6172 119.547 26.2735 119.547 26.9961V27.1406C119.547 27.8753 119.421 28.5437 119.168 29.1458C118.927 29.7359 118.59 30.2477 118.156 30.6813C117.723 31.1028 117.211 31.428 116.621 31.6568C116.031 31.8856 115.386 32 114.688 32Z" fill="white"/>
<path d="M124.212 32C123.742 32 123.309 31.9338 122.912 31.8013C122.514 31.6568 122.171 31.44 121.882 31.151C121.593 30.8619 121.364 30.4946 121.195 30.049C121.039 29.5914 120.961 29.0495 120.961 28.4232V22.3716H123.146V28.1703C123.146 28.8929 123.297 29.4228 123.598 29.76C123.899 30.0852 124.369 30.2477 125.007 30.2477C125.296 30.2477 125.573 30.1996 125.838 30.1032C126.115 30.0069 126.35 29.8684 126.542 29.6877C126.747 29.4951 126.91 29.2602 127.03 28.9832C127.151 28.6942 127.211 28.363 127.211 27.9897V22.3716H129.397V31.8194H127.211V30.3381C126.97 30.7957 126.603 31.1871 126.109 31.5123C125.615 31.8374 124.983 32 124.212 32Z" fill="white"/>
<path d="M135.058 32C134.468 32 133.92 31.8976 133.414 31.6929C132.908 31.4882 132.468 31.1871 132.095 30.7897C131.722 30.3802 131.427 29.8804 131.21 29.2903C131.005 28.7002 130.903 28.0198 130.903 27.249V27.1045C130.903 26.3458 131.005 25.6654 131.21 25.0632C131.427 24.449 131.722 23.9312 132.095 23.5097C132.48 23.0761 132.932 22.7449 133.45 22.5161C133.968 22.2873 134.534 22.1729 135.148 22.1729C135.919 22.1729 136.545 22.3295 137.027 22.6426C137.52 22.9557 137.9 23.3471 138.165 23.8168V18H140.351V31.8194H138.165V30.2297C138.032 30.4705 137.864 30.6994 137.659 30.9161C137.454 31.1209 137.213 31.3075 136.936 31.4761C136.671 31.6327 136.376 31.7591 136.051 31.8555C135.738 31.9518 135.407 32 135.058 32ZM135.6 30.2658C136.358 30.2658 136.985 30.0129 137.478 29.5071C137.984 28.9892 138.237 28.2004 138.237 27.1406V26.9961C138.237 25.9484 138.008 25.1716 137.551 24.6658C137.105 24.148 136.485 23.889 135.69 23.889C134.883 23.889 134.257 24.16 133.811 24.7019C133.366 25.2439 133.143 26.0267 133.143 27.0503V27.1948C133.143 28.2305 133.372 29.0013 133.829 29.5071C134.299 30.0129 134.889 30.2658 135.6 30.2658Z" fill="white"/>
</svg>
