<svg width="160" height="40" viewBox="0 0 160 40" fill="none" xmlns="http://www.w3.org/2000/svg">
<g clip-path="url(#clip0_23231_96615)">
<path d="M7 0.5H153C156.59 0.5 159.5 3.41015 159.5 7V33C159.5 36.5899 156.59 39.5 153 39.5H7C3.41015 39.5 0.5 36.5899 0.5 33V7C0.5 3.41015 3.41015 0.5 7 0.5Z" fill="black" stroke="#A6A6A6"/>
<path d="M43 14.8958V9.1042H43.9102V14.1317H46.6681V14.8958H43ZM48.0087 9.99855C47.7266 9.99855 47.4808 9.78148 47.4808 9.50362C47.4808 9.22576 47.7266 9 48.0087 9C48.3 9 48.5366 9.22576 48.5366 9.50362C48.5366 9.78148 48.3 9.99855 48.0087 9.99855ZM47.6082 14.8958V10.7019H48.4274V14.8958H47.6082ZM49.3039 14.3488L49.6952 13.7757C49.9956 14.0883 50.5781 14.3748 51.1698 14.3748C51.7887 14.3748 52.1164 14.1317 52.1164 13.7757C52.1164 13.3589 51.6157 13.22 51.0514 13.0984C50.3051 12.9334 49.4313 12.7424 49.4313 11.8394C49.4313 11.1708 50.032 10.5977 51.106 10.5977C51.8615 10.5977 52.4076 10.8582 52.7808 11.1968L52.4167 11.7438C52.1619 11.4486 51.6704 11.2315 51.1151 11.2315C50.5599 11.2315 50.2141 11.4399 50.2141 11.7786C50.2141 12.1433 50.6874 12.2648 51.2335 12.3864C51.998 12.5514 52.9082 12.7511 52.9082 13.7149C52.9082 14.4356 52.2893 15 51.1333 15C50.3961 15 49.7499 14.7829 49.3039 14.3488ZM55.1136 15C54.4218 15 54.0668 14.6266 54.0668 13.9667V11.3878H53.3387V10.7019H54.0668V9.55572H54.886V10.7019H55.778V11.3878H54.886V13.7931C54.886 14.0883 55.0316 14.3054 55.3138 14.3054C55.5049 14.3054 55.6779 14.2272 55.7598 14.1404L55.9691 14.7308C55.7962 14.8871 55.5413 15 55.1136 15ZM56.3723 12.7945C56.3723 11.5789 57.2916 10.5977 58.5749 10.5977C59.8947 10.5977 60.7139 11.5789 60.7139 12.864V13.055H57.237C57.3007 13.767 57.8468 14.3575 58.7297 14.3575C59.1939 14.3575 59.7036 14.1838 60.0313 13.8625L60.4135 14.3748C59.9766 14.7829 59.3577 15 58.6478 15C57.3371 15 56.3723 14.1143 56.3723 12.7945ZM58.5749 11.2402C57.6921 11.2402 57.2734 11.9175 57.2279 12.4906H59.9129C59.8947 11.9349 59.5033 11.2402 58.5749 11.2402ZM64.6668 14.8958V12.2127C64.6668 11.5181 64.2936 11.2923 63.7293 11.2923C63.2196 11.2923 62.7554 11.5876 62.5187 11.9001V14.8958H61.6996V10.7019H62.5187V11.2923C62.81 10.9537 63.3925 10.5977 64.0752 10.5977C65.0036 10.5977 65.486 11.0666 65.486 11.9522V14.8958H64.6668ZM70.998 15C69.6327 15 68.7771 14.0101 68.7771 12.7945C68.7771 11.5876 69.6327 10.5977 70.998 10.5977C72.3723 10.5977 73.2188 11.5876 73.2188 12.7945C73.2188 14.0101 72.3723 15 70.998 15ZM70.998 14.3054C71.8808 14.3054 72.3633 13.5933 72.3633 12.7945C72.3633 12.0043 71.8808 11.2923 70.998 11.2923C70.1242 11.2923 69.6327 12.0043 69.6327 12.7945C69.6327 13.5933 70.1242 14.3054 70.998 14.3054ZM77.1808 14.8958V12.2127C77.1808 11.5181 76.8076 11.2923 76.2433 11.2923C75.7336 11.2923 75.2694 11.5876 75.0328 11.9001V14.8958H74.2136V10.7019H75.0328V11.2923C75.324 10.9537 75.9066 10.5977 76.5892 10.5977C77.5176 10.5977 78 11.0666 78 11.9522V14.8958H77.1808Z" fill="white"/>
<path fill-rule="evenodd" clip-rule="evenodd" d="M29.8942 18.0815C25.8649 15.6886 19.2187 15.4686 15.3722 16.636C14.7544 16.8235 14.1012 16.4748 13.9141 15.8572C13.7269 15.239 14.0753 14.5863 14.6934 14.3985C19.1088 13.0583 26.449 13.3171 31.0876 16.0706C31.6432 16.4005 31.8254 17.118 31.4961 17.6727C31.1665 18.2283 30.4484 18.4114 29.8942 18.0815ZM29.7622 21.6257C29.4795 22.0844 28.8798 22.2283 28.4217 21.9466C25.0625 19.8818 19.9401 19.2836 15.9659 20.4899C15.4505 20.6456 14.9062 20.3551 14.7497 19.8406C14.5944 19.3254 14.885 18.782 15.3996 18.6253C19.9395 17.2476 25.5834 17.9148 29.4416 20.2859C29.8997 20.568 30.0439 21.168 29.7622 21.6257ZM28.2327 25.0294C28.0081 25.3978 27.5285 25.5132 27.1614 25.2887C24.2261 23.4947 20.5315 23.0896 16.1804 24.0834C15.7611 24.1795 15.3431 23.9168 15.2475 23.4975C15.1515 23.0784 15.4133 22.6604 15.8335 22.5647C20.5951 21.4763 24.6794 21.9447 27.9742 23.958C28.3415 24.1823 28.4572 24.6622 28.2327 25.0294ZM22.5 7C15.5966 7 10 12.5964 10 19.4999C10 26.404 15.5966 32 22.5 32C29.4037 32 35 26.404 35 19.4999C35 12.5964 29.4037 7 22.5 7Z" fill="#1ED760"/>
<path d="M47.188 31.1992C49.9771 31.1992 51.7534 29.7798 51.7534 27.522C51.7534 25.7788 50.7241 24.7744 48.2173 24.2432L46.9058 23.9692C45.3535 23.6372 44.7393 23.0562 44.7393 22.1846C44.7393 21.0889 45.7686 20.4082 47.1714 20.4082C48.624 20.4082 49.6118 21.147 49.728 22.3506H51.5293C51.4712 20.2588 49.7363 18.8228 47.1963 18.8228C44.6479 18.8228 42.8467 20.2339 42.8467 22.2842C42.8467 24.0107 43.9341 25.123 46.333 25.6294L47.6362 25.9033C49.2383 26.252 49.8691 26.833 49.8691 27.7627C49.8691 28.8335 48.7817 29.6138 47.2627 29.6138C45.6689 29.6138 44.54 28.8999 44.374 27.7129H42.5645C42.6807 29.8462 44.4819 31.1992 47.188 31.1992ZM54.999 33.8887V29.564H55.0405C55.5386 30.5352 56.5347 31.1494 57.7881 31.1494C59.9795 31.1494 61.4321 29.3979 61.4321 26.6338C61.4321 23.8696 59.9712 22.1265 57.7549 22.1265C56.4932 22.1265 55.4888 22.7656 54.9741 23.77H54.9409V22.2676H53.2061V33.8887H54.999ZM57.2817 29.6304C55.9038 29.6304 54.9907 28.4517 54.9907 26.6338C54.9907 24.8325 55.9121 23.6372 57.2817 23.6372C58.7012 23.6372 59.5894 24.8076 59.5894 26.6338C59.5894 28.4683 58.7012 29.6304 57.2817 29.6304ZM66.562 31.166C69.0605 31.166 70.7041 29.4478 70.7041 26.6338C70.7041 23.8281 69.0522 22.1099 66.562 22.1099C64.0718 22.1099 62.4199 23.8281 62.4199 26.6338C62.4199 29.4478 64.0635 31.166 66.562 31.166ZM66.562 29.6885C65.1592 29.6885 64.2461 28.5762 64.2461 26.6338C64.2461 24.6997 65.1592 23.5874 66.562 23.5874C67.9648 23.5874 68.8779 24.6997 68.8779 26.6338C68.8779 28.5762 67.9731 29.6885 66.562 29.6885ZM75.0703 31.0581C75.4688 31.0581 75.8672 31.0249 76.0664 30.9751V29.5557C75.9502 29.5806 75.6597 29.5972 75.4771 29.5972C74.7466 29.5972 74.4146 29.2568 74.4146 28.5015V23.687H76.0747V22.2676H74.4146V20.2007H72.6133V22.2676H71.3433V23.687H72.6133V28.7007C72.6133 30.3857 73.3022 31.0581 75.0703 31.0581ZM78.4985 20.8564C79.0713 20.8564 79.5278 20.3916 79.5278 19.8271C79.5278 19.2544 79.0713 18.7979 78.4985 18.7979C77.9258 18.7979 77.4609 19.2544 77.4609 19.8271C77.4609 20.3916 77.9258 20.8564 78.4985 20.8564ZM79.395 31V22.2676H77.6021V31H79.395ZM83.5537 31V23.687H85.2969V22.2842H83.5288V21.4624C83.5288 20.6904 83.894 20.3003 84.6743 20.3003C84.915 20.3003 85.1558 20.3169 85.3301 20.3501V19.022C85.0977 18.9805 84.6909 18.939 84.3257 18.939C82.5493 18.939 81.7524 19.7358 81.7524 21.4292V22.2842H80.5488V23.687H81.7524V31H83.5537ZM87.5796 34.2539C89.3892 34.2539 90.2524 33.5732 90.9995 31.4565L94.27 22.2676H92.3774L90.1694 29.373H90.1362L87.9282 22.2676H85.9858L89.1401 31.0083C89.1401 31.0166 88.9824 31.5312 88.9824 31.5479C88.7085 32.4443 88.2603 32.793 87.4302 32.793C87.2808 32.793 86.9819 32.793 86.8491 32.7598V34.2124C86.9819 34.2373 87.4302 34.2539 87.5796 34.2539Z" fill="white"/>
</g>
<defs>
<clipPath id="clip0_23231_96615">
<rect width="160" height="40" fill="white"/>
</clipPath>
</defs>
</svg>
