<svg width="160" height="40" viewBox="0 0 160 40" fill="none" xmlns="http://www.w3.org/2000/svg">
<path d="M7 0.5H153C156.59 0.5 159.5 3.41015 159.5 7V33C159.5 36.5899 156.59 39.5 153 39.5H7C3.41015 39.5 0.5 36.5899 0.5 33V7C0.5 3.41015 3.41015 0.5 7 0.5Z" fill="black" stroke="#A6A6A6"/>
<path d="M22.9965 35C25.9634 35.0007 28.8638 34.1215 31.331 32.4737C33.7982 30.8259 35.7213 28.4835 36.8572 25.7427C37.993 23.0018 38.2905 19.9857 37.7121 17.0758C37.1337 14.1658 35.7054 11.4928 33.6078 9.39457C31.5101 7.29647 28.8374 5.86753 25.9276 5.28848C23.0178 4.70942 20.0016 5.00627 17.2605 6.14149C14.5194 7.27667 12.1765 9.19927 10.5281 11.6661C8.8798 14.1329 8 17.0332 8 20C7.9995 21.9697 8.3871 23.9202 9.1405 25.74C9.894 27.5599 10.9985 29.2135 12.3911 30.6064C13.7837 31.9993 15.4371 33.1043 17.2568 33.8582C19.0765 34.612 21.0269 35 22.9965 35Z" fill="#FF0000"/>
<path d="M22.9976 12.1029C24.5607 12.1008 26.0893 12.5625 27.39 13.4296C28.6907 14.2966 29.7049 15.53 30.3043 16.9736C30.9038 18.4173 31.0615 20.0063 30.7575 21.5396C30.4536 23.0729 29.7016 24.4816 28.5967 25.5874C27.4919 26.6932 26.0839 27.4464 24.5508 27.7517C23.0178 28.057 21.4286 27.9007 19.9844 27.3025C18.5403 26.7043 17.306 25.6911 16.4379 24.3912C15.5697 23.0913 15.1067 21.5631 15.1073 19.9999C15.11 17.9075 15.942 15.9015 17.4209 14.4213C18.8998 12.9411 20.9051 12.1074 22.9976 12.1029ZM22.9976 10.8945C21.1959 10.8945 19.4346 11.4288 17.9366 12.4299C16.4386 13.4309 15.2711 14.8537 14.5817 16.5183C13.8924 18.183 13.7122 20.0146 14.064 21.7817C14.4157 23.5487 15.2836 25.1717 16.5578 26.4455C17.8321 27.7193 19.4554 28.5865 21.2226 28.9376C22.9898 29.2887 24.8214 29.1078 26.4857 28.4179C28.1501 27.7279 29.5725 26.5599 30.573 25.0615C31.5734 23.5631 32.1071 21.8016 32.1064 19.9999C32.1064 18.8039 31.8708 17.6196 31.413 16.5146C30.9552 15.4097 30.2842 14.4058 29.4383 13.5602C28.5924 12.7146 27.5882 12.044 26.4831 11.5866C25.378 11.1292 24.1936 10.8941 22.9976 10.8945Z" fill="white"/>
<path d="M20.1016 24.4332L27.7728 20.0003L20.1016 15.5708V24.4332Z" fill="white"/>
<path d="M50.6806 15.0746V15.8412H47.1259V15.0746H50.6806ZM47.3115 8.73193V15.8412H46.3691V8.73193H47.3115Z" fill="white"/>
<path d="M52.6035 10.5581V15.8413H51.6953V10.5581H52.6035ZM51.627 9.15678C51.627 9.01028 51.6709 8.88658 51.7588 8.78568C51.85 8.68478 51.9834 8.63428 52.1592 8.63428C52.3317 8.63428 52.4636 8.68478 52.5547 8.78568C52.6491 8.88658 52.6963 9.01028 52.6963 9.15678C52.6963 9.29668 52.6491 9.41718 52.5547 9.51808C52.4636 9.61568 52.3317 9.66458 52.1592 9.66458C51.9834 9.66458 51.85 9.61568 51.7588 9.51808C51.6709 9.41718 51.627 9.29668 51.627 9.15678Z" fill="white"/>
<path d="M57.1309 14.4399C57.1309 14.3097 57.1016 14.1893 57.043 14.0786C56.9877 13.9647 56.8721 13.8622 56.6963 13.771C56.5238 13.6766 56.2634 13.5951 55.9151 13.5268C55.6221 13.4649 55.3568 13.3917 55.1192 13.3071C54.8848 13.2224 54.6846 13.1199 54.5186 12.9994C54.3558 12.879 54.2305 12.7374 54.1426 12.5746C54.0547 12.4119 54.0108 12.2214 54.0108 12.0033C54.0108 11.795 54.0564 11.5982 54.1475 11.4125C54.2419 11.227 54.3737 11.0626 54.543 10.9194C54.7155 10.7761 54.9222 10.6638 55.1631 10.5824C55.404 10.5011 55.6726 10.4604 55.9688 10.4604C56.392 10.4604 56.7533 10.5353 57.0528 10.6851C57.3523 10.8347 57.5818 11.0349 57.7413 11.2856C57.9008 11.533 57.9805 11.808 57.9805 12.1108H57.0772C57.0772 11.9643 57.0333 11.8227 56.9454 11.686C56.8607 11.546 56.7354 11.4304 56.5694 11.3393C56.4066 11.2481 56.2064 11.2027 55.9688 11.2027C55.7181 11.2027 55.5147 11.2416 55.3584 11.3197C55.2055 11.3946 55.0931 11.4907 55.0215 11.6079C54.9532 11.7251 54.919 11.8487 54.919 11.9789C54.919 12.0766 54.9353 12.1646 54.9678 12.2427C55.0036 12.3176 55.0655 12.3876 55.1534 12.4527C55.2413 12.5145 55.365 12.573 55.5245 12.6283C55.684 12.6837 55.8874 12.739 56.1348 12.7944C56.5678 12.892 56.9242 13.0093 57.2041 13.146C57.4841 13.2827 57.6924 13.4503 57.8291 13.6489C57.9659 13.8474 58.0342 14.0883 58.0342 14.3715C58.0342 14.6026 57.9854 14.8142 57.8877 15.0063C57.7933 15.1983 57.655 15.3643 57.4727 15.5043C57.2937 15.641 57.0788 15.7485 56.8282 15.8266C56.5808 15.9015 56.3025 15.9389 55.9932 15.9389C55.5277 15.9389 55.1338 15.8559 54.8116 15.6899C54.4893 15.5239 54.2452 15.309 54.0791 15.0453C53.9131 14.7817 53.8301 14.5033 53.8301 14.2104H54.7383C54.7514 14.4578 54.823 14.6548 54.9532 14.8013C55.0834 14.9445 55.2429 15.0471 55.4317 15.1089C55.6205 15.1675 55.8077 15.1967 55.9932 15.1967C56.2406 15.1967 56.4473 15.1643 56.6133 15.0991C56.7826 15.034 56.9112 14.9444 56.9991 14.8305C57.087 14.7166 57.1309 14.5864 57.1309 14.4399Z" fill="white"/>
<path d="M61.4327 10.558V11.2514H58.5762V10.558H61.4327ZM59.543 9.27393H60.4463V14.5326C60.4463 14.7117 60.474 14.8468 60.5293 14.9379C60.5847 15.0291 60.6563 15.0893 60.7442 15.1186C60.8321 15.1479 60.9265 15.1625 61.0274 15.1625C61.1023 15.1625 61.1804 15.156 61.2618 15.143C61.3464 15.1267 61.4099 15.1137 61.4522 15.1039L61.4571 15.8412C61.3855 15.864 61.2911 15.8852 61.1739 15.9047C61.0599 15.9275 60.9216 15.9389 60.7588 15.9389C60.5375 15.9389 60.334 15.8949 60.1485 15.8071C59.9629 15.7192 59.8148 15.5727 59.7041 15.3676C59.5967 15.1593 59.543 14.8793 59.543 14.5278V9.27393Z" fill="white"/>
<path d="M64.6845 15.9389C64.3167 15.9389 63.983 15.877 63.6835 15.7533C63.3873 15.6264 63.1318 15.449 62.9169 15.2211C62.7054 14.9933 62.5426 14.7232 62.4287 14.4107C62.3147 14.0982 62.2578 13.7564 62.2578 13.3853V13.1801C62.2578 12.7504 62.3212 12.3679 62.4482 12.0326C62.5751 11.6941 62.7477 11.4076 62.9658 11.1733C63.1839 10.9389 63.4313 10.7615 63.708 10.641C63.9846 10.5206 64.2711 10.4604 64.5673 10.4604C64.9449 10.4604 65.2705 10.5255 65.5439 10.6557C65.8206 10.7859 66.0468 10.9683 66.2226 11.2027C66.3984 11.4338 66.5286 11.7071 66.6132 12.0229C66.6979 12.3354 66.7402 12.6772 66.7402 13.0483V13.4536H62.7949V12.7162H65.8369V12.6479C65.8238 12.4135 65.775 12.1856 65.6904 11.9643C65.609 11.7429 65.4788 11.5606 65.2998 11.4174C65.1207 11.2742 64.8766 11.2027 64.5673 11.2027C64.3623 11.2027 64.1735 11.2465 64.0009 11.3344C63.8284 11.419 63.6803 11.546 63.5566 11.7153C63.4329 11.8845 63.3369 12.0912 63.2685 12.3354C63.2001 12.5795 63.166 12.8611 63.166 13.1801V13.3853C63.166 13.6359 63.2001 13.8719 63.2685 14.0933C63.3401 14.3114 63.4427 14.5033 63.5761 14.6694C63.7128 14.8354 63.8772 14.9656 64.0693 15.06C64.2646 15.1544 64.486 15.2016 64.7333 15.2016C65.0524 15.2016 65.3225 15.1365 65.5439 15.0063C65.7652 14.8761 65.9589 14.702 66.1249 14.4839L66.6718 14.9184C66.5579 15.0909 66.413 15.2554 66.2373 15.4116C66.0615 15.5679 65.845 15.6947 65.5878 15.7924C65.3339 15.8902 65.0328 15.9389 64.6845 15.9389Z" fill="white"/>
<path d="M68.6982 11.686V15.8412H67.7949V10.558H68.6494L68.6982 11.686ZM68.4833 12.9994L68.1074 12.9848C68.1106 12.6235 68.1643 12.2898 68.2685 11.9838C68.3727 11.6746 68.5192 11.406 68.708 11.1781C68.8968 10.9503 69.1214 10.7745 69.3818 10.6508C69.6455 10.5239 69.9368 10.4604 70.2558 10.4604C70.5162 10.4604 70.7506 10.4962 70.9589 10.5678C71.1673 10.6362 71.3447 10.7468 71.4912 10.8998C71.6409 11.0528 71.7548 11.2514 71.833 11.4955C71.9111 11.7364 71.9501 12.031 71.9501 12.3793V15.8412H71.0419V12.3696C71.0419 12.0929 71.0013 11.8715 70.9199 11.7055C70.8385 11.5362 70.7197 11.4142 70.5634 11.3393C70.4072 11.2612 70.2151 11.2221 69.9873 11.2221C69.7626 11.2221 69.5576 11.2693 69.372 11.3637C69.1897 11.4581 69.0318 11.5883 68.8984 11.7543C68.7682 11.9203 68.6656 12.1108 68.5908 12.3256C68.5192 12.5372 68.4833 12.7618 68.4833 12.9994Z" fill="white"/>
<path d="M75.5625 13.2582V13.146C75.5625 12.7652 75.6179 12.4119 75.7285 12.0864C75.8392 11.7576 75.9987 11.4727 76.2071 11.2319C76.4154 10.9877 76.6677 10.7989 76.9639 10.6655C77.2601 10.5287 77.5921 10.4604 77.96 10.4604C78.3311 10.4604 78.6647 10.5287 78.961 10.6655C79.2604 10.7989 79.5143 10.9877 79.7227 11.2319C79.9343 11.4727 80.0954 11.7576 80.2061 12.0864C80.3168 12.4119 80.3721 12.7652 80.3721 13.146V13.2582C80.3721 13.6391 80.3168 13.9924 80.2061 14.3179C80.0954 14.6434 79.9343 14.9281 79.7227 15.1723C79.5143 15.4132 79.2621 15.6021 78.9658 15.7388C78.6729 15.8723 78.3408 15.9389 77.9698 15.9389C77.5987 15.9389 77.265 15.8723 76.9688 15.7388C76.6726 15.6021 76.4186 15.4132 76.2071 15.1723C75.9987 14.9281 75.8392 14.6434 75.7285 14.3179C75.6179 13.9924 75.5625 13.6391 75.5625 13.2582ZM76.4658 13.146V13.2582C76.4658 13.5219 76.4968 13.771 76.5586 14.0054C76.6205 14.2365 76.7132 14.4416 76.8369 14.6206C76.9639 14.7997 77.1218 14.9412 77.3106 15.0453C77.4994 15.1462 77.7191 15.1967 77.9698 15.1967C78.2171 15.1967 78.4336 15.1462 78.6192 15.0453C78.808 14.9412 78.9642 14.7997 79.0879 14.6206C79.2116 14.4416 79.3044 14.2365 79.3662 14.0054C79.4313 13.771 79.4639 13.5219 79.4639 13.2582V13.146C79.4639 12.8856 79.4313 12.6397 79.3662 12.4086C79.3044 12.1742 79.21 11.9675 79.083 11.7885C78.9593 11.6062 78.8031 11.463 78.6143 11.3588C78.4287 11.2546 78.2106 11.2027 77.96 11.2027C77.7126 11.2027 77.4945 11.2546 77.3057 11.3588C77.1201 11.463 76.9639 11.6062 76.8369 11.7885C76.7132 11.9675 76.6205 12.1742 76.5586 12.4086C76.4968 12.6397 76.4658 12.8856 76.4658 13.146Z" fill="white"/>
<path d="M82.4092 11.686V15.8412H81.5059V10.558H82.3604L82.4092 11.686ZM82.1944 12.9994L81.8184 12.9848C81.8217 12.6235 81.8754 12.2898 81.9795 11.9838C82.0837 11.6746 82.2302 11.406 82.419 11.1781C82.6078 10.9503 82.8324 10.7745 83.0928 10.6508C83.3565 10.5239 83.6478 10.4604 83.9668 10.4604C84.2273 10.4604 84.4616 10.4962 84.67 10.5678C84.8783 10.6362 85.0557 10.7468 85.2022 10.8998C85.3519 11.0528 85.4659 11.2514 85.544 11.4955C85.6221 11.7364 85.6612 12.031 85.6612 12.3793V15.8412H84.753V12.3696C84.753 12.0929 84.7123 11.8715 84.6309 11.7055C84.5495 11.5362 84.4307 11.4142 84.2745 11.3393C84.1182 11.2612 83.9262 11.2221 83.6983 11.2221C83.4737 11.2221 83.2686 11.2693 83.0831 11.3637C82.9008 11.4581 82.7429 11.5883 82.6094 11.7543C82.4792 11.9203 82.3767 12.1108 82.3018 12.3256C82.2302 12.5372 82.1944 12.7618 82.1944 12.9994Z" fill="white"/>
<path d="M49.3519 31.1392V27.0272L45.6719 20.2432H47.3359L50.1519 25.5232L53.0319 20.2432H54.6319L50.9519 27.0272L50.9359 31.1392H49.3519Z" fill="white"/>
<path d="M57.8326 31.379C56.734 31.379 55.886 31.0323 55.2886 30.339C54.6913 29.6456 54.3926 28.6696 54.3926 27.411C54.3926 26.163 54.6913 25.1923 55.2886 24.499C55.886 23.8056 56.734 23.459 57.8326 23.459C58.9313 23.459 59.7793 23.8056 60.3766 24.499C60.974 25.1923 61.2726 26.163 61.2726 27.411C61.2726 28.6696 60.974 29.6456 60.3766 30.339C59.7793 31.0323 58.9313 31.379 57.8326 31.379ZM57.8326 30.083C58.462 30.083 58.942 29.8536 59.2726 29.395C59.614 28.9256 59.7846 28.2643 59.7846 27.411C59.7846 26.579 59.614 25.9283 59.2726 25.459C58.942 24.9896 58.462 24.755 57.8326 24.755C57.214 24.755 56.734 24.9896 56.3926 25.459C56.0513 25.9283 55.8806 26.579 55.8806 27.411C55.8806 28.2643 56.0513 28.9256 56.3926 29.395C56.734 29.8536 57.214 30.083 57.8326 30.083Z" fill="white"/>
<path d="M65.7696 31.3627C64.895 31.3627 64.2176 31.1013 63.7376 30.5787C63.2576 30.056 63.0176 29.2827 63.0176 28.2587V23.6987H64.5056V27.9387C64.5056 28.3013 64.5376 28.6373 64.6016 28.9467C64.6763 29.256 64.8203 29.5067 65.0336 29.6987C65.2576 29.8907 65.5883 29.9867 66.0256 29.9867C66.5803 29.9867 67.007 29.8053 67.3056 29.4427C67.615 29.08 67.7696 28.5307 67.7696 27.7947V23.6987H69.2576V31.1387H67.9136V30.3067C67.6576 30.6587 67.343 30.9253 66.9696 31.1067C66.607 31.2773 66.207 31.3627 65.7696 31.3627Z" fill="white"/>
<path d="M73.0119 31.1392V21.6672H69.5879V20.2432H78.2599L77.7959 21.6672H74.6119V31.1392H73.0119Z" fill="white"/>
<path d="M80.9375 31.3627C80.0628 31.3627 79.3855 31.1013 78.9055 30.5787C78.4255 30.056 78.1855 29.2827 78.1855 28.2587V23.6987H79.6735V27.9387C79.6735 28.3013 79.7055 28.6373 79.7695 28.9467C79.8442 29.256 79.9882 29.5067 80.2015 29.6987C80.4255 29.8907 80.7562 29.9867 81.1935 29.9867C81.7482 29.9867 82.1748 29.8053 82.4735 29.4427C82.7828 29.08 82.9375 28.5307 82.9375 27.7947V23.6987H84.4255V31.1387H83.0815V30.3067C82.8255 30.6587 82.5108 30.9253 82.1375 31.1067C81.7748 31.2773 81.3748 31.3627 80.9375 31.3627Z" fill="white"/>
<path d="M90.4988 31.3632C89.5494 31.3632 88.8134 31.0218 88.2908 30.3392V31.1392H86.8828V20.2432H88.3708V24.4352C88.8934 23.7952 89.6028 23.4752 90.4988 23.4752C91.4801 23.4752 92.253 23.8218 92.819 24.5152C93.395 25.1978 93.683 26.1632 93.683 27.4112C93.683 28.6698 93.395 29.6458 92.819 30.3392C92.253 31.0218 91.4801 31.3632 90.4988 31.3632ZM90.2748 30.0672C90.8828 30.0672 91.3521 29.8432 91.6828 29.3952C92.024 28.9365 92.195 28.2752 92.195 27.4112C92.195 26.5898 92.024 25.9445 91.6828 25.4752C91.3521 25.0058 90.8828 24.7712 90.2748 24.7712C89.6668 24.7712 89.1974 25.0058 88.8668 25.4752C88.5361 25.9445 88.3708 26.5898 88.3708 27.4112C88.3708 28.2645 88.5361 28.9205 88.8668 29.3792C89.1974 29.8378 89.6668 30.0672 90.2748 30.0672Z" fill="white"/>
<path d="M98.615 31.3631C97.516 31.3631 96.6569 31.0217 96.0389 30.3391C95.4309 29.6457 95.127 28.6964 95.127 27.4911C95.127 26.7124 95.2549 26.0244 95.5109 25.4271C95.7669 24.8191 96.14 24.3444 96.631 24.0031C97.121 23.6511 97.7289 23.4751 98.4549 23.4751C99.5109 23.4751 100.305 23.8164 100.839 24.4991C101.372 25.1711 101.639 26.0831 101.639 27.2351C101.639 27.3631 101.628 27.4804 101.607 27.5871C101.596 27.6937 101.585 27.8164 101.575 27.9551H96.583C96.636 28.7124 96.855 29.2617 97.239 29.6031C97.633 29.9444 98.156 30.1151 98.807 30.1151C99.148 30.1151 99.4519 30.0671 99.7189 29.9711C99.9849 29.8644 100.273 29.6831 100.583 29.4271L101.335 30.3871C100.929 30.7284 100.508 30.9791 100.071 31.1391C99.644 31.2884 99.159 31.3631 98.615 31.3631ZM98.471 24.7231C97.884 24.7231 97.436 24.9204 97.127 25.3151C96.817 25.7097 96.636 26.2377 96.583 26.8991H100.311C100.289 26.2164 100.129 25.6831 99.8309 25.2991C99.5429 24.9151 99.089 24.7231 98.471 24.7231Z" fill="white"/>
<path d="M107.785 20.2432H109.625L113.081 28.4672L116.649 20.2432H118.377V31.1392H116.825V23.1072L113.609 30.6912H112.601L109.353 23.1392V31.1392H107.785V20.2432Z" fill="white"/>
<path d="M123.703 31.3627C122.828 31.3627 122.151 31.1013 121.671 30.5787C121.191 30.056 120.951 29.2827 120.951 28.2587V23.6987H122.439V27.9387C122.439 28.3013 122.471 28.6373 122.535 28.9467C122.609 29.256 122.753 29.5067 122.967 29.6987C123.191 29.8907 123.521 29.9867 123.959 29.9867C124.513 29.9867 124.94 29.8053 125.239 29.4427C125.548 29.08 125.703 28.5307 125.703 27.7947V23.6987H127.191V31.1387H125.847V30.3067C125.591 30.6587 125.276 30.9253 124.903 31.1067C124.54 31.2773 124.14 31.3627 123.703 31.3627Z" fill="white"/>
<path d="M131.792 31.3791C131.27 31.3791 130.784 31.3044 130.336 31.1551C129.888 31.0057 129.467 30.7977 129.072 30.5311L129.584 29.3471C129.99 29.6031 130.363 29.7897 130.704 29.9071C131.056 30.0137 131.403 30.0671 131.744 30.0671C132.214 30.0671 132.571 29.9871 132.816 29.8271C133.062 29.6564 133.184 29.4271 133.184 29.1391C133.184 28.8084 133.046 28.5577 132.768 28.3871C132.491 28.2057 132.123 28.0297 131.664 27.8591C130.971 27.6031 130.416 27.3151 130 26.9951C129.595 26.6644 129.387 26.1951 129.376 25.5871C129.366 24.9151 129.6 24.3977 130.08 24.0351C130.571 23.6617 131.216 23.4751 132.016 23.4751C132.859 23.4751 133.632 23.7044 134.336 24.1631L133.824 25.3151C133.504 25.1337 133.206 25.0004 132.928 24.9151C132.651 24.8191 132.352 24.7711 132.032 24.7711C131.648 24.7711 131.344 24.8404 131.12 24.9791C130.896 25.1071 130.784 25.3097 130.784 25.5871C130.784 25.8751 130.918 26.0937 131.184 26.2431C131.462 26.3924 131.872 26.5737 132.416 26.7871C133.088 27.0431 133.627 27.3417 134.032 27.6831C134.438 28.0137 134.64 28.4937 134.64 29.1231C134.64 29.8271 134.379 30.3817 133.856 30.7871C133.344 31.1817 132.656 31.3791 131.792 31.3791Z" fill="white"/>
<path d="M138.626 31.2187C137.911 31.2187 137.399 31.0533 137.09 30.7227C136.78 30.3813 136.626 29.8267 136.626 29.0587V23.6987H138.114V28.9307C138.114 29.2613 138.156 29.496 138.242 29.6347C138.327 29.7627 138.476 29.8267 138.69 29.8267H138.978V31.2187H138.626ZM137.378 22.1307C137.09 22.1307 136.855 22.04 136.674 21.8587C136.492 21.6773 136.402 21.4427 136.402 21.1547C136.402 20.8667 136.492 20.632 136.674 20.4507C136.866 20.2693 137.1 20.1787 137.378 20.1787C137.655 20.1787 137.884 20.2747 138.066 20.4667C138.258 20.648 138.354 20.872 138.354 21.1387C138.354 21.4267 138.263 21.6667 138.082 21.8587C137.9 22.04 137.666 22.1307 137.378 22.1307Z" fill="white"/>
<path d="M143.639 31.379C142.509 31.379 141.639 31.0323 141.031 30.339C140.434 29.6456 140.135 28.675 140.135 27.427C140.135 26.211 140.429 25.2456 141.015 24.531C141.602 23.8163 142.466 23.459 143.607 23.459C144.066 23.459 144.487 23.523 144.871 23.651C145.266 23.7683 145.661 23.971 146.055 24.259L145.319 25.347C145.031 25.1336 144.765 24.9843 144.519 24.899C144.274 24.803 143.997 24.755 143.687 24.755C143.015 24.755 142.503 25.0003 142.151 25.491C141.799 25.9816 141.623 26.627 141.623 27.427C141.623 28.2803 141.794 28.9363 142.135 29.395C142.487 29.8536 143.005 30.083 143.687 30.083C143.965 30.083 144.258 30.035 144.567 29.939C144.877 29.843 145.17 29.683 145.447 29.459L146.215 30.403C145.853 30.755 145.463 31.0056 145.047 31.155C144.642 31.3043 144.173 31.379 143.639 31.379Z" fill="white"/>
</svg>
