<svg width="1080" height="1440" viewBox="0 0 1080 1440" fill="none" xmlns="http://www.w3.org/2000/svg">
  <defs>
    <linearGradient id="bg" x1="0" y1="0" x2="1080" y2="1440" gradientUnits="userSpaceOnUse">
      <stop stop-color="#F0F0F0"/>
      <stop offset="1" stop-color="#D8D8D8"/>
    </linearGradient>
    <linearGradient id="accent" x1="260" y1="430" x2="760" y2="1220" gradientUnits="userSpaceOnUse">
      <stop stop-color="#2A2A2A"/>
      <stop offset="1" stop-color="#1A1A1A"/>
    </linearGradient>
  </defs>

  <rect width="1080" height="1440" fill="url(#bg)"/>

  <g stroke="#171717" stroke-width="3" stroke-linecap="round" stroke-linejoin="round" opacity="0.92">
    <path d="M40 1050H1040"/>
    <path d="M100 1020L220 890H360L420 840H560L640 910H760L870 840H980"/>
    <rect x="120" y="760" width="170" height="200" rx="14"/>
    <rect x="790" y="720" width="190" height="240" rx="14"/>
    <circle cx="540" cy="940" r="190"/>
    <circle cx="540" cy="940" r="98"/>
    <path d="M470 820L650 735L760 810"/>
    <path d="M350 840L460 740L585 705L700 760"/>
    <path d="M150 845H255M830 830H940"/>
    <path d="M885 770V890M150 800V930"/>
    <circle cx="370" cy="715" r="28"/>
    <circle cx="708" cy="706" r="28"/>
    <path d="M210 915C260 930 287 970 290 1020"/>
    <path d="M865 890C840 940 840 975 860 1020"/>
    <path d="M600 850L645 905M645 905L685 860"/>
    <path d="M470 1000L425 1040M610 1025L655 1068"/>
  </g>

  <g opacity="0.2" stroke="url(#accent)" stroke-width="1.8">
    <path d="M0 180H1080M0 320H1080M0 460H1080M0 600H1080M0 740H1080M0 880H1080M0 1020H1080M0 1160H1080"/>
    <path d="M120 0V1440M260 0V1440M400 0V1440M540 0V1440M680 0V1440M820 0V1440M960 0V1440"/>
  </g>
</svg>
