<svg width="1080" height="1440" viewBox="0 0 1080 1440" fill="none" xmlns="http://www.w3.org/2000/svg">
  <defs>
    <linearGradient id="bg" x1="120" y1="100" x2="960" y2="1380" gradientUnits="userSpaceOnUse">
      <stop stop-color="#1B0152"/>
      <stop offset="0.55" stop-color="#250761"/>
      <stop offset="1" stop-color="#10042D"/>
    </linearGradient>
    <radialGradient id="pulseA" cx="0" cy="0" r="1" gradientUnits="userSpaceOnUse" gradientTransform="translate(280 1070) rotate(20) scale(420 280)">
      <stop stop-color="#F6A9FF" stop-opacity="0.8"/>
      <stop offset="1" stop-color="#F6A9FF" stop-opacity="0"/>
    </radialGradient>
    <radialGradient id="pulseB" cx="0" cy="0" r="1" gradientUnits="userSpaceOnUse" gradientTransform="translate(820 860) rotate(-18) scale(420 260)">
      <stop stop-color="#9EC3FF" stop-opacity="0.75"/>
      <stop offset="1" stop-color="#9EC3FF" stop-opacity="0"/>
    </radialGradient>
  </defs>

  <rect width="1080" height="1440" fill="url(#bg)"/>
  <rect width="1080" height="1440" fill="url(#pulseA)"/>
  <rect width="1080" height="1440" fill="url(#pulseB)"/>

  <g opacity="0.28">
    <path d="M0 780H1080M0 900H1080M0 1020H1080M0 1140H1080M0 1260H1080" stroke="#AB8AFF"/>
    <path d="M120 680V1420M240 680V1420M360 680V1420M480 680V1420M600 680V1420M720 680V1420M840 680V1420M960 680V1420" stroke="#AB8AFF"/>
  </g>

  <g fill="none" stroke-linecap="round">
    <path d="M-60 1190C120 1060 250 1060 390 1190C530 1320 660 1320 800 1190C940 1060 1070 1060 1240 1190" stroke="#DFA4FF" stroke-opacity="0.9" stroke-width="14"/>
    <path d="M-70 1120C110 990 240 990 380 1120C520 1250 650 1250 790 1120C930 990 1060 990 1230 1120" stroke="#9CC0FF" stroke-opacity="0.75" stroke-width="11"/>
    <path d="M-50 1260C130 1130 260 1130 400 1260C540 1390 670 1390 810 1260C950 1130 1080 1130 1250 1260" stroke="#C16BFF" stroke-opacity="0.82" stroke-width="10"/>
  </g>

  <g fill="#EFE2FF" opacity="0.9">
    <circle cx="150" cy="400" r="3"/>
    <circle cx="250" cy="350" r="2"/>
    <circle cx="410" cy="430" r="3"/>
    <circle cx="640" cy="320" r="2"/>
    <circle cx="760" cy="390" r="3"/>
    <circle cx="930" cy="340" r="2"/>
  </g>
</svg>
