<svg width="1080" height="1440" viewBox="0 0 1080 1440" fill="none" xmlns="http://www.w3.org/2000/svg">
  <defs>
    <linearGradient id="bg" x1="140" y1="100" x2="940" y2="1320" gradientUnits="userSpaceOnUse">
      <stop offset="0" stop-color="#12002A"/>
      <stop offset="0.52" stop-color="#0B0E3A"/>
      <stop offset="1" stop-color="#090B16"/>
    </linearGradient>
    <linearGradient id="waveA" x1="120" y1="720" x2="1020" y2="900" gradientUnits="userSpaceOnUse">
      <stop stop-color="#7AF2FF"/>
      <stop offset="0.5" stop-color="#B266FF"/>
      <stop offset="1" stop-color="#5C8CFF"/>
    </linearGradient>
    <linearGradient id="waveB" x1="0" y1="690" x2="980" y2="910" gradientUnits="userSpaceOnUse">
      <stop stop-color="#77E4FF"/>
      <stop offset="1" stop-color="#E36EFF"/>
    </linearGradient>
    <radialGradient id="glow" cx="0" cy="0" r="1" gradientUnits="userSpaceOnUse" gradientTransform="translate(540 800) rotate(90) scale(520 420)">
      <stop stop-color="#7B42FF" stop-opacity="0.45"/>
      <stop offset="1" stop-color="#7B42FF" stop-opacity="0"/>
    </radialGradient>
    <filter id="blur" x="-80" y="-80" width="1240" height="1600" filterUnits="userSpaceOnUse" color-interpolation-filters="sRGB">
      <feGaussianBlur stdDeviation="12"/>
    </filter>
  </defs>

  <rect width="1080" height="1440" fill="url(#bg)"/>
  <rect width="1080" height="1440" fill="url(#glow)"/>

  <g opacity="0.25">
    <path d="M0 180H1080M0 300H1080M0 420H1080M0 540H1080M0 660H1080M0 780H1080M0 900H1080M0 1020H1080M0 1140H1080M0 1260H1080" stroke="#8F8FB0" stroke-opacity="0.22"/>
    <path d="M120 0V1440M240 0V1440M360 0V1440M480 0V1440M600 0V1440M720 0V1440M840 0V1440M960 0V1440" stroke="#8F8FB0" stroke-opacity="0.12"/>
  </g>

  <g filter="url(#blur)">
    <path d="M-40 850C120 720 230 720 350 850C470 980 580 980 700 850C820 720 930 720 1120 850" stroke="url(#waveA)" stroke-width="30" stroke-linecap="round"/>
    <path d="M-60 900C100 770 210 770 330 900C450 1030 560 1030 680 900C800 770 910 770 1100 900" stroke="url(#waveB)" stroke-width="24" stroke-linecap="round"/>
    <path d="M-80 950C80 820 190 820 310 950C430 1080 540 1080 660 950C780 820 890 820 1080 950" stroke="url(#waveA)" stroke-width="20" stroke-linecap="round" opacity="0.85"/>
  </g>

  <g opacity="0.68">
    <circle cx="180" cy="300" r="3" fill="#7FE5FF"/>
    <circle cx="280" cy="360" r="2.6" fill="#7FE5FF"/>
    <circle cx="370" cy="280" r="2.4" fill="#7FE5FF"/>
    <circle cx="650" cy="330" r="3" fill="#A36BFF"/>
    <circle cx="760" cy="410" r="2.6" fill="#A36BFF"/>
    <circle cx="850" cy="320" r="2.4" fill="#A36BFF"/>
  </g>
</svg>
